0
SECTION
2
HEADER
9
$INSUNITS
70
1
9
$ACADVER
1
AC1014
9
$HANDSEED
5
FFFF
0
ENDSEC
0
SECTION
2
TABLES
0
TABLE
2
VPORT
5
8
100
AcDbSymbolTable
0
ENDTAB
0
TABLE
2
LTYPE
5
5
100
AcDbSymbolTable
0
LTYPE
5
14
100
AcDbSymbolTableRecord
100
AcDbLinetypeTableRecord
2
BYBLOCK
70
0
0
LTYPE
5
15
100
AcDbSymbolTableRecord
100
AcDbLinetypeTableRecord
2
BYLAYER
70
0
0
ENDTAB
0
TABLE
2
LAYER
5
2
100
AcDbSymbolTable
70
2
0
LAYER
5
50
100
AcDbSymbolTableRecord
100
AcDbLayerTableRecord
2
0
70
0
6
CONTINUOUS
0
ENDTAB
0
TABLE
2
STYLE
5
3
100
AcDbSymbolTable
70
1
0
STYLE
5
11
100
AcDbSymbolTableRecord
100
AcDbTextStyleTableRecord
2
STANDARD
70
0
0
ENDTAB
0
TABLE
2
VIEW
5
6
100
AcDbSymbolTable
70
0
0
ENDTAB
0
TABLE
2
UCS
5
7
100
AcDbSymbolTable
70
0
0
ENDTAB
0
TABLE
2
APPID
5
9
100
AcDbSymbolTable
70
2
0
APPID
5
12
100
AcDbSymbolTableRecord
100
AcDbRegAppTableRecord
2
ACAD
70
0
0
ENDTAB
0
TABLE
2
DIMSTYLE
5
A
100
AcDbSymbolTable
70
1
0
ENDTAB
0
TABLE
2
BLOCK_RECORD
5
1
100
AcDbSymbolTable
70
1
0
BLOCK_RECORD
5
1F
100
AcDbSymbolTableRecord
100
AcDbBlockTableRecord
2
*MODEL_SPACE
0
BLOCK_RECORD
5
1B
100
AcDbSymbolTableRecord
100
AcDbBlockTableRecord
2
*PAPER_SPACE
0
ENDTAB
0
ENDSEC
0
SECTION
2
BLOCKS
0
BLOCK
5
20
100
AcDbEntity
100
AcDbBlockBegin
2
*MODEL_SPACE
0
ENDBLK
5
21
100
AcDbEntity
100
AcDbBlockEnd
0
BLOCK
5
1C
100
AcDbEntity
100
AcDbBlockBegin
2
*PAPER_SPACE
0
ENDBLK
5
1D
100
AcDbEntity
100
AcDbBlockEnd
0
ENDSEC
0
SECTION
2
ENTITIES
0
LWPOLYLINE
5
100
100
AcDbEntity
8
0
100
AcDbPolyline
90
6
70
1
43
0.0
10
1.4951708195297253
20
5.6689452792017558
10
1.5889208195297266
20
5.5065655159921727
10
1.4951708195297253
20
5.3441857527825958
10
1.3076708195297251
20
5.3441857527825958
10
1.2139208195297264
20
5.5065655159921727
10
1.3076708195297251
20
5.6689452792017558
0
LWPOLYLINE
5
101
100
AcDbEntity
8
0
100
AcDbPolyline
90
6
70
1
43
0.0
10
1.3076708195297251
20
5.1689452792017549
10
1.4951708195297253
20
5.1689452792017549
10
1.5889208195297266
20
5.0065655159921745
10
1.4951708195297253
20
4.844185752782594
10
1.3076708195297251
20
4.844185752782594
10
1.2139208195297264
20
5.0065655159921745
0
LWPOLYLINE
5
102
100
AcDbEntity
8
0
100
AcDbPolyline
90
6
70
1
43
0.0
10
1.3076708195297251
20
5.844185752782594
10
1.2139208195297264
20
6.0065655159921745
10
1.3076708195297251
20
6.1689452792017541
10
1.4951708195297253
20
6.1689452792017541
10
1.5889208195297266
20
6.0065655159921745
10
1.4951708195297253
20
5.844185752782594
0
CIRCLE
5
103
100
AcDbEntity
8
0
100
AcDbCircle
10
6.1720514421272163
20
3.0155014421272219
30
0
40
0.069000000000000006
210
0
220
0
230
1
0
LWPOLYLINE
5
104
100
AcDbEntity
8
0
100
AcDbPolyline
90
6
70
1
43
0.0
10
1.2139208195297264
20
6.5065655159921727
10
1.3076708195297251
20
6.6689452792017558
10
1.4951708195297253
20
6.6689452792017558
10
1.5889208195297266
20
6.5065655159921727
10
1.4951708195297253
20
6.3441857527825949
10
1.3076708195297251
20
6.3441857527825949
0
LWPOLYLINE
5
105
100
AcDbEntity
8
0
100
AcDbPolyline
90
6
70
1
43
0.0
10
1.0620742894513453
20
4.9188000282742239
10
1.1558242894513466
20
4.756420265064647
10
1.0620742894513453
20
4.5940405018550639
10
0.87457428945134508
20
4.5940405018550639
10
0.78082428945134641
20
4.756420265064647
10
0.87457428945134508
20
4.9188000282742239
0
LWPOLYLINE
5
106
100
AcDbEntity
8
0
100
AcDbPolyline
90
6
70
1
43
0.0
10
1.2139208195297264
20
3.5065655159921736
10
1.3076708195297251
20
3.668945279201751
10
1.4951708195297253
20
3.668945279201751
10
1.5889208195297266
20
3.5065655159921736
10
1.4951708195297253
20
3.3441857527825936
10
1.3076708195297251
20
3.3441857527825936
0
LWPOLYLINE
5
107
100
AcDbEntity
8
0
100
AcDbPolyline
90
6
70
1
43
0.0
10
0.78082428945134641
20
7.7564202650646452
10
0.87457428945134508
20
7.9188000282742257
10
1.0620742894513453
20
7.9188000282742257
10
1.1558242894513466
20
7.7564202650646452
10
1.0620742894513453
20
7.5940405018550621
10
0.87457428945134508
20
7.5940405018550621
0
LWPOLYLINE
5
108
100
AcDbEntity
8
0
100
AcDbPolyline
90
6
70
1
43
0.0
10
2.0801138796864755
20
6.5068560178472348
10
2.1738638796864769
20
6.6692357810568152
10
2.3613638796864769
20
6.6692357810568152
10
2.4551138796864755
20
6.5068560178472348
10
2.3613638796864769
20
6.3444762546376525
10
2.1738638796864769
20
6.3444762546376525
0
LWPOLYLINE
5
109
100
AcDbEntity
8
0
100
AcDbPolyline
90
6
70
1
43
0.0
10
2.3613638796864769
20
6.8444762546376534
10
2.1738638796864769
20
6.8444762546376534
10
2.0801138796864755
20
7.0068560178472366
10
2.1738638796864769
20
7.1692357810568135
10
2.3613638796864769
20
7.1692357810568135
10
2.4551138796864755
20
7.0068560178472366
0
LWPOLYLINE
5
110
100
AcDbEntity
8
0
100
AcDbPolyline
90
6
70
1
43
0.0
10
1.2139208195297264
20
7.0065655159921736
10
1.3076708195297251
20
7.1689452792017567
10
1.4951708195297253
20
7.1689452792017567
10
1.5889208195297266
20
7.0065655159921736
10
1.4951708195297253
20
6.8441857527825931
10
1.3076708195297251
20
6.8441857527825931
0
LWPOLYLINE
5
111
100
AcDbEntity
8
0
100
AcDbPolyline
90
6
70
1
43
0.0
10
0.87457428945134508
20
5.4188000282742257
10
1.0620742894513453
20
5.4188000282742257
10
1.1558242894513466
20
5.2564202650646452
10
1.0620742894513453
20
5.0940405018550647
10
0.87457428945134508
20
5.0940405018550647
10
0.78082428945134641
20
5.2564202650646452
0
LWPOLYLINE
5
112
100
AcDbEntity
8
0
100
AcDbPolyline
90
6
70
1
43
0.0
10
1.9282673496081053
20
4.0943310037101224
10
1.7407673496081051
20
4.0943310037101224
10
1.6470173496081064
20
4.2567107669197055
10
1.7407673496081051
20
4.4190905301292824
10
1.9282673496081053
20
4.4190905301292824
10
2.0220173496081069
20
4.2567107669197055
0
LWPOLYLINE
5
113
100
AcDbEntity
8
0
100
AcDbPolyline
90
6
70
1
43
0.0
10
2.4551138796864755
20
4.0068560178472348
10
2.3613638796864769
20
3.8444762546376547
10
2.1738638796864769
20
3.8444762546376547
10
2.0801138796864755
20
4.0068560178472348
10
2.1738638796864769
20
4.1692357810568152
10
2.3613638796864769
20
4.1692357810568152
0
LWPOLYLINE
5
114
100
AcDbEntity
8
0
100
AcDbPolyline
90
6
70
1
43
0.0
10
1.0620742894513453
20
2.9188000282742248
10
1.1558242894513466
20
2.7564202650646448
10
1.0620742894513453
20
2.5940405018550647
10
0.87457428945134508
20
2.5940405018550647
10
0.78082428945134641
20
2.7564202650646448
10
0.87457428945134508
20
2.9188000282742248
0
LWPOLYLINE
5
115
100
AcDbEntity
8
0
100
AcDbPolyline
90
6
70
1
43
0.0
10
1.4951708195297253
20
8.1689452792017505
10
1.5889208195297266
20
8.00656551599217
10
1.4951708195297253
20
7.8441857527825958
10
1.3076708195297251
20
7.8441857527825958
10
1.2139208195297264
20
8.00656551599217
10
1.3076708195297251
20
8.1689452792017505
0
LWPOLYLINE
5
116
100
AcDbEntity
8
0
100
AcDbPolyline
90
6
70
1
43
0.0
10
1.7407673496081051
20
8.4190905301292833
10
1.9282673496081053
20
8.4190905301292833
10
2.0220173496081069
20
8.2567107669197046
10
1.9282673496081053
20
8.0943310037101259
10
1.7407673496081051
20
8.0943310037101259
10
1.6470173496081064
20
8.2567107669197046
0
LWPOLYLINE
5
117
100
AcDbEntity
8
0
100
AcDbPolyline
90
6
70
1
43
0.0
10
2.3613638796864769
20
5.3444762546376525
10
2.1738638796864769
20
5.3444762546376525
10
2.0801138796864755
20
5.5068560178472357
10
2.1738638796864769
20
5.6692357810568126
10
2.3613638796864769
20
5.6692357810568126
10
2.4551138796864755
20
5.5068560178472357
0
LWPOLYLINE
5
118
100
AcDbEntity
8
0
100
AcDbPolyline
90
6
70
1
43
0.0
10
0.87457428945134508
20
7.4188000282742248
10
1.0620742894513453
20
7.4188000282742248
10
1.1558242894513466
20
7.256420265064647
10
1.0620742894513453
20
7.0940405018550639
10
0.87457428945134508
20
7.0940405018550639
10
0.78082428945134641
20
7.256420265064647
0
LWPOLYLINE
5
119
100
AcDbEntity
8
0
100
AcDbPolyline
90
6
70
1
43
0.0
10
1.0620742894513453
20
4.0940405018550621
10
0.87457428945134508
20
4.0940405018550621
10
0.78082428945134641
20
4.2564202650646452
10
0.87457428945134508
20
4.4188000282742257
10
1.0620742894513453
20
4.4188000282742257
10
1.1558242894513466
20
4.2564202650646452
0
LWPOLYLINE
5
120
100
AcDbEntity
8
0
100
AcDbPolyline
90
6
70
1
43
0.0
10
1.3076708195297251
20
4.6689452792017558
10
1.4951708195297253
20
4.6689452792017558
10
1.5889208195297266
20
4.5065655159921736
10
1.4951708195297253
20
4.3441857527825958
10
1.3076708195297251
20
4.3441857527825958
10
1.2139208195297264
20
4.5065655159921736
0
LWPOLYLINE
5
121
100
AcDbEntity
8
0
100
AcDbPolyline
90
6
70
1
43
0.0
10
1.5889208195297266
20
4.0065655159921718
10
1.4951708195297253
20
3.8441857527825949
10
1.3076708195297251
20
3.8441857527825949
10
1.2139208195297264
20
4.0065655159921718
10
1.3076708195297251
20
4.1689452792017549
10
1.4951708195297253
20
4.1689452792017549
0
LWPOLYLINE
5
122
100
AcDbEntity
8
0
100
AcDbPolyline
90
8
70
1
43
0.0
10
0.031249999999999997
20
1.0937500000000011
10
0.031249999999999549
20
8.9057500000000065
10
7.9687499999999973
20
8.9057500000000065
10
7.9687499999999973
20
1.0937500000000011
10
6.4999999999999973
20
1.0937500000000011
10
4.8119999999999967
20
1.0937500000000011
10
3.1879999999999975
20
1.0937500000000011
10
1.4999999999999973
20
1.0937500000000011
0
LWPOLYLINE
5
123
100
AcDbEntity
8
0
100
AcDbPolyline
90
6
70
1
43
0.0
10
2.1738638796864769
20
4.3444762546376534
10
2.0801138796864755
20
4.5068560178472357
10
2.1738638796864769
20
4.6692357810568135
10
2.3613638796864769
20
4.6692357810568135
10
2.4551138796864755
20
4.5068560178472357
10
2.3613638796864769
20
4.3444762546376534
0
LWPOLYLINE
5
124
100
AcDbEntity
8
0
100
AcDbPolyline
90
6
70
1
43
0.0
10
1.9282673496081053
20
3.9190905301292847
10
2.0220173496081069
20
3.7567107669197042
10
1.9282673496081053
20
3.5943310037101268
10
1.7407673496081051
20
3.5943310037101268
10
1.6470173496081064
20
3.7567107669197042
10
1.7407673496081051
20
3.9190905301292847
0
CIRCLE
5
125
100
AcDbEntity
8
0
100
AcDbCircle
10
3.9999999999999956
20
2.3437500000000027
30
0
40
0.69999999999999984
210
0
220
0
230
1
0
LWPOLYLINE
5
126
100
AcDbEntity
8
0
100
AcDbPolyline
90
6
70
1
43
0.0
10
2.6069604097648567
20
3.9193810319843445
10
2.7944604097648571
20
3.9193810319843445
10
2.8882104097648558
20
3.757001268774764
10
2.7944604097648571
20
3.5946215055651729
10
2.6069604097648567
20
3.5946215055651729
10
2.5132104097648553
20
3.757001268774764
0
LWPOLYLINE
5
127
100
AcDbEntity
8
0
100
AcDbPolyline
90
6
70
1
43
0.0
10
2.0220173496081069
20
6.7567107669197028
10
1.9282673496081053
20
6.5943310037101224
10
1.7407673496081051
20
6.5943310037101224
10
1.6470173496081064
20
6.7567107669197028
10
1.7407673496081051
20
6.9190905301292833
10
1.9282673496081053
20
6.9190905301292833
0
LWPOLYLINE
5
128
100
AcDbEntity
8
0
100
AcDbPolyline
90
6
70
1
43
0.0
10
1.9282673496081053
20
6.4190905301292824
10
2.0220173496081069
20
6.2567107669197046
10
1.9282673496081053
20
6.0943310037101215
10
1.7407673496081051
20
6.0943310037101215
10
1.6470173496081064
20
6.2567107669197046
10
1.7407673496081051
20
6.4190905301292824
0
LWPOLYLINE
5
129
100
AcDbEntity
8
0
100
AcDbPolyline
90
6
70
1
43
0.0
10
1.9282673496081053
20
4.5943310037101206
10
1.7407673496081051
20
4.5943310037101206
10
1.6470173496081064
20
4.7567107669197037
10
1.7407673496081051
20
4.9190905301292842
10
1.9282673496081053
20
4.9190905301292842
10
2.0220173496081069
20
4.7567107669197037
0
LWPOLYLINE
5
130
100
AcDbEntity
8
0
100
AcDbPolyline
90
6
70
1
43
0.0
10
0.78082428945134641
20
6.7564202650646461
10
0.87457428945134508
20
6.918800028274223
10
1.0620742894513453
20
6.918800028274223
10
1.1558242894513466
20
6.7564202650646461
10
1.0620742894513453
20
6.594040501855063
10
0.87457428945134508
20
6.594040501855063
0
LWPOLYLINE
5
131
100
AcDbEntity
8
0
100
AcDbPolyline
90
6
70
1
43
0.0
10
2.4551138796864755
20
6.0068560178472339
10
2.3613638796864769
20
5.8444762546376534
10
2.1738638796864769
20
5.8444762546376534
10
2.0801138796864755
20
6.0068560178472339
10
2.1738638796864769
20
6.1692357810568144
10
2.3613638796864769
20
6.1692357810568144
0
LWPOLYLINE
5
132
100
AcDbEntity
8
0
100
AcDbPolyline
90
6
70
1
43
0.0
10
1.9282673496081053
20
5.4190905301292824
10
2.0220173496081069
20
5.2567107669197046
10
1.9282673496081053
20
5.0943310037101224
10
1.7407673496081051
20
5.0943310037101224
10
1.6470173496081064
20
5.2567107669197046
10
1.7407673496081051
20
5.4190905301292824
0
LWPOLYLINE
5
133
100
AcDbEntity
8
0
100
AcDbPolyline
90
6
70
1
43
0.0
10
1.0620742894513453
20
3.9188000282742244
10
1.1558242894513466
20
3.756420265064647
10
1.0620742894513453
20
3.5940405018550643
10
0.87457428945134508
20
3.5940405018550643
10
0.78082428945134641
20
3.756420265064647
10
0.87457428945134508
20
3.9188000282742244
0
LWPOLYLINE
5
134
100
AcDbEntity
8
0
100
AcDbPolyline
90
6
70
1
43
0.0
10
1.0620742894513453
20
6.0940405018550647
10
0.87457428945134508
20
6.0940405018550647
10
0.78082428945134641
20
6.2564202650646443
10
0.87457428945134508
20
6.4188000282742248
10
1.0620742894513453
20
6.4188000282742248
10
1.1558242894513466
20
6.2564202650646443
0
LWPOLYLINE
5
135
100
AcDbEntity
8
0
100
AcDbPolyline
90
6
70
1
43
0.0
10
1.6470173496081064
20
5.7567107669197037
10
1.7407673496081051
20
5.9190905301292833
10
1.9282673496081053
20
5.9190905301292833
10
2.0220173496081069
20
5.7567107669197037
10
1.9282673496081053
20
5.5943310037101233
10
1.7407673496081051
20
5.5943310037101233
0
CIRCLE
5
136
100
AcDbEntity
8
0
100
AcDbCircle
10
1.8279485578727774
20
1.6719985578727861
30
0
40
0.069000000000000006
210
0
220
0
230
1
0
LWPOLYLINE
5
137
100
AcDbEntity
8
0
100
AcDbPolyline
90
6
70
1
43
0.0
10
1.2139208195297264
20
7.5065655159921718
10
1.3076708195297251
20
7.6689452792017523
10
1.4951708195297253
20
7.6689452792017523
10
1.5889208195297266
20
7.5065655159921718
10
1.4951708195297253
20
7.3441857527825949
10
1.3076708195297251
20
7.3441857527825949
0
LWPOLYLINE
5
138
100
AcDbEntity
8
0
100
AcDbPolyline
90
6
70
1
43
0.0
10
1.0620742894513453
20
5.9188000282742239
10
1.1558242894513466
20
5.7564202650646461
10
1.0620742894513453
20
5.594040501855063
10
0.87457428945134508
20
5.594040501855063
10
0.78082428945134641
20
5.7564202650646461
10
0.87457428945134508
20
5.9188000282742239
0
LWPOLYLINE
5
139
100
AcDbEntity
8
0
100
AcDbPolyline
90
6
70
1
43
0.0
10
2.0801138796864755
20
5.0068560178472348
10
2.1738638796864769
20
5.1692357810568144
10
2.3613638796864769
20
5.1692357810568144
10
2.4551138796864755
20
5.0068560178472348
10
2.3613638796864769
20
4.8444762546376543
10
2.1738638796864769
20
4.8444762546376543
0
LWPOLYLINE
5
140
100
AcDbEntity
8
0
100
AcDbPolyline
90
6
70
1
43
0.0
10
1.1558242894513466
20
3.2564202650646461
10
1.0620742894513453
20
3.094040501855063
10
0.87457428945134508
20
3.094040501855063
10
0.78082428945134641
20
3.2564202650646461
10
0.87457428945134508
20
3.4188000282742235
10
1.0620742894513453
20
3.4188000282742235
0
LWPOLYLINE
5
141
100
AcDbEntity
8
0
100
AcDbPolyline
90
6
70
1
43
0.0
10
2.1738638796864769
20
7.669235781056809
10
2.3613638796864769
20
7.669235781056809
10
2.4551138796864755
20
7.5068560178472348
10
2.3613638796864769
20
7.3444762546376516
10
2.1738638796864769
20
7.3444762546376516
10
2.0801138796864755
20
7.5068560178472348
0
LWPOLYLINE
5
142
100
AcDbEntity
8
0
100
AcDbPolyline
90
6
70
1
43
0.0
10
1.9282673496081053
20
7.594331003710125
10
1.7407673496081051
20
7.594331003710125
10
1.6470173496081064
20
7.7567107669197055
10
1.7407673496081051
20
7.9190905301292824
10
1.9282673496081053
20
7.9190905301292824
10
2.0220173496081069
20
7.7567107669197055
0
LWPOLYLINE
5
143
100
AcDbEntity
8
0
100
AcDbPolyline
90
6
70
1
43
0.0
10
2.4551138796864755
20
8.0068560178472357
10
2.3613638796864769
20
7.8444762546376525
10
2.1738638796864769
20
7.8444762546376525
10
2.0801138796864755
20
8.0068560178472357
10
2.1738638796864769
20
8.1692357810568108
10
2.3613638796864769
20
8.1692357810568108
0
CIRCLE
5
144
100
AcDbEntity
8
0
100
AcDbCircle
10
2.4539999999999962
20
2.3437500000000027
30
0
40
0.69999999999999984
210
0
220
0
230
1
0
CIRCLE
5
145
100
AcDbEntity
8
0
100
AcDbCircle
10
1.8279485578727774
20
3.0155014421272219
30
0
40
0.069000000000000006
210
0
220
0
230
1
0
CIRCLE
5
146
100
AcDbEntity
8
0
100
AcDbCircle
10
5.5459999999999949
20
2.3437500000000027
30
0
40
0.69999999999999984
210
0
220
0
230
1
0
LWPOLYLINE
5
147
100
AcDbEntity
8
0
100
AcDbPolyline
90
6
70
1
43
0.0
10
1.7407673496081051
20
7.0943310037101215
10
1.6470173496081064
20
7.2567107669197046
10
1.7407673496081051
20
7.4190905301292815
10
1.9282673496081053
20
7.4190905301292815
10
2.0220173496081069
20
7.2567107669197046
10
1.9282673496081053
20
7.0943310037101215
0
CIRCLE
5
148
100
AcDbEntity
8
0
100
AcDbCircle
10
6.1720514421272163
20
1.6719985578727861
30
0
40
0.069000000000000006
210
0
220
0
230
1
0
LWPOLYLINE
5
149
100
AcDbEntity
8
0
100
AcDbPolyline
90
6
70
1
43
0.0
10
2.6069604097648567
20
4.0946215055651738
10
2.5132104097648553
20
4.2570012687747623
10
2.6069604097648567
20
4.4193810319843454
10
2.7944604097648571
20
4.4193810319843454
10
2.8882104097648558
20
4.2570012687747623
10
2.7944604097648571
20
4.0946215055651738
0
LWPOLYLINE
5
150
100
AcDbEntity
8
0
100
AcDbPolyline
90
6
70
1
43
0.0
10
2.8882104097648558
20
5.7570012687747631
10
2.7944604097648571
20
5.5946215055651747
10
2.6069604097648567
20
5.5946215055651747
10
2.5132104097648553
20
5.7570012687747631
10
2.6069604097648567
20
5.9193810319843463
10
2.7944604097648571
20
5.9193810319843463
0
LWPOLYLINE
5
151
100
AcDbEntity
8
0
100
AcDbPolyline
90
6
70
1
43
0.0
10
2.7944604097648571
20
5.4193810319843454
10
2.8882104097648558
20
5.2570012687747623
10
2.7944604097648571
20
5.0946215055651738
10
2.6069604097648567
20
5.0946215055651738
10
2.5132104097648553
20
5.2570012687747623
10
2.6069604097648567
20
5.4193810319843454
0
LWPOLYLINE
5
152
100
AcDbEntity
8
0
100
AcDbPolyline
90
6
70
1
43
0.0
10
3.2275569398432369
20
6.1695262829118711
10
3.3213069398432356
20
6.00714651970228
10
3.2275569398432369
20
5.8447667564927057
10
3.0400569398432369
20
5.8447667564927057
10
2.9463069398432356
20
6.00714651970228
10
3.0400569398432369
20
6.1695262829118711
0
LWPOLYLINE
5
153
100
AcDbEntity
8
0
100
AcDbPolyline
90
6
70
1
43
0.0
10
4.0937499999999973
20
6.1698167847669341
10
4.1874999999999956
20
6.0074370215573509
10
4.0937499999999973
20
5.8450572583477625
10
3.9062499999999969
20
5.8450572583477625
10
3.8124999999999982
20
6.0074370215573509
10
3.9062499999999969
20
6.1698167847669341
0
LWPOLYLINE
5
154
100
AcDbEntity
8
0
100
AcDbPolyline
90
6
70
1
43
0.0
10
3.8124999999999982
20
6.5074370215573527
10
3.9062499999999969
20
6.669816784766935
10
4.0937499999999973
20
6.669816784766935
10
4.1874999999999956
20
6.5074370215573527
10
4.0937499999999973
20
6.3450572583477634
10
3.9062499999999969
20
6.3450572583477634
0
LWPOLYLINE
5
155
100
AcDbEntity
8
0
100
AcDbPolyline
90
6
70
1
43
0.0
10
3.8124999999999982
20
7.0074370215573536
10
3.9062499999999969
20
7.1698167847669341
10
4.0937499999999973
20
7.1698167847669341
10
4.1874999999999956
20
7.0074370215573536
10
4.0937499999999973
20
6.8450572583477625
10
3.9062499999999969
20
6.8450572583477625
0
LWPOLYLINE
5
156
100
AcDbEntity
8
0
100
AcDbPolyline
90
6
70
1
43
0.0
10
3.8124999999999982
20
7.5074370215573518
10
3.9062499999999969
20
7.669816784766935
10
4.0937499999999973
20
7.669816784766935
10
4.1874999999999956
20
7.5074370215573518
10
4.0937499999999973
20
7.3450572583477634
10
3.9062499999999969
20
7.3450572583477634
0
LWPOLYLINE
5
157
100
AcDbEntity
8
0
100
AcDbPolyline
90
6
70
1
43
0.0
10
3.8124999999999982
20
8.0074370215573527
10
3.9062499999999969
20
8.1698167847669332
10
4.0937499999999973
20
8.1698167847669332
10
4.1874999999999956
20
8.0074370215573527
10
4.0937499999999973
20
7.8450572583477589
10
3.9062499999999969
20
7.8450572583477589
0
LWPOLYLINE
5
158
100
AcDbEntity
8
0
100
AcDbPolyline
90
6
70
1
43
0.0
10
4.2455965300783784
20
3.7575822724848731
10
4.3393465300783767
20
3.9199620356944616
10
4.5268465300783767
20
3.9199620356944616
10
4.6205965300783758
20
3.7575822724848731
10
4.5268465300783767
20
3.5952025092752957
10
4.3393465300783767
20
3.5952025092752957
0
LWPOLYLINE
5
159
100
AcDbEntity
8
0
100
AcDbPolyline
90
6
70
1
43
0.0
10
4.2455965300783784
20
4.257582272484874
10
4.3393465300783767
20
4.4199620356944624
10
4.5268465300783767
20
4.4199620356944624
10
4.6205965300783758
20
4.257582272484874
10
4.5268465300783767
20
4.0952025092752935
10
4.3393465300783767
20
4.0952025092752935
0
LWPOLYLINE
5
160
100
AcDbEntity
8
0
100
AcDbPolyline
90
6
70
1
43
0.0
10
4.2455965300783784
20
4.7575822724848722
10
4.3393465300783767
20
4.9199620356944607
10
4.5268465300783767
20
4.9199620356944607
10
4.6205965300783758
20
4.7575822724848722
10
4.5268465300783767
20
4.5952025092752953
10
4.3393465300783767
20
4.5952025092752953
0
LWPOLYLINE
5
161
100
AcDbEntity
8
0
100
AcDbPolyline
90
6
70
1
43
0.0
10
4.2455965300783784
20
5.257582272484874
10
4.3393465300783767
20
5.4199620356944624
10
4.5268465300783767
20
5.4199620356944624
10
4.6205965300783758
20
5.257582272484874
10
4.5268465300783767
20
5.0952025092752935
10
4.3393465300783767
20
5.0952025092752935
0
LWPOLYLINE
5
162
100
AcDbEntity
8
0
100
AcDbPolyline
90
6
70
1
43
0.0
10
4.2455965300783784
20
5.7575822724848722
10
4.3393465300783767
20
5.9199620356944633
10
4.5268465300783767
20
5.9199620356944633
10
4.6205965300783758
20
5.7575822724848722
10
4.5268465300783767
20
5.5952025092752944
10
4.3393465300783767
20
5.5952025092752944
0
LWPOLYLINE
5
163
100
AcDbEntity
8
0
100
AcDbPolyline
90
6
70
1
43
0.0
10
4.2455965300783784
20
6.2575822724848731
10
4.3393465300783767
20
6.4199620356944616
10
4.5268465300783767
20
6.4199620356944616
10
4.6205965300783758
20
6.2575822724848731
10
4.5268465300783767
20
6.0952025092752935
10
4.3393465300783767
20
6.0952025092752935
0
LWPOLYLINE
5
164
100
AcDbEntity
8
0
100
AcDbPolyline
90
6
70
1
43
0.0
10
4.2455965300783784
20
6.7575822724848713
10
4.3393465300783767
20
6.9199620356944633
10
4.5268465300783767
20
6.9199620356944633
10
4.6205965300783758
20
6.7575822724848713
10
4.5268465300783767
20
6.5952025092752944
10
4.3393465300783767
20
6.5952025092752944
0
LWPOLYLINE
5
165
100
AcDbEntity
8
0
100
AcDbPolyline
90
6
70
1
43
0.0
10
4.2455965300783784
20
7.2575822724848731
10
4.3393465300783767
20
7.4199620356944616
10
4.5268465300783767
20
7.4199620356944616
10
4.6205965300783758
20
7.2575822724848731
10
4.5268465300783767
20
7.0952025092752926
10
4.3393465300783767
20
7.0952025092752926
0
LWPOLYLINE
5
166
100
AcDbEntity
8
0
100
AcDbPolyline
90
6
70
1
43
0.0
10
4.2455965300783784
20
7.757582272484874
10
4.3393465300783767
20
7.9199620356944624
10
4.5268465300783767
20
7.9199620356944624
10
4.6205965300783758
20
7.757582272484874
10
4.5268465300783767
20
7.5952025092752935
10
4.3393465300783767
20
7.5952025092752935
0
LWPOLYLINE
5
167
100
AcDbEntity
8
0
100
AcDbPolyline
90
6
70
1
43
0.0
10
4.2455965300783784
20
8.2575822724848731
10
4.3393465300783767
20
8.4199620356944607
10
4.5268465300783767
20
8.4199620356944607
10
4.6205965300783758
20
8.2575822724848731
10
4.5268465300783767
20
8.0952025092752944
10
4.3393465300783767
20
8.0952025092752944
0
LWPOLYLINE
5
168
100
AcDbEntity
8
0
100
AcDbPolyline
90
6
70
1
43
0.0
10
4.6786930601567587
20
4.0077275234124032
10
4.7724430601567569
20
4.1701072866219864
10
4.9599430601567569
20
4.1701072866219864
10
5.0536930601567587
20
4.0077275234124032
10
4.9599430601567569
20
3.8453477602028263
10
4.7724430601567569
20
3.8453477602028263
0
LWPOLYLINE
5
169
100
AcDbEntity
8
0
100
AcDbPolyline
90
6
70
1
43
0.0
10
4.6786930601567587
20
4.507727523412405
10
4.7724430601567569
20
4.6701072866219846
10
4.9599430601567569
20
4.6701072866219846
10
5.0536930601567587
20
4.507727523412405
10
4.9599430601567569
20
4.3453477602028245
10
4.7724430601567569
20
4.3453477602028245
0
LWPOLYLINE
5
170
100
AcDbEntity
8
0
100
AcDbPolyline
90
6
70
1
43
0.0
10
4.7724430601567569
20
5.6701072866219873
10
4.9599430601567569
20
5.6701072866219873
10
5.0536930601567587
20
5.5077275234124041
10
4.9599430601567569
20
5.3453477602028237
10
4.7724430601567569
20
5.3453477602028237
10
4.6786930601567587
20
5.5077275234124041
0
LWPOLYLINE
5
171
100
AcDbEntity
8
0
100
AcDbPolyline
90
6
70
1
43
0.0
10
5.9198861203135129
20
6.5080180252674609
10
5.8261361203135147
20
6.3456382620578839
10
5.6386361203135138
20
6.3456382620578839
10
5.5448861203135129
20
6.5080180252674609
10
5.6386361203135138
20
6.670397788477044
10
5.8261361203135147
20
6.670397788477044
0
LWPOLYLINE
5
172
100
AcDbEntity
8
0
100
AcDbPolyline
90
6
70
1
43
0.0
10
5.3930395902351371
20
4.0954930111303538
10
5.2055395902351371
20
4.0954930111303538
10
5.111789590235138
20
4.2578727743399343
10
5.2055395902351371
20
4.4202525375495139
10
5.3930395902351371
20
4.4202525375495139
10
5.4867895902351389
20
4.2578727743399343
0
LWPOLYLINE
5
173
100
AcDbEntity
8
0
100
AcDbPolyline
90
6
70
1
43
0.0
10
5.9198861203135129
20
5.0080180252674626
10
5.8261361203135147
20
4.8456382620578831
10
5.6386361203135138
20
4.8456382620578831
10
5.5448861203135129
20
5.0080180252674626
10
5.6386361203135138
20
5.1703977884770458
10
5.8261361203135147
20
5.1703977884770458
0
LWPOLYLINE
5
174
100
AcDbEntity
8
0
100
AcDbPolyline
90
6
70
1
43
0.0
10
4.6786930601567587
20
6.0077275234124023
10
4.7724430601567569
20
6.1701072866219855
10
4.9599430601567569
20
6.1701072866219855
10
5.0536930601567587
20
6.0077275234124023
10
4.9599430601567569
20
5.8453477602028254
10
4.7724430601567569
20
5.8453477602028254
0
LWPOLYLINE
5
175
100
AcDbEntity
8
0
100
AcDbPolyline
90
6
70
1
43
0.0
10
5.5448861203135129
20
5.5080180252674618
10
5.6386361203135138
20
5.670397788477044
10
5.8261361203135147
20
5.670397788477044
10
5.9198861203135129
20
5.5080180252674618
10
5.8261361203135147
20
5.3456382620578839
10
5.6386361203135138
20
5.3456382620578839
0
LWPOLYLINE
5
176
100
AcDbEntity
8
0
100
AcDbPolyline
90
6
70
1
43
0.0
10
4.9599430601567569
20
8.1701072866219846
10
5.0536930601567587
20
8.0077275234123988
10
4.9599430601567569
20
7.8453477602028245
10
4.7724430601567569
20
7.8453477602028245
10
4.6786930601567587
20
8.0077275234123988
10
4.7724430601567569
20
8.1701072866219846
0
LWPOLYLINE
5
177
100
AcDbEntity
8
0
100
AcDbPolyline
90
6
70
1
43
0.0
10
4.6786930601567587
20
7.007727523412405
10
4.7724430601567569
20
7.1701072866219855
10
4.9599430601567569
20
7.1701072866219855
10
5.0536930601567587
20
7.007727523412405
10
4.9599430601567569
20
6.8453477602028245
10
4.7724430601567569
20
6.8453477602028245
0
LWPOLYLINE
5
178
100
AcDbEntity
8
0
100
AcDbPolyline
90
6
70
1
43
0.0
10
5.9198861203135129
20
4.0080180252674635
10
5.8261361203135147
20
3.8456382620578831
10
5.6386361203135138
20
3.8456382620578831
10
5.5448861203135129
20
4.0080180252674635
10
5.6386361203135138
20
4.170397788477044
10
5.8261361203135147
20
4.170397788477044
0
LWPOLYLINE
5
179
100
AcDbEntity
8
0
100
AcDbPolyline
90
6
70
1
43
0.0
10
5.2055395902351371
20
7.0954930111303529
10
5.111789590235138
20
7.2578727743399352
10
5.2055395902351371
20
7.420252537549513
10
5.3930395902351371
20
7.420252537549513
10
5.4867895902351389
20
7.2578727743399352
10
5.3930395902351371
20
7.0954930111303529
0
LWPOLYLINE
5
180
100
AcDbEntity
8
0
100
AcDbPolyline
90
6
70
1
43
0.0
10
5.3930395902351371
20
6.0954930111303529
10
5.2055395902351371
20
6.0954930111303529
10
5.111789590235138
20
6.2578727743399361
10
5.2055395902351371
20
6.4202525375495139
10
5.3930395902351371
20
6.4202525375495139
10
5.4867895902351389
20
6.2578727743399361
0
LWPOLYLINE
5
181
100
AcDbEntity
8
0
100
AcDbPolyline
90
6
70
1
43
0.0
10
4.6786930601567587
20
6.5077275234124041
10
4.7724430601567569
20
6.6701072866219873
10
4.9599430601567569
20
6.6701072866219873
10
5.0536930601567587
20
6.5077275234124041
10
4.9599430601567569
20
6.3453477602028263
10
4.7724430601567569
20
6.3453477602028263
0
LWPOLYLINE
5
182
100
AcDbEntity
8
0
100
AcDbPolyline
90
6
70
1
43
0.0
10
5.3930395902351371
20
8.0954930111303529
10
5.2055395902351371
20
8.0954930111303529
10
5.111789590235138
20
8.2578727743399352
10
5.2055395902351371
20
8.4202525375495121
10
5.3930395902351371
20
8.4202525375495121
10
5.4867895902351389
20
8.2578727743399352
0
LWPOLYLINE
5
183
100
AcDbEntity
8
0
100
AcDbPolyline
90
6
70
1
43
0.0
10
5.3930395902351371
20
6.9202525375495147
10
5.4867895902351389
20
6.7578727743399343
10
5.3930395902351371
20
6.5954930111303511
10
5.2055395902351371
20
6.5954930111303511
10
5.111789590235138
20
6.7578727743399343
10
5.2055395902351371
20
6.9202525375495147
0
LWPOLYLINE
5
184
100
AcDbEntity
8
0
100
AcDbPolyline
90
6
70
1
43
0.0
10
6.4110791804702751
20
7.0083085271225247
10
6.5048291804702743
20
7.1706882903321025
10
6.6923291804702769
20
7.1706882903321025
10
6.7860791804702787
20
7.0083085271225247
10
6.6923291804702769
20
6.8459287639129416
10
6.5048291804702743
20
6.8459287639129416
0
LWPOLYLINE
5
185
100
AcDbEntity
8
0
100
AcDbPolyline
90
6
70
1
43
0.0
10
6.6923291804702769
20
5.8459287639129425
10
6.5048291804702743
20
5.8459287639129425
10
6.4110791804702751
20
6.0083085271225256
10
6.5048291804702743
20
6.1706882903321025
10
6.6923291804702769
20
6.1706882903321025
10
6.7860791804702787
20
6.0083085271225256
0
LWPOLYLINE
5
186
100
AcDbEntity
8
0
100
AcDbPolyline
90
6
70
1
43
0.0
10
6.4110791804702751
20
6.5083085271225238
10
6.5048291804702743
20
6.6706882903321043
10
6.6923291804702769
20
6.6706882903321043
10
6.7860791804702787
20
6.5083085271225238
10
6.6923291804702769
20
6.3459287639129434
10
6.5048291804702743
20
6.3459287639129434
0
LWPOLYLINE
5
187
100
AcDbEntity
8
0
100
AcDbPolyline
90
6
70
1
43
0.0
10
5.8261361203135147
20
4.6703977884770449
10
5.9198861203135129
20
4.5080180252674618
10
5.8261361203135147
20
4.3456382620578848
10
5.6386361203135138
20
4.3456382620578848
10
5.5448861203135129
20
4.5080180252674618
10
5.6386361203135138
20
4.6703977884770449
0
LWPOLYLINE
5
188
100
AcDbEntity
8
0
100
AcDbPolyline
90
6
70
1
43
0.0
10
6.5048291804702743
20
3.8459287639129434
10
6.4110791804702751
20
4.0083085271225238
10
6.5048291804702743
20
4.1706882903321034
10
6.6923291804702769
20
4.1706882903321034
10
6.7860791804702787
20
4.0083085271225238
10
6.6923291804702769
20
3.8459287639129434
0
LWPOLYLINE
5
189
100
AcDbEntity
8
0
100
AcDbPolyline
90
6
70
1
43
0.0
10
6.4110791804702751
20
4.5083085271225247
10
6.5048291804702743
20
4.6706882903321016
10
6.6923291804702769
20
4.6706882903321016
10
6.7860791804702787
20
4.5083085271225247
10
6.6923291804702769
20
4.3459287639129416
10
6.5048291804702743
20
4.3459287639129416
0
LWPOLYLINE
5
190
100
AcDbEntity
8
0
100
AcDbPolyline
90
6
70
1
43
0.0
10
5.0536930601567587
20
7.5077275234124032
10
4.9599430601567569
20
7.3453477602028263
10
4.7724430601567569
20
7.3453477602028263
10
4.6786930601567587
20
7.5077275234124032
10
4.7724430601567569
20
7.6701072866219864
10
4.9599430601567569
20
7.6701072866219864
0
LWPOLYLINE
5
191
100
AcDbEntity
8
0
100
AcDbPolyline
90
6
70
1
43
0.0
10
5.2055395902351371
20
3.5954930111303525
10
5.111789590235138
20
3.7578727743399356
10
5.2055395902351371
20
3.920252537549513
10
5.3930395902351371
20
3.920252537549513
10
5.4867895902351389
20
3.7578727743399356
10
5.3930395902351371
20
3.5954930111303525
0
LWPOLYLINE
5
192
100
AcDbEntity
8
0
100
AcDbPolyline
90
6
70
1
43
0.0
10
6.5048291804702743
20
5.1706882903321034
10
6.6923291804702769
20
5.1706882903321034
10
6.7860791804702787
20
5.0083085271225256
10
6.6923291804702769
20
4.8459287639129425
10
6.5048291804702743
20
4.8459287639129425
10
6.4110791804702751
20
5.0083085271225256
0
LWPOLYLINE
5
193
100
AcDbEntity
8
0
100
AcDbPolyline
90
6
70
1
43
0.0
10
6.4110791804702751
20
5.5083085271225238
10
6.5048291804702743
20
5.6706882903321043
10
6.6923291804702769
20
5.6706882903321043
10
6.7860791804702787
20
5.5083085271225238
10
6.6923291804702769
20
5.3459287639129416
10
6.5048291804702743
20
5.3459287639129416
0
LWPOLYLINE
5
194
100
AcDbEntity
8
0
100
AcDbPolyline
90
6
70
1
43
0.0
10
6.9379257105486545
20
2.596074014840462
10
6.8441757105486554
20
2.758453778050042
10
6.9379257105486545
20
2.9208335412596336
10
7.1254257105486545
20
2.9208335412596336
10
7.2191757105486554
20
2.758453778050042
10
7.1254257105486545
20
2.596074014840462
0
LWPOLYLINE
5
195
100
AcDbEntity
8
0
100
AcDbPolyline
90
6
70
1
43
0.0
10
6.4110791804702751
20
8.0083085271225247
10
6.5048291804702743
20
8.1706882903321016
10
6.6923291804702769
20
8.1706882903321016
10
6.7860791804702787
20
8.0083085271225247
10
6.6923291804702769
20
7.8459287639129416
10
6.5048291804702743
20
7.8459287639129416
0
LWPOLYLINE
5
196
100
AcDbEntity
8
0
100
AcDbPolyline
90
6
70
1
43
0.0
10
5.2055395902351371
20
5.9202525375495121
10
5.3930395902351371
20
5.9202525375495121
10
5.4867895902351389
20
5.7578727743399352
10
5.3930395902351371
20
5.595493011130352
10
5.2055395902351371
20
5.595493011130352
10
5.111789590235138
20
5.7578727743399352
0
LWPOLYLINE
5
197
100
AcDbEntity
8
0
100
AcDbPolyline
90
6
70
1
43
0.0
10
5.8261361203135147
20
5.8456382620578822
10
5.6386361203135138
20
5.8456382620578822
10
5.5448861203135129
20
6.0080180252674626
10
5.6386361203135138
20
6.1703977884770458
10
5.8261361203135147
20
6.1703977884770458
10
5.9198861203135129
20
6.0080180252674626
0
LWPOLYLINE
5
198
100
AcDbEntity
8
0
100
AcDbPolyline
90
6
70
1
43
0.0
10
6.0717326503918967
20
5.0957835129854052
10
5.9779826503918985
20
5.2581632761949937
10
6.0717326503918967
20
5.4205430394045768
10
6.2592326503918967
20
5.4205430394045768
10
6.3529826503918985
20
5.2581632761949937
10
6.2592326503918967
20
5.0957835129854052
0
LWPOLYLINE
5
199
100
AcDbEntity
8
0
100
AcDbPolyline
90
6
70
1
43
0.0
10
5.9779826503918985
20
5.7581632761949946
10
6.0717326503918967
20
5.920543039404575
10
6.2592326503918967
20
5.920543039404575
10
6.3529826503918985
20
5.7581632761949946
10
6.2592326503918967
20
5.5957835129854034
10
6.0717326503918967
20
5.5957835129854034
0
LWPOLYLINE
5
200
100
AcDbEntity
8
0
100
AcDbPolyline
90
6
70
1
43
0.0
10
5.5448861203135129
20
7.0080180252674618
10
5.6386361203135138
20
7.1703977884770449
10
5.8261361203135147
20
7.1703977884770449
10
5.9198861203135129
20
7.0080180252674618
10
5.8261361203135147
20
6.8456382620578848
10
5.6386361203135138
20
6.8456382620578848
0
LWPOLYLINE
5
201
100
AcDbEntity
8
0
100
AcDbPolyline
90
6
70
1
43
0.0
10
5.5448861203135129
20
7.5080180252674635
10
5.6386361203135138
20
7.6703977884770431
10
5.8261361203135147
20
7.6703977884770431
10
5.9198861203135129
20
7.5080180252674635
10
5.8261361203135147
20
7.3456382620578831
10
5.6386361203135138
20
7.3456382620578831
0
LWPOLYLINE
5
202
100
AcDbEntity
8
0
100
AcDbPolyline
90
6
70
1
43
0.0
10
6.2592326503918967
20
6.5957835129854026
10
6.0717326503918967
20
6.5957835129854026
10
5.9779826503918985
20
6.7581632761949946
10
6.0717326503918967
20
6.9205430394045742
10
6.2592326503918967
20
6.9205430394045742
10
6.3529826503918985
20
6.7581632761949946
0
LWPOLYLINE
5
203
100
AcDbEntity
8
0
100
AcDbPolyline
90
6
70
1
43
0.0
10
5.9779826503918985
20
7.2581632761949928
10
6.0717326503918967
20
7.4205430394045759
10
6.2592326503918967
20
7.4205430394045759
10
6.3529826503918985
20
7.2581632761949928
10
6.2592326503918967
20
7.0957835129854043
10
6.0717326503918967
20
7.0957835129854043
0
LWPOLYLINE
5
204
100
AcDbEntity
8
0
100
AcDbPolyline
90
6
70
1
43
0.0
10
4.7724430601567569
20
4.8453477602028254
10
4.6786930601567587
20
5.0077275234124032
10
4.7724430601567569
20
5.1701072866219864
10
4.9599430601567569
20
5.1701072866219864
10
5.0536930601567587
20
5.0077275234124032
10
4.9599430601567569
20
4.8453477602028254
0
LWPOLYLINE
5
205
100
AcDbEntity
8
0
100
AcDbPolyline
90
6
70
1
43
0.0
10
3.6606534699216171
20
4.419671533839403
10
3.7544034699216158
20
4.2572917706298146
10
3.6606534699216171
20
4.0949120074202368
10
3.4731534699216167
20
4.0949120074202368
10
3.3794034699216153
20
4.2572917706298146
10
3.4731534699216167
20
4.419671533839403
0
LWPOLYLINE
5
206
100
AcDbEntity
8
0
100
AcDbPolyline
90
6
70
1
43
0.0
10
3.3794034699216153
20
4.7572917706298155
10
3.4731534699216167
20
4.9196715338394039
10
3.6606534699216171
20
4.9196715338394039
10
3.7544034699216158
20
4.7572917706298155
10
3.6606534699216171
20
4.594912007420235
10
3.4731534699216167
20
4.594912007420235
0
LWPOLYLINE
5
207
100
AcDbEntity
8
0
100
AcDbPolyline
90
6
70
1
43
0.0
10
3.3794034699216153
20
5.2572917706298137
10
3.4731534699216167
20
5.4196715338394021
10
3.6606534699216171
20
5.4196715338394021
10
3.7544034699216158
20
5.2572917706298137
10
3.6606534699216171
20
5.0949120074202368
10
3.4731534699216167
20
5.0949120074202368
0
LWPOLYLINE
5
208
100
AcDbEntity
8
0
100
AcDbPolyline
90
6
70
1
43
0.0
10
3.3794034699216153
20
5.7572917706298146
10
3.4731534699216167
20
5.9196715338394039
10
3.6606534699216171
20
5.9196715338394039
10
3.7544034699216158
20
5.7572917706298146
10
3.6606534699216171
20
5.594912007420235
10
3.4731534699216167
20
5.594912007420235
0
LWPOLYLINE
5
209
100
AcDbEntity
8
0
100
AcDbPolyline
90
6
70
1
43
0.0
10
3.3794034699216153
20
6.2572917706298137
10
3.4731534699216167
20
6.4196715338394048
10
3.6606534699216171
20
6.4196715338394048
10
3.7544034699216158
20
6.2572917706298137
10
3.6606534699216171
20
6.0949120074202359
10
3.4731534699216167
20
6.0949120074202359
0
LWPOLYLINE
5
210
100
AcDbEntity
8
0
100
AcDbPolyline
90
6
70
1
43
0.0
10
3.3794034699216153
20
6.7572917706298146
10
3.4731534699216167
20
6.919671533839403
10
3.6606534699216171
20
6.919671533839403
10
3.7544034699216158
20
6.7572917706298146
10
3.6606534699216171
20
6.5949120074202341
10
3.4731534699216167
20
6.5949120074202341
0
LWPOLYLINE
5
211
100
AcDbEntity
8
0
100
AcDbPolyline
90
6
70
1
43
0.0
10
3.3794034699216153
20
7.2572917706298128
10
3.4731534699216167
20
7.4196715338394039
10
3.6606534699216171
20
7.4196715338394039
10
3.7544034699216158
20
7.2572917706298128
10
3.6606534699216171
20
7.0949120074202359
10
3.4731534699216167
20
7.0949120074202359
0
LWPOLYLINE
5
212
100
AcDbEntity
8
0
100
AcDbPolyline
90
6
70
1
43
0.0
10
3.3794034699216153
20
7.7572917706298137
10
3.4731534699216167
20
7.919671533839403
10
3.6606534699216171
20
7.919671533839403
10
3.7544034699216158
20
7.7572917706298137
10
3.6606534699216171
20
7.5949120074202368
10
3.4731534699216167
20
7.5949120074202368
0
LWPOLYLINE
5
213
100
AcDbEntity
8
0
100
AcDbPolyline
90
6
70
1
43
0.0
10
3.3794034699216153
20
8.2572917706298146
10
3.4731534699216167
20
8.4196715338394039
10
3.6606534699216171
20
8.4196715338394039
10
3.7544034699216158
20
8.2572917706298146
10
3.6606534699216171
20
8.0949120074202359
10
3.4731534699216167
20
8.0949120074202359
0
LWPOLYLINE
5
214
100
AcDbEntity
8
0
100
AcDbPolyline
90
6
70
1
43
0.0
10
3.8124999999999982
20
4.0074370215573465
10
3.9062499999999969
20
4.1698167847669207
10
4.0937499999999973
20
4.1698167847669207
10
4.1874999999999956
20
4.0074370215573465
10
4.0937499999999973
20
3.8450572583477634
10
3.9062499999999969
20
3.8450572583477634
0
LWPOLYLINE
5
215
100
AcDbEntity
8
0
100
AcDbPolyline
90
6
70
1
43
0.0
10
3.8124999999999982
20
4.5074370215573447
10
3.9062499999999969
20
4.669816784766919
10
4.0937499999999973
20
4.669816784766919
10
4.1874999999999956
20
4.5074370215573447
10
4.0937499999999973
20
4.3450572583477642
10
3.9062499999999969
20
4.3450572583477642
0
LWPOLYLINE
5
216
100
AcDbEntity
8
0
100
AcDbPolyline
90
6
70
1
43
0.0
10
3.8124999999999982
20
5.0074370215573456
10
3.9062499999999969
20
5.1698167847669207
10
4.0937499999999973
20
5.1698167847669207
10
4.1874999999999956
20
5.0074370215573456
10
4.0937499999999973
20
4.8450572583477634
10
3.9062499999999969
20
4.8450572583477634
0
LWPOLYLINE
5
217
100
AcDbEntity
8
0
100
AcDbPolyline
90
6
70
1
43
0.0
10
3.8124999999999982
20
5.5074370215573527
10
3.9062499999999969
20
5.6698167847669358
10
4.0937499999999973
20
5.6698167847669358
10
4.1874999999999956
20
5.5074370215573527
10
4.0937499999999973
20
5.3450572583477642
10
3.9062499999999969
20
5.3450572583477642
0
LWPOLYLINE
5
218
100
AcDbEntity
8
0
100
AcDbPolyline
90
6
70
1
43
0.0
10
3.0400569398432369
20
4.8447667564927057
10
2.9463069398432356
20
5.0071465197022942
10
3.0400569398432369
20
5.169526282911872
10
3.2275569398432369
20
5.169526282911872
10
3.3213069398432356
20
5.0071465197022942
10
3.2275569398432369
20
4.8447667564927057
0
LWPOLYLINE
5
219
100
AcDbEntity
8
0
100
AcDbPolyline
90
6
70
1
43
0.0
10
2.7944604097648571
20
8.094621505565172
10
2.6069604097648567
20
8.094621505565172
10
2.5132104097648553
20
8.2570012687747631
10
2.6069604097648567
20
8.4193810319843436
10
2.7944604097648571
20
8.4193810319843436
10
2.8882104097648558
20
8.2570012687747631
0
LWPOLYLINE
5
220
100
AcDbEntity
8
0
100
AcDbPolyline
90
6
70
1
43
0.0
10
6.4110791804702751
20
7.5083085271225229
10
6.5048291804702743
20
7.6706882903321034
10
6.6923291804702769
20
7.6706882903321034
10
6.7860791804702787
20
7.5083085271225229
10
6.6923291804702769
20
7.3459287639129434
10
6.5048291804702743
20
7.3459287639129434
0
LWPOLYLINE
5
221
100
AcDbEntity
8
0
100
AcDbPolyline
90
6
70
1
43
0.0
10
3.2275569398432369
20
7.1695262829118738
10
3.3213069398432356
20
7.00714651970228
10
3.2275569398432369
20
6.8447667564927048
10
3.0400569398432369
20
6.8447667564927048
10
2.9463069398432356
20
7.00714651970228
10
3.0400569398432369
20
7.1695262829118738
0
LWPOLYLINE
5
222
100
AcDbEntity
8
0
100
AcDbPolyline
90
6
70
1
43
0.0
10
2.9463069398432356
20
7.5071465197022809
10
3.0400569398432369
20
7.6695262829118693
10
3.2275569398432369
20
7.6695262829118693
10
3.3213069398432356
20
7.5071465197022809
10
3.2275569398432369
20
7.3447667564927031
10
3.0400569398432369
20
7.3447667564927031
0
LWPOLYLINE
5
223
100
AcDbEntity
8
0
100
AcDbPolyline
90
6
70
1
43
0.0
10
2.9463069398432356
20
8.0071465197022818
10
3.0400569398432369
20
8.1695262829118676
10
3.2275569398432369
20
8.1695262829118676
10
3.3213069398432356
20
8.0071465197022818
10
3.2275569398432369
20
7.8447667564927013
10
3.0400569398432369
20
7.8447667564927013
0
LWPOLYLINE
5
224
100
AcDbEntity
8
0
100
AcDbPolyline
90
6
70
1
43
0.0
10
3.3794034699216153
20
3.7572917706298159
10
3.4731534699216167
20
3.9196715338394044
10
3.6606534699216171
20
3.9196715338394044
10
3.7544034699216158
20
3.7572917706298159
10
3.6606534699216171
20
3.5949120074202354
10
3.4731534699216167
20
3.5949120074202354
0
LWPOLYLINE
5
225
100
AcDbEntity
8
0
100
AcDbPolyline
90
6
70
1
43
0.0
10
3.3213069398432356
20
5.5071465197022791
10
3.2275569398432369
20
5.3447667564927039
10
3.0400569398432369
20
5.3447667564927039
10
2.9463069398432356
20
5.5071465197022791
10
3.0400569398432369
20
5.6695262829118729
10
3.2275569398432369
20
5.6695262829118729
0
LWPOLYLINE
5
226
100
AcDbEntity
8
0
100
AcDbPolyline
90
6
70
1
43
0.0
10
2.8882104097648558
20
6.2570012687747614
10
2.7944604097648571
20
6.0946215055651729
10
2.6069604097648567
20
6.0946215055651729
10
2.5132104097648553
20
6.2570012687747614
10
2.6069604097648567
20
6.4193810319843445
10
2.7944604097648571
20
6.4193810319843445
0
LWPOLYLINE
5
227
100
AcDbEntity
8
0
100
AcDbPolyline
90
6
70
1
43
0.0
10
2.6069604097648567
20
6.5946215055651747
10
2.5132104097648553
20
6.7570012687747631
10
2.6069604097648567
20
6.9193810319843463
10
2.7944604097648571
20
6.9193810319843463
10
2.8882104097648558
20
6.7570012687747631
10
2.7944604097648571
20
6.5946215055651747
0
LWPOLYLINE
5
228
100
AcDbEntity
8
0
100
AcDbPolyline
90
6
70
1
43
0.0
10
2.6069604097648567
20
7.9193810319843454
10
2.7944604097648571
20
7.9193810319843454
10
2.8882104097648558
20
7.7570012687747623
10
2.7944604097648571
20
7.5946215055651738
10
2.6069604097648567
20
7.5946215055651738
10
2.5132104097648553
20
7.7570012687747623
0
LWPOLYLINE
5
229
100
AcDbEntity
8
0
100
AcDbPolyline
90
6
70
1
43
0.0
10
3.2275569398432369
20
4.6695262829118738
10
3.3213069398432356
20
4.5071465197022933
10
3.2275569398432369
20
4.3447667564927048
10
3.0400569398432369
20
4.3447667564927048
10
2.9463069398432356
20
4.5071465197022933
10
3.0400569398432369
20
4.6695262829118738
0
LWPOLYLINE
5
230
100
AcDbEntity
8
0
100
AcDbPolyline
90
6
70
1
43
0.0
10
2.6069604097648567
20
7.0946215055651729
10
2.5132104097648553
20
7.257001268774764
10
2.6069604097648567
20
7.4193810319843445
10
2.7944604097648571
20
7.4193810319843445
10
2.8882104097648558
20
7.257001268774764
10
2.7944604097648571
20
7.0946215055651729
0
LWPOLYLINE
5
231
100
AcDbEntity
8
0
100
AcDbPolyline
90
6
70
1
43
0.0
10
2.9463069398432356
20
6.5071465197022782
10
3.0400569398432369
20
6.6695262829118729
10
3.2275569398432369
20
6.6695262829118729
10
3.3213069398432356
20
6.5071465197022782
10
3.2275569398432369
20
6.3447667564927039
10
3.0400569398432369
20
6.3447667564927039
0
LWPOLYLINE
5
232
100
AcDbEntity
8
0
100
AcDbPolyline
90
6
70
1
43
0.0
10
2.8882104097648558
20
4.757001268774764
10
2.7944604097648571
20
4.594621505565172
10
2.6069604097648567
20
4.594621505565172
10
2.5132104097648553
20
4.757001268774764
10
2.6069604097648567
20
4.9193810319843436
10
2.7944604097648571
20
4.9193810319843436
0
LWPOLYLINE
5
233
100
AcDbEntity
8
0
100
AcDbPolyline
90
6
70
1
43
0.0
10
3.3213069398432356
20
4.0071465197022951
10
3.2275569398432369
20
3.8447667564927035
10
3.0400569398432369
20
3.8447667564927035
10
2.9463069398432356
20
4.0071465197022951
10
3.0400569398432369
20
4.169526282911872
10
3.2275569398432369
20
4.169526282911872
0
LWPOLYLINE
5
234
100
AcDbEntity
8
0
100
AcDbPolyline
90
6
70
1
43
0.0
10
5.2055395902351371
20
4.595493011130352
10
5.111789590235138
20
4.7578727743399352
10
5.2055395902351371
20
4.920252537549513
10
5.3930395902351371
20
4.920252537549513
10
5.4867895902351389
20
4.7578727743399352
10
5.3930395902351371
20
4.595493011130352
0
LWPOLYLINE
5
235
100
AcDbEntity
8
0
100
AcDbPolyline
90
6
70
1
43
0.0
10
5.4867895902351389
20
5.2578727743399334
10
5.3930395902351371
20
5.0954930111303538
10
5.2055395902351371
20
5.0954930111303538
10
5.111789590235138
20
5.2578727743399334
10
5.2055395902351371
20
5.4202525375495139
10
5.3930395902351371
20
5.4202525375495139
0
LWPOLYLINE
5
236
100
AcDbEntity
8
0
100
AcDbPolyline
90
6
70
1
43
0.0
10
6.3529826503918985
20
8.2581632761949919
10
6.2592326503918967
20
8.0957835129854043
10
6.0717326503918967
20
8.0957835129854043
10
5.9779826503918985
20
8.2581632761949919
10
6.0717326503918967
20
8.4205430394045759
10
6.2592326503918967
20
8.4205430394045759
0
LWPOLYLINE
5
237
100
AcDbEntity
8
0
100
AcDbPolyline
90
6
70
1
43
0.0
10
6.4110791804702751
20
3.5083085271225252
10
6.5048291804702743
20
3.6706882903321025
10
6.6923291804702769
20
3.6706882903321025
10
6.7860791804702787
20
3.5083085271225252
10
6.6923291804702769
20
3.3459287639129447
10
6.5048291804702743
20
3.3459287639129447
0
LWPOLYLINE
5
238
100
AcDbEntity
8
0
100
AcDbPolyline
90
6
70
1
43
0.0
10
6.2592326503918967
20
4.4205430394045768
10
6.3529826503918985
20
4.2581632761949937
10
6.2592326503918967
20
4.0957835129854052
10
6.0717326503918967
20
4.0957835129854052
10
5.9779826503918985
20
4.2581632761949937
10
6.0717326503918967
20
4.4205430394045768
0
LWPOLYLINE
5
239
100
AcDbEntity
8
0
100
AcDbPolyline
90
6
70
1
43
0.0
10
5.9779826503918985
20
4.7581632761949928
10
6.0717326503918967
20
4.920543039404575
10
6.2592326503918967
20
4.920543039404575
10
6.3529826503918985
20
4.7581632761949928
10
6.2592326503918967
20
4.5957835129854034
10
6.0717326503918967
20
4.5957835129854034
0
LWPOLYLINE
5
240
100
AcDbEntity
8
0
100
AcDbPolyline
90
6
70
1
43
0.0
10
6.0717326503918967
20
3.5957835129854043
10
5.9779826503918985
20
3.7581632761949928
10
6.0717326503918967
20
3.9205430394045759
10
6.2592326503918967
20
3.9205430394045759
10
6.3529826503918985
20
3.7581632761949928
10
6.2592326503918967
20
3.5957835129854043
0
LWPOLYLINE
5
241
100
AcDbEntity
8
0
100
AcDbPolyline
90
6
70
1
43
0.0
10
5.111789590235138
20
7.7578727743399343
10
5.2055395902351371
20
7.9202525375495139
10
5.3930395902351371
20
7.9202525375495139
10
5.4867895902351389
20
7.7578727743399343
10
5.3930395902351371
20
7.5954930111303538
10
5.2055395902351371
20
7.5954930111303538
0
LWPOLYLINE
5
242
100
AcDbEntity
8
0
100
AcDbPolyline
90
6
70
1
43
0.0
10
5.5448861203135129
20
8.0080180252674591
10
5.6386361203135138
20
8.1703977884770449
10
5.8261361203135147
20
8.1703977884770449
10
5.9198861203135129
20
8.0080180252674591
10
5.8261361203135147
20
7.8456382620578839
10
5.6386361203135138
20
7.8456382620578839
0
LWPOLYLINE
5
243
100
AcDbEntity
8
0
100
AcDbPolyline
90
6
70
1
43
0.0
10
5.9779826503918985
20
6.2581632761949928
10
6.0717326503918967
20
6.4205430394045759
10
6.2592326503918967
20
6.4205430394045759
10
6.3529826503918985
20
6.2581632761949928
10
6.2592326503918967
20
6.0957835129854043
10
6.0717326503918967
20
6.0957835129854043
0
LWPOLYLINE
5
244
100
AcDbEntity
8
0
100
AcDbPolyline
90
6
70
1
43
0.0
10
6.8441757105486554
20
3.2584537780500402
10
6.9379257105486545
20
3.4208335412596345
10
7.1254257105486545
20
3.4208335412596345
10
7.2191757105486554
20
3.2584537780500402
10
7.1254257105486545
20
3.0960740148404629
10
6.9379257105486545
20
3.0960740148404629
0
LWPOLYLINE
5
245
100
AcDbEntity
8
0
100
AcDbPolyline
90
6
70
1
43
0.0
10
5.9779826503918985
20
7.7581632761949937
10
6.0717326503918967
20
7.9205430394045742
10
6.2592326503918967
20
7.9205430394045742
10
6.3529826503918985
20
7.7581632761949937
10
6.2592326503918967
20
7.5957835129854026
10
6.0717326503918967
20
7.5957835129854026
0
LWPOLYLINE
5
246
100
AcDbEntity
8
0
100
AcDbPolyline
90
6
70
1
43
0.0
10
6.8441757105486554
20
3.7584537780500415
10
6.9379257105486545
20
3.9208335412596331
10
7.1254257105486545
20
3.9208335412596331
10
7.2191757105486554
20
3.7584537780500415
10
7.1254257105486545
20
3.5960740148404615
10
6.9379257105486545
20
3.5960740148404615
0
LWPOLYLINE
5
247
100
AcDbEntity
8
0
100
AcDbPolyline
90
6
70
1
43
0.0
10
6.8441757105486554
20
4.2584537780500424
10
6.9379257105486545
20
4.4208335412596345
10
7.1254257105486545
20
4.4208335412596345
10
7.2191757105486554
20
4.2584537780500424
10
7.1254257105486545
20
4.0960740148404629
10
6.9379257105486545
20
4.0960740148404629
0
LWPOLYLINE
5
248
100
AcDbEntity
8
0
100
AcDbPolyline
90
6
70
1
43
0.0
10
6.8441757105486554
20
4.7584537780500415
10
6.9379257105486545
20
4.9208335412596353
10
7.1254257105486545
20
4.9208335412596353
10
7.2191757105486554
20
4.7584537780500415
10
7.1254257105486545
20
4.5960740148404637
10
6.9379257105486545
20
4.5960740148404637
0
LWPOLYLINE
5
249
100
AcDbEntity
8
0
100
AcDbPolyline
90
6
70
1
43
0.0
10
6.8441757105486554
20
5.2584537780500424
10
6.9379257105486545
20
5.4208335412596336
10
7.1254257105486545
20
5.4208335412596336
10
7.2191757105486554
20
5.2584537780500424
10
7.1254257105486545
20
5.096074014840462
10
6.9379257105486545
20
5.096074014840462
0
LWPOLYLINE
5
250
100
AcDbEntity
8
0
100
AcDbPolyline
90
6
70
1
43
0.0
10
6.8441757105486554
20
5.7584537780500407
10
6.9379257105486545
20
5.9208335412596353
10
7.1254257105486545
20
5.9208335412596353
10
7.2191757105486554
20
5.7584537780500407
10
7.1254257105486545
20
5.5960740148404637
10
6.9379257105486545
20
5.5960740148404637
0
LWPOLYLINE
5
251
100
AcDbEntity
8
0
100
AcDbPolyline
90
6
70
1
43
0.0
10
6.8441757105486554
20
6.2584537780500415
10
6.9379257105486545
20
6.4208335412596336
10
7.1254257105486545
20
6.4208335412596336
10
7.2191757105486554
20
6.2584537780500415
10
7.1254257105486545
20
6.096074014840462
10
6.9379257105486545
20
6.096074014840462
0
LWPOLYLINE
5
252
100
AcDbEntity
8
0
100
AcDbPolyline
90
6
70
1
43
0.0
10
6.8441757105486554
20
6.7584537780500407
10
6.9379257105486545
20
6.9208335412596345
10
7.1254257105486545
20
6.9208335412596345
10
7.2191757105486554
20
6.7584537780500407
10
7.1254257105486545
20
6.5960740148404629
10
6.9379257105486545
20
6.5960740148404629
0
LWPOLYLINE
5
253
100
AcDbEntity
8
0
100
AcDbPolyline
90
6
70
1
43
0.0
10
6.8441757105486554
20
7.2584537780500415
10
6.9379257105486545
20
7.4208335412596327
10
7.1254257105486545
20
7.4208335412596327
10
7.2191757105486554
20
7.2584537780500415
10
7.1254257105486545
20
7.0960740148404611
10
6.9379257105486545
20
7.0960740148404611
0
LWPOLYLINE
5
254
100
AcDbEntity
8
0
100
AcDbPolyline
90
6
70
1
43
0.0
10
6.8441757105486554
20
7.7584537780500398
10
6.9379257105486545
20
7.9208335412596345
10
7.1254257105486545
20
7.9208335412596345
10
7.2191757105486554
20
7.7584537780500398
10
7.1254257105486545
20
7.5960740148404629
10
6.9379257105486545
20
7.5960740148404629
0
LINE
5
255
100
AcDbEntity
8
0
100
AcDbLine
10
7.9687499999999973
20
1.0937500000000011
30
0
11
7.9687499999999973
21
2.0937500000000004
31
0
0
LWPOLYLINE
5
256
100
AcDbEntity
8
0
100
AcDbPolyline
90
6
70
1
43
0.0
10
0.56499999999999839
20
8.6125833024919807
10
0.62999999999999845
20
8.5000000000000053
10
0.56499999999999806
20
8.3874166975080282
10
0.43499999999999883
20
8.3874166975080282
10
0.36999999999999927
20
8.5000000000000053
10
0.434999999999999
20
8.6125833024919807
0
LWPOLYLINE
5
257
100
AcDbEntity
8
0
100
AcDbPolyline
90
6
70
1
43
0.0
10
7.3699999999999992
20
8.5000000000000053
10
7.4349999999999987
20
8.6125833024919807
10
7.5649999999999977
20
8.6125833024919807
10
7.629999999999999
20
8.5000000000000053
10
7.5649999999999977
20
8.3874166975080282
10
7.4349999999999987
20
8.3874166975080282
0
LWPOLYLINE
5
258
100
AcDbEntity
8
0
100
AcDbPolyline
90
6
70
1
43
0.0
10
0.36999999999999927
20
1.5000000000000049
10
0.434999999999999
20
1.6125833024919813
10
0.56499999999999839
20
1.6125833024919813
10
0.62999999999999845
20
1.5000000000000049
10
0.56499999999999806
20
1.3874166975080287
10
0.43499999999999883
20
1.3874166975080287
0
LWPOLYLINE
5
259
100
AcDbEntity
8
0
100
AcDbPolyline
90
6
70
1
43
0.0
10
7.3699999999999992
20
1.5000000000000049
10
7.4349999999999987
20
1.6125833024919813
10
7.5649999999999977
20
1.6125833024919813
10
7.629999999999999
20
1.5000000000000049
10
7.5649999999999977
20
1.3874166975080287
10
7.4349999999999987
20
1.3874166975080287
0
ENDSEC
0
SECTION
2
OBJECTS
0
DICTIONARY
5
C
100
AcDbDictionary
3
ACAD_GROUP
350
D
3
ACAD_MLINESTYLE
350
17
0
DICTIONARY
5
D
100
AcDbDictionary
0
DICTIONARY
5
1A
330
C
100
AcDbDictionary
0
DICTIONARY
5
17
100
AcDbDictionary
0
ENDSEC
0
EOF
