  0
SECTION
  2
HEADER
  9
$ACADVER
  1
AC1032
  9
$ACADMAINTVER
 90
      130
  9
$DWGCODEPAGE
  3
ANSI_1252
  9
$LASTSAVEDBY
  1
jonny
  9
$REQUIREDVERSIONS
160
                 0
  9
$INSBASE
 10
0.0
 20
0.0
 30
0.0
  9
$EXTMIN
 10
-1.408447239324971
 20
-0.2330474646681075
 30
-0.0015258207003583
  9
$EXTMAX
 10
9.939514185697206
 20
9.752838156596801
 30
0.0000000349246037
  9
$LIMMIN
 10
0.0
 20
0.0
  9
$LIMMAX
 10
12.0
 20
9.0
  9
$ORTHOMODE
 70
     0
  9
$REGENMODE
 70
     1
  9
$FILLMODE
 70
     1
  9
$QTEXTMODE
 70
     0
  9
$MIRRTEXT
 70
     0
  9
$LTSCALE
 40
1.0
  9
$ATTMODE
 70
     1
  9
$TEXTSIZE
 40
0.2
  9
$TRACEWID
 40
0.05
  9
$TEXTSTYLE
  7
STANDARD
  9
$CLAYER
  8
0
  9
$CELTYPE
  6
Continuous
  9
$CECOLOR
 62
   256
  9
$CELTSCALE
 40
1.0
  9
$DISPSILH
 70
     0
  9
$DIMSCALE
 40
1.0
  9
$DIMASZ
 40
0.18
  9
$DIMEXO
 40
0.0625
  9
$DIMDLI
 40
0.38
  9
$DIMRND
 40
0.0
  9
$DIMDLE
 40
0.0
  9
$DIMEXE
 40
0.18
  9
$DIMTP
 40
0.0
  9
$DIMTM
 40
0.0
  9
$DIMTXT
 40
0.18
  9
$DIMCEN
 40
0.09
  9
$DIMTSZ
 40
0.0
  9
$DIMTOL
 70
     0
  9
$DIMLIM
 70
     0
  9
$DIMTIH
 70
     1
  9
$DIMTOH
 70
     1
  9
$DIMSE1
 70
     0
  9
$DIMSE2
 70
     0
  9
$DIMTAD
 70
     0
  9
$DIMZIN
 70
     0
  9
$DIMBLK
  1

  9
$DIMASO
 70
     1
  9
$DIMSHO
 70
     1
  9
$DIMPOST
  1

  9
$DIMAPOST
  1

  9
$DIMALT
 70
     0
  9
$DIMALTD
 70
     2
  9
$DIMALTF
 40
25.4
  9
$DIMLFAC
 40
1.0
  9
$DIMTOFL
 70
     0
  9
$DIMTVP
 40
0.0
  9
$DIMTIX
 70
     0
  9
$DIMSOXD
 70
     0
  9
$DIMSAH
 70
     0
  9
$DIMBLK1
  1

  9
$DIMBLK2
  1

  9
$DIMSTYLE
  2
Standard
  9
$DIMCLRD
 70
     0
  9
$DIMCLRE
 70
     0
  9
$DIMCLRT
 70
     0
  9
$DIMTFAC
 40
1.0
  9
$DIMGAP
 40
0.09
  9
$DIMJUST
 70
     0
  9
$DIMSD1
 70
     0
  9
$DIMSD2
 70
     0
  9
$DIMTOLJ
 70
     1
  9
$DIMTZIN
 70
     0
  9
$DIMALTZ
 70
     0
  9
$DIMALTTZ
 70
     0
  9
$DIMUPT
 70
     0
  9
$DIMDEC
 70
     4
  9
$DIMTDEC
 70
     4
  9
$DIMALTU
 70
     2
  9
$DIMALTTD
 70
     2
  9
$DIMTXSTY
  7
STANDARD
  9
$DIMAUNIT
 70
     0
  9
$DIMADEC
 70
     0
  9
$DIMALTRND
 40
0.0
  9
$DIMAZIN
 70
     0
  9
$DIMDSEP
 70
    46
  9
$DIMATFIT
 70
     3
  9
$DIMFRAC
 70
     0
  9
$DIMLDRBLK
  1

  9
$DIMLUNIT
 70
     2
  9
$DIMLWD
 70
    -2
  9
$DIMLWE
 70
    -2
  9
$DIMTMOVE
 70
     0
  9
$DIMFXL
 40
1.0
  9
$DIMFXLON
 70
     0
  9
$DIMJOGANG
 40
0.7853981633974483
  9
$DIMTFILL
 70
     0
  9
$DIMTFILLCLR
 70
     0
  9
$DIMARCSYM
 70
     0
  9
$DIMLTYPE
  6

  9
$DIMLTEX1
  6

  9
$DIMLTEX2
  6

  9
$DIMTXTDIRECTION
 70
     0
  9
$LUNITS
 70
     2
  9
$LUPREC
 70
     4
  9
$SKETCHINC
 40
0.1
  9
$FILLETRAD
 40
0.0
  9
$AUNITS
 70
     0
  9
$AUPREC
 70
     0
  9
$MENU
  1
.
  9
$ELEVATION
 40
0.0
  9
$PELEVATION
 40
0.0
  9
$THICKNESS
 40
0.0
  9
$LIMCHECK
 70
     0
  9
$CHAMFERA
 40
0.0
  9
$CHAMFERB
 40
0.0
  9
$CHAMFERC
 40
0.0
  9
$CHAMFERD
 40
0.0
  9
$SKPOLY
 70
     0
  9
$TDCREATE
 40
2459814.702361111
  9
$TDUCREATE
 40
2459814.994027778
  9
$TDUPDATE
 40
2459814.724699074
  9
$TDUUPDATE
 40
2459815.016365741
  9
$TDINDWG
 40
0.0223379630
  9
$TDUSRTIMER
 40
0.0223379630
  9
$USRTIMER
 70
     1
  9
$ANGBASE
 50
0.0
  9
$ANGDIR
 70
     0
  9
$PDMODE
 70
     0
  9
$PDSIZE
 40
0.0
  9
$PLINEWID
 40
0.0
  9
$SPLFRAME
 70
     0
  9
$SPLINETYPE
 70
     6
  9
$SPLINESEGS
 70
     8
  9
$HANDSEED
  5
103D0
  9
$SURFTAB1
 70
     6
  9
$SURFTAB2
 70
     6
  9
$SURFTYPE
 70
     6
  9
$SURFU
 70
     6
  9
$SURFV
 70
     6
  9
$UCSBASE
  2

  9
$UCSNAME
  2

  9
$UCSORG
 10
0.0
 20
0.0
 30
0.0
  9
$UCSXDIR
 10
1.0
 20
0.0
 30
0.0
  9
$UCSYDIR
 10
0.0
 20
1.0
 30
0.0
  9
$UCSORTHOREF
  2

  9
$UCSORTHOVIEW
 70
     0
  9
$UCSORGTOP
 10
0.0
 20
0.0
 30
0.0
  9
$UCSORGBOTTOM
 10
0.0
 20
0.0
 30
0.0
  9
$UCSORGLEFT
 10
0.0
 20
0.0
 30
0.0
  9
$UCSORGRIGHT
 10
0.0
 20
0.0
 30
0.0
  9
$UCSORGFRONT
 10
0.0
 20
0.0
 30
0.0
  9
$UCSORGBACK
 10
0.0
 20
0.0
 30
0.0
  9
$PUCSBASE
  2

  9
$PUCSNAME
  2

  9
$PUCSORG
 10
0.0
 20
0.0
 30
0.0
  9
$PUCSXDIR
 10
1.0
 20
0.0
 30
0.0
  9
$PUCSYDIR
 10
0.0
 20
1.0
 30
0.0
  9
$PUCSORTHOREF
  2

  9
$PUCSORTHOVIEW
 70
     0
  9
$PUCSORGTOP
 10
0.0
 20
0.0
 30
0.0
  9
$PUCSORGBOTTOM
 10
0.0
 20
0.0
 30
0.0
  9
$PUCSORGLEFT
 10
0.0
 20
0.0
 30
0.0
  9
$PUCSORGRIGHT
 10
0.0
 20
0.0
 30
0.0
  9
$PUCSORGFRONT
 10
0.0
 20
0.0
 30
0.0
  9
$PUCSORGBACK
 10
0.0
 20
0.0
 30
0.0
  9
$USERI1
 70
     0
  9
$USERI2
 70
     0
  9
$USERI3
 70
     0
  9
$USERI4
 70
     0
  9
$USERI5
 70
     0
  9
$USERR1
 40
0.0
  9
$USERR2
 40
0.0
  9
$USERR3
 40
0.0
  9
$USERR4
 40
0.0
  9
$USERR5
 40
0.0
  9
$WORLDVIEW
 70
     1
  9
$SHADEDGE
 70
     3
  9
$SHADEDIF
 70
    70
  9
$TILEMODE
 70
     1
  9
$MAXACTVP
 70
    64
  9
$PINSBASE
 10
0.0
 20
0.0
 30
0.0
  9
$PLIMCHECK
 70
     0
  9
$PEXTMIN
 10
1.000000000000000E+20
 20
1.000000000000000E+20
 30
1.000000000000000E+20
  9
$PEXTMAX
 10
-1.000000000000000E+20
 20
-1.000000000000000E+20
 30
-1.000000000000000E+20
  9
$PLIMMIN
 10
0.0
 20
0.0
  9
$PLIMMAX
 10
12.0
 20
9.0
  9
$UNITMODE
 70
     0
  9
$VISRETAIN
 70
     1
  9
$PLINEGEN
 70
     0
  9
$PSLTSCALE
 70
     1
  9
$TREEDEPTH
 70
  3020
  9
$CMLSTYLE
  2
Standard
  9
$CMLJUST
 70
     0
  9
$CMLSCALE
 40
1.0
  9
$PROXYGRAPHICS
 70
     1
  9
$MEASUREMENT
 70
     0
  9
$CELWEIGHT
370
    -1
  9
$ENDCAPS
280
     0
  9
$JOINSTYLE
280
     0
  9
$LWDISPLAY
290
     0
  9
$INSUNITS
 70
     1
  9
$HYPERLINKBASE
  1

  9
$STYLESHEET
  1

  9
$XEDIT
290
     1
  9
$CEPSNTYPE
380
     0
  9
$PSTYLEMODE
290
     1
  9
$FINGERPRINTGUID
  2
{212D5D63-9217-6641-8846-639841D849B0}
  9
$VERSIONGUID
  2
{76278378-957F-A543-B9E8-1A21C5FBF2A8}
  9
$EXTNAMES
290
     1
  9
$PSVPSCALE
 40
0.0
  9
$OLESTARTUP
290
     0
  9
$SORTENTS
280
   127
  9
$INDEXCTL
280
     0
  9
$HIDETEXT
280
     0
  9
$XCLIPFRAME
280
     2
  9
$HALOGAP
280
     0
  9
$OBSCOLOR
 70
   257
  9
$OBSLTYPE
280
     0
  9
$INTERSECTIONDISPLAY
280
     0
  9
$INTERSECTIONCOLOR
 70
   257
  9
$DIMASSOC
280
     1
  9
$PROJECTNAME
  1

  9
$CAMERADISPLAY
290
     0
  9
$LENSLENGTH
 40
50.0
  9
$CAMERAHEIGHT
 40
0.0
  9
$STEPSPERSEC
 40
2.0
  9
$STEPSIZE
 40
6.0
  9
$3DDWFPREC
 40
2.0
  9
$PSOLWIDTH
 40
0.25
  9
$PSOLHEIGHT
 40
4.0
  9
$LOFTANG1
 40
1.570796326794896
  9
$LOFTANG2
 40
1.570796326794896
  9
$LOFTMAG1
 40
0.0
  9
$LOFTMAG2
 40
0.0
  9
$LOFTPARAM
 70
     7
  9
$LOFTNORMALS
280
     1
  9
$LATITUDE
 40
37.795
  9
$LONGITUDE
 40
-122.394
  9
$NORTHDIRECTION
 40
0.0
  9
$TIMEZONE
 70
 -8000
  9
$LIGHTGLYPHDISPLAY
280
     1
  9
$TILEMODELIGHTSYNCH
280
     1
  9
$CMATERIAL
347
10005
  9
$SOLIDHIST
280
     0
  9
$SHOWHIST
280
     1
  9
$DWFFRAME
280
     2
  9
$DGNFRAME
280
     0
  9
$REALWORLDSCALE
290
     1
  9
$INTERFERECOLOR
 62
     1
  9
$INTERFEREOBJVS
345
10027
  9
$INTERFEREVPVS
346
10024
  9
$CSHADOW
280
     0
  9
$SHADOWPLANELOCATION
 40
0.0
  0
ENDSEC
  0
SECTION
  2
CLASSES
  0
CLASS
  1
ACDBDICTIONARYWDFLT
  2
AcDbDictionaryWithDefault
  3
ObjectDBX Classes
 90
        0
 91
        1
280
     0
281
     0
  0
CLASS
  1
MATERIAL
  2
AcDbMaterial
  3
ObjectDBX Classes
 90
     1153
 91
        3
280
     0
281
     0
  0
CLASS
  1
VISUALSTYLE
  2
AcDbVisualStyle
  3
ObjectDBX Classes
 90
     4095
 91
       24
280
     0
281
     0
  0
CLASS
  1
TABLESTYLE
  2
AcDbTableStyle
  3
ObjectDBX Classes
 90
     4095
 91
        1
280
     0
281
     0
  0
CLASS
  1
SCALE
  2
AcDbScale
  3
ObjectDBX Classes
 90
     1153
 91
       17
280
     0
281
     0
  0
CLASS
  1
MLEADERSTYLE
  2
AcDbMLeaderStyle
  3
ACDB_MLEADERSTYLE_CLASS
 90
     4095
 91
        1
280
     0
281
     0
  0
CLASS
  1
ACDBSECTIONVIEWSTYLE
  2
AcDbSectionViewStyle
  3
ObjectDBX Classes
 90
     1025
 91
        1
280
     0
281
     0
  0
CLASS
  1
ACDBDETAILVIEWSTYLE
  2
AcDbDetailViewStyle
  3
ObjectDBX Classes
 90
     1025
 91
        1
280
     0
281
     0
  0
CLASS
  1
DICTIONARYVAR
  2
AcDbDictionaryVar
  3
ObjectDBX Classes
 90
        0
 91
       18
280
     0
281
     0
  0
CLASS
  1
CELLSTYLEMAP
  2
AcDbCellStyleMap
  3
ObjectDBX Classes
 90
     1152
 91
        2
280
     0
281
     0
  0
CLASS
  1
RASTERVARIABLES
  2
AcDbRasterVariables
  3
ISM
 90
        0
 91
        1
280
     0
281
     0
  0
ENDSEC
  0
SECTION
  2
TABLES
  0
TABLE
  2
VPORT
  5
8
330
0
100
AcDbSymbolTable
 70
     1
  0
VPORT
  5
10059
330
8
100
AcDbSymbolTableRecord
100
AcDbViewportTableRecord
  2
*Active
 70
     0
 10
0.0
 20
0.0
 11
1.0
 21
1.0
 12
0.8244775606850733
 22
4.077490849958255
 13
0.0
 23
0.0
 14
1.0
 24
1.0
 15
0.0
 25
0.0
 16
0.0
 26
0.0
 36
1.0
 17
0.0
 27
0.0
 37
0.0
 40
20.15601854553082
 41
1.369565217391304
 42
50.0
 43
0.0
 44
0.0
 50
0.0
 51
0.0
 71
     0
 72
  1000
 73
     1
 74
     3
 75
     0
 76
     0
 77
     0
 78
     0
281
     0
 65
     1
110
0.0
120
0.0
130
0.0
111
1.0
121
0.0
131
0.0
112
0.0
122
1.0
132
0.0
 79
     0
146
0.0
348
10023
 60
     3
 61
     5
292
     1
282
     1
141
0.0
142
0.0
 63
   250
421
  3355443
1001
ACAD_NAV_VCDISPLAY
1070
     1
  0
ENDTAB
  0
TABLE
  2
LTYPE
  5
5
330
0
100
AcDbSymbolTable
 70
     2
  0
LTYPE
  5
14
330
5
100
AcDbSymbolTableRecord
100
AcDbLinetypeTableRecord
  2
BYBLOCK
 70
     0
  3

 72
    65
 73
     0
 40
0.0
  0
LTYPE
  5
15
330
5
100
AcDbSymbolTableRecord
100
AcDbLinetypeTableRecord
  2
BYLAYER
 70
     0
  3

 72
    65
 73
     0
 40
0.0
  0
LTYPE
  5
10001
330
5
100
AcDbSymbolTableRecord
100
AcDbLinetypeTableRecord
  2
Continuous
 70
     0
  3
Solid line
 72
    65
 73
     0
 40
0.0
  0
ENDTAB
  0
TABLE
  2
LAYER
  5
2
102
{ACAD_XDICTIONARY
360
102F9
102
}
330
0
100
AcDbSymbolTable
 70
     2
  0
LAYER
  5
50
102
{ACAD_XDICTIONARY
360
102F4
102
}
330
2
100
AcDbSymbolTableRecord
100
AcDbLayerTableRecord
  2
0
 70
     0
 62
     7
  6
Continuous
370
    -3
390
10003
347
10015
348
0
  0
LAYER
  5
1005C
330
2
100
AcDbSymbolTableRecord
100
AcDbLayerTableRecord
  2
Defpoints
 70
     0
 62
     7
  6
Continuous
290
     0
370
    -3
390
10003
347
10015
348
0
  0
ENDTAB
  0
TABLE
  2
STYLE
  5
3
330
0
100
AcDbSymbolTable
 70
     1
  0
STYLE
  5
11
330
3
100
AcDbSymbolTableRecord
100
AcDbTextStyleTableRecord
  2
STANDARD
 70
     0
 40
0.0
 41
1.0
 50
0.0
 71
     0
 42
0.2
  3

  4

  0
ENDTAB
  0
TABLE
  2
VIEW
  5
6
330
0
100
AcDbSymbolTable
 70
     4
  0
ENDTAB
  0
TABLE
  2
UCS
  5
7
330
0
100
AcDbSymbolTable
 70
     0
  0
ENDTAB
  0
TABLE
  2
APPID
  5
9
330
0
100
AcDbSymbolTable
 70
     5
  0
APPID
  5
12
330
9
100
AcDbSymbolTableRecord
100
AcDbRegAppTableRecord
  2
ACAD
 70
     0
  0
APPID
  5
10058
330
9
100
AcDbSymbolTableRecord
100
AcDbRegAppTableRecord
  2
ACAD_NAV_VCDISPLAY
 70
     0
  0
APPID
  5
10113
330
9
100
AcDbSymbolTableRecord
100
AcDbRegAppTableRecord
  2
ACAD_DSTYLE_DIMRADIAL_EXTENSION
 70
     0
  0
APPID
  5
1019D
330
9
100
AcDbSymbolTableRecord
100
AcDbRegAppTableRecord
  2
ACAD_EXEMPT_FROM_CAD_STANDARDS
 70
     0
  0
APPID
  5
103B4
330
9
100
AcDbSymbolTableRecord
100
AcDbRegAppTableRecord
  2
ACAD_PSEXT
 70
     0
  0
ENDTAB
  0
TABLE
  2
DIMSTYLE
  5
A
330
0
100
AcDbSymbolTable
 70
     2
100
AcDbDimStyleTable
 71
     1
340
10053
  0
DIMSTYLE
105
10053
102
{ACAD_REACTORS
330
1005B
330
1006A
330
10078
330
10086
330
100E8
330
100F6
330
10105
330
101A4
330
101B0
330
101BC
330
101CA
330
101D8
330
101E6
330
101F4
330
10203
330
10225
330
10233
102
}
330
A
100
AcDbSymbolTableRecord
100
AcDbDimStyleTableRecord
  2
Standard
 70
     0
340
11
  0
ENDTAB
  0
TABLE
  2
BLOCK_RECORD
  5
1
330
0
100
AcDbSymbolTable
 70
    19
  0
BLOCK_RECORD
  5
1F
330
1
100
AcDbSymbolTableRecord
100
AcDbBlockTableRecord
  2
*MODEL_SPACE
340
10055
 70
     0
280
     1
281
     0
  0
BLOCK_RECORD
  5
1B
330
1
100
AcDbSymbolTableRecord
100
AcDbBlockTableRecord
  2
*PAPER_SPACE
340
10056
 70
     0
280
     1
281
     0
  0
BLOCK_RECORD
  5
1005D
330
1
100
AcDbSymbolTableRecord
100
AcDbBlockTableRecord
  2
*D0
340
0
 70
     0
280
     1
281
     0
  0
BLOCK_RECORD
  5
1006B
330
1
100
AcDbSymbolTableRecord
100
AcDbBlockTableRecord
  2
*D1
340
0
 70
     0
280
     1
281
     0
  0
BLOCK_RECORD
  5
10079
330
1
100
AcDbSymbolTableRecord
100
AcDbBlockTableRecord
  2
*D2
340
0
 70
     0
280
     1
281
     0
  0
BLOCK_RECORD
  5
10087
330
1
100
AcDbSymbolTableRecord
100
AcDbBlockTableRecord
  2
*D3
340
0
 70
     0
280
     1
281
     0
  0
BLOCK_RECORD
  5
100E9
330
1
100
AcDbSymbolTableRecord
100
AcDbBlockTableRecord
  2
*D4
340
0
 70
     0
280
     1
281
     0
  0
BLOCK_RECORD
  5
100F7
330
1
100
AcDbSymbolTableRecord
100
AcDbBlockTableRecord
  2
*D5
340
0
 70
     0
280
     1
281
     0
  0
BLOCK_RECORD
  5
10106
330
1
100
AcDbSymbolTableRecord
100
AcDbBlockTableRecord
  2
*D6
340
0
 70
     0
280
     1
281
     0
  0
BLOCK_RECORD
  5
10115
330
1
100
AcDbSymbolTableRecord
100
AcDbBlockTableRecord
  2
*D7
340
0
 70
     0
280
     1
281
     0
  0
BLOCK_RECORD
  5
101A5
330
1
100
AcDbSymbolTableRecord
100
AcDbBlockTableRecord
  2
*D9
340
0
 70
     0
280
     1
281
     0
  0
BLOCK_RECORD
  5
101B1
330
1
100
AcDbSymbolTableRecord
100
AcDbBlockTableRecord
  2
*D10
340
0
 70
     0
280
     1
281
     0
  0
BLOCK_RECORD
  5
101BD
330
1
100
AcDbSymbolTableRecord
100
AcDbBlockTableRecord
  2
*D11
340
0
 70
     0
280
     1
281
     0
  0
BLOCK_RECORD
  5
101CB
330
1
100
AcDbSymbolTableRecord
100
AcDbBlockTableRecord
  2
*D12
340
0
 70
     0
280
     1
281
     0
  0
BLOCK_RECORD
  5
101D9
330
1
100
AcDbSymbolTableRecord
100
AcDbBlockTableRecord
  2
*D13
340
0
 70
     0
280
     1
281
     0
  0
BLOCK_RECORD
  5
101E7
330
1
100
AcDbSymbolTableRecord
100
AcDbBlockTableRecord
  2
*D14
340
0
 70
     0
280
     1
281
     0
  0
BLOCK_RECORD
  5
101F5
330
1
100
AcDbSymbolTableRecord
100
AcDbBlockTableRecord
  2
*D15
340
0
 70
     0
280
     1
281
     0
  0
BLOCK_RECORD
  5
10204
330
1
100
AcDbSymbolTableRecord
100
AcDbBlockTableRecord
  2
*D16
340
0
 70
     0
280
     1
281
     0
  0
BLOCK_RECORD
  5
10226
330
1
100
AcDbSymbolTableRecord
100
AcDbBlockTableRecord
  2
*D17
340
0
 70
     0
280
     1
281
     0
  0
BLOCK_RECORD
  5
10234
330
1
100
AcDbSymbolTableRecord
100
AcDbBlockTableRecord
  2
*D18
340
0
 70
     0
280
     1
281
     0
  0
ENDTAB
  0
ENDSEC
  0
SECTION
  2
BLOCKS
  0
BLOCK
  5
20
330
1F
100
AcDbEntity
  8
0
100
AcDbBlockBegin
  2
*MODEL_SPACE
 70
     0
 10
0.0
 20
0.0
 30
0.0
  3
*MODEL_SPACE
  1

  0
ENDBLK
  5
21
330
1F
100
AcDbEntity
  8
0
100
AcDbBlockEnd
  0
BLOCK
  5
1C
330
1B
100
AcDbEntity
 67
     1
  8
0
100
AcDbBlockBegin
  2
*PAPER_SPACE
 70
     0
 10
0.0
 20
0.0
 30
0.0
  3
*PAPER_SPACE
  1

  0
ENDBLK
  5
1D
330
1B
100
AcDbEntity
 67
     1
  8
0
100
AcDbBlockEnd
  0
BLOCK
  5
1005E
330
1005D
100
AcDbEntity
  8
0
100
AcDbBlockBegin
  2
*D0
 70
     1
 10
0.0
 20
0.0
 30
0.0
  3
*D0
  1

  0
LINE
  5
1030C
330
1005D
100
AcDbEntity
  8
0
  6
Continuous
 62
     0
440
 16777216
370
    -2
100
AcDbLine
 10
0.0312499999999996
 20
8.968250000000006
 30
0.0
 11
0.0312499999999996
 21
9.752801449636763
 31
0.0
  0
LINE
  5
1030D
330
1005D
100
AcDbEntity
  8
0
  6
Continuous
 62
     0
440
 16777216
370
    -2
100
AcDbLine
 10
7.968749999999996
 20
8.968250000000006
 30
0.0
 11
7.968749999999996
 21
9.752801449636763
 31
0.0
  0
LINE
  5
1030E
330
1005D
100
AcDbEntity
  8
0
  6
Continuous
 62
     0
440
 16777216
370
    -2
100
AcDbLine
 10
0.2112499999999996
 20
9.572801449636763
 30
0.0
 11
3.464285714285712
 21
9.572801449636763
 31
0.0
  0
LINE
  5
1030F
330
1005D
100
AcDbEntity
  8
0
  6
Continuous
 62
     0
440
 16777216
370
    -2
100
AcDbLine
 10
7.788749999999996
 20
9.572801449636763
 30
0.0
 11
4.535714285714283
 21
9.572801449636763
 31
0.0
  0
SOLID
  5
10310
330
1005D
100
AcDbEntity
  8
0
  6
Continuous
 62
     0
440
 16777216
100
AcDbTrace
 10
0.2112499999999996
 20
9.602801449636762
 30
0.0
 11
0.2112499999999996
 21
9.542801449636764
 31
0.0
 12
0.0312499999999996
 22
9.572801449636763
 32
0.0
 13
0.0312499999999996
 23
9.572801449636763
 33
0.0
  0
SOLID
  5
10311
330
1005D
100
AcDbEntity
  8
0
  6
Continuous
 62
     0
440
 16777216
100
AcDbTrace
 10
7.788749999999996
 20
9.602801449636762
 30
0.0
 11
7.788749999999996
 21
9.542801449636764
 31
0.0
 12
7.968749999999996
 22
9.572801449636763
 32
0.0
 13
7.968749999999996
 23
9.572801449636763
 33
0.0
  0
MTEXT
  5
10312
330
1005D
100
AcDbEntity
  8
0
  6
Continuous
 62
     0
440
 16777216
100
AcDbMText
 10
3.999999999999998
 20
9.572801449636763
 30
0.0
 40
0.18
 41
0.0
 46
0.0
 71
     5
 72
     1
  1
\A1;7.9375
 73
     1
 44
1.0
  0
POINT
  5
10313
330
1005D
100
AcDbEntity
  8
Defpoints
  6
Continuous
 62
     0
440
 16777216
100
AcDbPoint
 10
0.0312499999999996
 20
8.905750000000006
 30
0.0
  0
POINT
  5
10314
330
1005D
100
AcDbEntity
  8
Defpoints
  6
Continuous
 62
     0
440
 16777216
100
AcDbPoint
 10
7.968749999999996
 20
8.905750000000006
 30
0.0
  0
POINT
  5
10315
330
1005D
100
AcDbEntity
  8
Defpoints
  6
Continuous
 62
     0
440
 16777216
100
AcDbPoint
 10
7.968749999999996
 20
9.572801449636763
 30
0.0
  0
ENDBLK
  5
1005F
330
1005D
100
AcDbEntity
  8
0
100
AcDbBlockEnd
  0
BLOCK
  5
1006C
330
1006B
100
AcDbEntity
  8
0
100
AcDbBlockBegin
  2
*D1
 70
     1
 10
0.0
 20
0.0
 30
0.0
  3
*D1
  1

  0
LINE
  5
10316
330
1006B
100
AcDbEntity
  8
0
  6
Continuous
 62
     0
440
 16777216
370
    -2
100
AcDbLine
 10
8.031249999999996
 20
8.905750000000006
 30
0.0
 11
9.690489128990281
 21
8.905750000000006
 31
0.0
  0
LINE
  5
10317
330
1006B
100
AcDbEntity
  8
0
  6
Continuous
 62
     0
440
 16777216
370
    -2
100
AcDbLine
 10
8.031249999999996
 20
1.093750000000001
 30
0.0
 11
9.690489128990279
 21
1.09375
 31
0.0
  0
LINE
  5
10318
330
1006B
100
AcDbEntity
  8
0
  6
Continuous
 62
     0
440
 16777216
370
    -2
100
AcDbLine
 10
9.510489128990281
 20
8.725750000000006
 30
0.0
 11
9.510489128990281
 21
5.179750000000003
 31
0.0
  0
LINE
  5
10319
330
1006B
100
AcDbEntity
  8
0
  6
Continuous
 62
     0
440
 16777216
370
    -2
100
AcDbLine
 10
9.510489128990279
 20
1.27375
 30
0.0
 11
9.510489128990281
 21
4.819750000000004
 31
0.0
  0
SOLID
  5
1031A
330
1006B
100
AcDbEntity
  8
0
  6
Continuous
 62
     0
440
 16777216
100
AcDbTrace
 10
9.480489128990281
 20
8.725750000000006
 30
0.0
 11
9.54048912899028
 21
8.725750000000006
 31
0.0
 12
9.510489128990281
 22
8.905750000000006
 32
0.0
 13
9.510489128990281
 23
8.905750000000006
 33
0.0
  0
SOLID
  5
1031B
330
1006B
100
AcDbEntity
  8
0
  6
Continuous
 62
     0
440
 16777216
100
AcDbTrace
 10
9.48048912899028
 20
1.27375
 30
0.0
 11
9.540489128990278
 21
1.27375
 31
0.0
 12
9.510489128990279
 22
1.09375
 32
0.0
 13
9.510489128990279
 23
1.09375
 33
0.0
  0
MTEXT
  5
1031C
330
1006B
100
AcDbEntity
  8
0
  6
Continuous
 62
     0
440
 16777216
100
AcDbMText
 10
9.510489128990279
 20
4.999750000000005
 30
0.0
 40
0.18
 41
0.0
 46
0.0
 71
     5
 72
     1
  1
\A1;7.8120
 73
     1
 44
1.0
  0
POINT
  5
1031D
330
1006B
100
AcDbEntity
  8
Defpoints
  6
Continuous
 62
     0
440
 16777216
100
AcDbPoint
 10
7.968749999999996
 20
8.905750000000006
 30
0.0
  0
POINT
  5
1031E
330
1006B
100
AcDbEntity
  8
Defpoints
  6
Continuous
 62
     0
440
 16777216
100
AcDbPoint
 10
7.968749999999996
 20
1.093750000000001
 30
0.0
  0
POINT
  5
1031F
330
1006B
100
AcDbEntity
  8
Defpoints
  6
Continuous
 62
     0
440
 16777216
100
AcDbPoint
 10
9.510489128990279
 20
1.09375
 30
0.0
  0
ENDBLK
  5
1006D
330
1006B
100
AcDbEntity
  8
0
100
AcDbBlockEnd
  0
BLOCK
  5
1007A
330
10079
100
AcDbEntity
  8
0
100
AcDbBlockBegin
  2
*D2
 70
     1
 10
0.0
 20
0.0
 30
0.0
  3
*D2
  1

  0
LINE
  5
10320
330
10079
100
AcDbEntity
  8
0
  6
Continuous
 62
     0
440
 16777216
370
    -2
100
AcDbLine
 10
5.205539590235137
 20
8.482752537549512
 30
0.0
 11
5.205539590235137
 21
8.825368840913647
 31
0.0
  0
LINE
  5
10321
330
10079
100
AcDbEntity
  8
0
  6
Continuous
 62
     0
440
 16777216
370
    -2
100
AcDbLine
 10
5.393039590235137
 20
8.482752537549512
 30
0.0
 11
5.393039590235137
 21
8.825368840913647
 31
0.0
  0
LINE
  5
10322
330
10079
100
AcDbEntity
  8
0
  6
Continuous
 62
     0
440
 16777216
370
    -2
100
AcDbLine
 10
5.025539590235137
 20
8.645368840913647
 30
0.0
 11
4.845539590235136
 21
8.645368840913647
 31
0.0
  0
LINE
  5
10323
330
10079
100
AcDbEntity
  8
0
  6
Continuous
 62
     0
440
 16777216
370
    -2
100
AcDbLine
 10
5.573039590235136
 20
8.645368840913647
 30
0.0
 11
5.753039590235136
 21
8.645368840913647
 31
0.0
  0
SOLID
  5
10324
330
10079
100
AcDbEntity
  8
0
  6
Continuous
 62
     0
440
 16777216
100
AcDbTrace
 10
5.025539590235137
 20
8.675368840913646
 30
0.0
 11
5.025539590235137
 21
8.615368840913648
 31
0.0
 12
5.205539590235137
 22
8.645368840913647
 32
0.0
 13
5.205539590235137
 23
8.645368840913647
 33
0.0
  0
SOLID
  5
10325
330
10079
100
AcDbEntity
  8
0
  6
Continuous
 62
     0
440
 16777216
100
AcDbTrace
 10
5.573039590235136
 20
8.675368840913646
 30
0.0
 11
5.573039590235136
 21
8.615368840913648
 31
0.0
 12
5.393039590235137
 22
8.645368840913647
 32
0.0
 13
5.393039590235137
 23
8.645368840913647
 33
0.0
  0
MTEXT
  5
10326
330
10079
100
AcDbEntity
  8
0
  6
Continuous
 62
     0
440
 16777216
100
AcDbMText
 10
6.271611018806565
 20
8.645368840913647
 30
0.0
 40
0.18
 41
0.0
 46
0.0
 71
     5
 72
     1
  1
\A1;0.1875
 73
     1
 44
1.0
  0
POINT
  5
10327
330
10079
100
AcDbEntity
  8
Defpoints
  6
Continuous
 62
     0
440
 16777216
100
AcDbPoint
 10
5.205539590235137
 20
8.420252537549512
 30
0.0
  0
POINT
  5
10328
330
10079
100
AcDbEntity
  8
Defpoints
  6
Continuous
 62
     0
440
 16777216
100
AcDbPoint
 10
5.393039590235137
 20
8.420252537549512
 30
0.0
  0
POINT
  5
10329
330
10079
100
AcDbEntity
  8
Defpoints
  6
Continuous
 62
     0
440
 16777216
100
AcDbPoint
 10
5.393039590235137
 20
8.645368840913647
 30
0.0
  0
ENDBLK
  5
1007B
330
10079
100
AcDbEntity
  8
0
100
AcDbBlockEnd
  0
BLOCK
  5
10088
330
10087
100
AcDbEntity
  8
0
100
AcDbBlockBegin
  2
*D3
 70
     1
 10
0.0
 20
0.0
 30
0.0
  3
*D3
  1

  0
LINE
  5
1032A
330
10087
100
AcDbEntity
  8
0
  6
Continuous
 62
     0
440
 16777216
370
    -2
100
AcDbLine
 10
4.276846530078376
 20
8.095202509275294
 30
0.0
 11
3.822637969469059
 21
8.095202509275296
 31
0.0
  0
LINE
  5
1032B
330
10087
100
AcDbEntity
  8
0
  6
Continuous
 62
     0
440
 16777216
370
    -2
100
AcDbLine
 10
4.276846530078376
 20
7.919962035694462
 30
0.0
 11
3.822637969469059
 21
7.919962035694462
 31
0.0
  0
LINE
  5
1032C
330
10087
100
AcDbEntity
  8
0
  6
Continuous
 62
     0
440
 16777216
370
    -2
100
AcDbLine
 10
4.002637969469059
 20
8.275202509275294
 30
0.0
 11
4.002637969469059
 21
8.455202509275293
 31
0.0
  0
LINE
  5
1032D
330
10087
100
AcDbEntity
  8
0
  6
Continuous
 62
     0
440
 16777216
370
    -2
100
AcDbLine
 10
4.002637969469059
 20
7.739962035694462
 30
0.0
 11
4.002637969469059
 21
7.559962035694462
 31
0.0
  0
MTEXT
  5
1032E
330
10087
100
AcDbEntity
  8
0
  6
Continuous
 62
     0
440
 16777216
100
AcDbMText
 10
3.993972994386588
 20
8.657372124406871
 30
0.0
 40
0.18
 41
0.0
 46
0.0
 71
     5
 72
     1
  1
\A1;0.1752
 73
     1
 44
1.0
  0
SOLID
  5
1032F
330
10087
100
AcDbEntity
  8
0
  6
Continuous
 62
     0
440
 16777216
100
AcDbTrace
 10
3.972637969469059
 20
8.275202509275295
 30
0.0
 11
4.032637969469059
 21
8.275202509275294
 31
0.0
 12
4.002637969469059
 22
8.095202509275294
 32
0.0
 13
4.002637969469059
 23
8.095202509275294
 33
0.0
  0
SOLID
  5
10330
330
10087
100
AcDbEntity
  8
0
  6
Continuous
 62
     0
440
 16777216
100
AcDbTrace
 10
3.972637969469059
 20
7.739962035694462
 30
0.0
 11
4.032637969469059
 21
7.739962035694462
 31
0.0
 12
4.002637969469059
 22
7.919962035694462
 32
0.0
 13
4.002637969469059
 23
7.919962035694462
 33
0.0
  0
POINT
  5
10331
330
10087
100
AcDbEntity
  8
Defpoints
  6
Continuous
 62
     0
440
 16777216
100
AcDbPoint
 10
4.339346530078376
 20
8.095202509275294
 30
0.0
  0
POINT
  5
10332
330
10087
100
AcDbEntity
  8
Defpoints
  6
Continuous
 62
     0
440
 16777216
100
AcDbPoint
 10
4.339346530078376
 20
7.919962035694462
 30
0.0
  0
POINT
  5
10333
330
10087
100
AcDbEntity
  8
Defpoints
  6
Continuous
 62
     0
440
 16777216
100
AcDbPoint
 10
4.002637969469059
 20
7.919962035694462
 30
0.0
  0
ENDBLK
  5
10089
330
10087
100
AcDbEntity
  8
0
100
AcDbBlockEnd
  0
BLOCK
  5
100EA
330
100E9
100
AcDbEntity
  8
0
100
AcDbBlockBegin
  2
*D4
 70
     1
 10
0.0
 20
0.0
 30
0.0
  3
*D4
  1

  0
LINE
  5
10334
330
100E9
100
AcDbEntity
  8
0
  6
Continuous
 62
     0
440
 16777216
370
    -2
100
AcDbLine
 10
0.4349999999999989
 20
8.67508330249198
 30
0.0
 11
0.434999999999999
 21
9.270980464910156
 31
0.0
  0
LINE
  5
10335
330
100E9
100
AcDbEntity
  8
0
  6
Continuous
 62
     0
440
 16777216
370
    -2
100
AcDbLine
 10
0.5649999999999985
 20
8.67508330249198
 30
0.0
 11
0.5649999999999985
 21
9.270980464910156
 31
0.0
  0
LINE
  5
10336
330
100E9
100
AcDbEntity
  8
0
  6
Continuous
 62
     0
440
 16777216
370
    -2
100
AcDbLine
 10
0.254999999999999
 20
9.090980464910156
 30
0.0
 11
0.074999999999999
 21
9.090980464910156
 31
0.0
  0
LINE
  5
10337
330
100E9
100
AcDbEntity
  8
0
  6
Continuous
 62
     0
440
 16777216
370
    -2
100
AcDbLine
 10
0.7449999999999984
 20
9.090980464910156
 30
0.0
 11
0.9249999999999982
 21
9.090980464910156
 31
0.0
  0
SOLID
  5
10338
330
100E9
100
AcDbEntity
  8
0
  6
Continuous
 62
     0
440
 16777216
100
AcDbTrace
 10
0.254999999999999
 20
9.120980464910156
 30
0.0
 11
0.254999999999999
 21
9.060980464910157
 31
0.0
 12
0.434999999999999
 22
9.090980464910156
 32
0.0
 13
0.434999999999999
 23
9.090980464910156
 33
0.0
  0
SOLID
  5
10339
330
100E9
100
AcDbEntity
  8
0
  6
Continuous
 62
     0
440
 16777216
100
AcDbTrace
 10
0.7449999999999984
 20
9.120980464910156
 30
0.0
 11
0.7449999999999984
 21
9.060980464910157
 31
0.0
 12
0.5649999999999985
 22
9.090980464910156
 32
0.0
 13
0.5649999999999985
 23
9.090980464910156
 33
0.0
  0
MTEXT
  5
1033A
330
100E9
100
AcDbEntity
  8
0
  6
Continuous
 62
     0
440
 16777216
100
AcDbMText
 10
1.443571428571426
 20
9.090980464910156
 30
0.0
 40
0.18
 41
0.0
 46
0.0
 71
     5
 72
     1
  1
\A1;0.1300
 73
     1
 44
1.0
  0
POINT
  5
1033B
330
100E9
100
AcDbEntity
  8
Defpoints
  6
Continuous
 62
     0
440
 16777216
100
AcDbPoint
 10
0.4349999999999989
 20
8.61258330249198
 30
0.0
  0
POINT
  5
1033C
330
100E9
100
AcDbEntity
  8
Defpoints
  6
Continuous
 62
     0
440
 16777216
100
AcDbPoint
 10
0.5649999999999985
 20
8.61258330249198
 30
0.0
  0
POINT
  5
1033D
330
100E9
100
AcDbEntity
  8
Defpoints
  6
Continuous
 62
     0
440
 16777216
100
AcDbPoint
 10
0.5649999999999985
 20
9.090980464910156
 30
0.0
  0
ENDBLK
  5
100EB
330
100E9
100
AcDbEntity
  8
0
100
AcDbBlockEnd
  0
BLOCK
  5
100F8
330
100F7
100
AcDbEntity
  8
0
100
AcDbBlockBegin
  2
*D5
 70
     1
 10
0.0
 20
0.0
 30
0.0
  3
*D5
  1

  0
LINE
  5
1033E
330
100F7
100
AcDbEntity
  8
0
  6
Continuous
 62
     0
440
 16777216
370
    -2
100
AcDbLine
 10
7.627499999999996
 20
8.61258330249198
 30
0.0
 11
8.468791038248497
 21
8.61258330249198
 31
0.0
  0
LINE
  5
1033F
330
100F7
100
AcDbEntity
  8
0
  6
Continuous
 62
     0
440
 16777216
370
    -2
100
AcDbLine
 10
8.031249999999996
 20
8.905750000000006
 30
0.0
 11
8.468791038248497
 21
8.905750000000006
 31
0.0
  0
LINE
  5
10340
330
100F7
100
AcDbEntity
  8
0
  6
Continuous
 62
     0
440
 16777216
370
    -2
100
AcDbLine
 10
8.288791038248497
 20
8.43258330249198
 30
0.0
 11
8.288791038248497
 21
8.252583302491981
 31
0.0
  0
LINE
  5
10341
330
100F7
100
AcDbEntity
  8
0
  6
Continuous
 62
     0
440
 16777216
370
    -2
100
AcDbLine
 10
8.288791038248497
 20
9.085750000000006
 30
0.0
 11
8.288791038248497
 21
9.265750000000005
 31
0.0
  0
LINE
  5
10342
330
100F7
100
AcDbEntity
  8
0
  6
Continuous
 62
     0
440
 16777216
370
    -2
100
AcDbLine
 10
8.288791038248497
 20
9.265750000000005
 30
0.0
 11
8.468791038248497
 21
9.265750000000005
 31
0.0
  0
SOLID
  5
10343
330
100F7
100
AcDbEntity
  8
0
  6
Continuous
 62
     0
440
 16777216
100
AcDbTrace
 10
8.258791038248498
 20
8.43258330249198
 30
0.0
 11
8.318791038248496
 21
8.43258330249198
 31
0.0
 12
8.288791038248497
 22
8.61258330249198
 32
0.0
 13
8.288791038248497
 23
8.61258330249198
 33
0.0
  0
SOLID
  5
10344
330
100F7
100
AcDbEntity
  8
0
  6
Continuous
 62
     0
440
 16777216
100
AcDbTrace
 10
8.258791038248498
 20
9.085750000000006
 30
0.0
 11
8.318791038248496
 21
9.085750000000006
 31
0.0
 12
8.288791038248497
 22
8.905750000000006
 32
0.0
 13
8.288791038248497
 23
8.905750000000006
 33
0.0
  0
MTEXT
  5
10345
330
100F7
100
AcDbEntity
  8
0
  6
Continuous
 62
     0
440
 16777216
100
AcDbMText
 10
9.004505323962781
 20
9.265750000000007
 30
0.0
 40
0.18
 41
0.0
 46
0.0
 71
     5
 72
     1
  1
\A1;0.2932
 73
     1
 44
1.0
  0
POINT
  5
10346
330
100F7
100
AcDbEntity
  8
Defpoints
  6
Continuous
 62
     0
440
 16777216
100
AcDbPoint
 10
7.564999999999996
 20
8.61258330249198
 30
0.0
  0
POINT
  5
10347
330
100F7
100
AcDbEntity
  8
Defpoints
  6
Continuous
 62
     0
440
 16777216
100
AcDbPoint
 10
7.968749999999996
 20
8.905750000000006
 30
0.0
  0
POINT
  5
10348
330
100F7
100
AcDbEntity
  8
Defpoints
  6
Continuous
 62
     0
440
 16777216
100
AcDbPoint
 10
8.288791038248497
 20
8.905750000000006
 30
0.0
  0
ENDBLK
  5
100F9
330
100F7
100
AcDbEntity
  8
0
100
AcDbBlockEnd
  0
BLOCK
  5
10107
330
10106
100
AcDbEntity
  8
0
100
AcDbBlockBegin
  2
*D6
 70
     1
 10
0.0
 20
0.0
 30
0.0
  3
*D6
  1

  0
LINE
  5
10349
330
10106
100
AcDbEntity
  8
0
  6
Continuous
 62
     0
440
 16777216
370
    -2
100
AcDbLine
 10
0.3699999999999993
 20
8.437500000000005
 30
0.0
 11
0.3699999999999992
 21
8.013446691560989
 31
0.0
  0
LINE
  5
1034A
330
10106
100
AcDbEntity
  8
0
  6
Continuous
 62
     0
440
 16777216
370
    -2
100
AcDbLine
 10
0.0312499999999996
 20
8.437500000000005
 30
0.0
 11
0.0312499999999995
 21
8.013446691560989
 31
0.0
  0
LINE
  5
1034B
330
10106
100
AcDbEntity
  8
0
  6
Continuous
 62
     0
440
 16777216
370
    -2
100
AcDbLine
 10
0.5499999999999993
 20
8.193446691560989
 30
0.0
 11
0.7299999999999994
 21
8.193446691560989
 31
0.0
  0
LINE
  5
1034C
330
10106
100
AcDbEntity
  8
0
  6
Continuous
 62
     0
440
 16777216
370
    -2
100
AcDbLine
 10
-0.1487500000000005
 20
8.193446691560989
 30
0.0
 11
-0.3287500000000003
 21
8.193446691560989
 31
0.0
  0
SOLID
  5
1034D
330
10106
100
AcDbEntity
  8
0
  6
Continuous
 62
     0
440
 16777216
100
AcDbTrace
 10
0.5499999999999993
 20
8.223446691560988
 30
0.0
 11
0.5499999999999993
 21
8.16344669156099
 31
0.0
 12
0.3699999999999993
 22
8.193446691560989
 32
0.0
 13
0.3699999999999993
 23
8.193446691560989
 33
0.0
  0
SOLID
  5
1034E
330
10106
100
AcDbEntity
  8
0
  6
Continuous
 62
     0
440
 16777216
100
AcDbTrace
 10
-0.1487500000000005
 20
8.223446691560988
 30
0.0
 11
-0.1487500000000005
 21
8.16344669156099
 31
0.0
 12
0.0312499999999996
 22
8.193446691560989
 32
0.0
 13
0.0312499999999996
 23
8.193446691560989
 33
0.0
  0
MTEXT
  5
1034F
330
10106
100
AcDbEntity
  8
0
  6
Continuous
 62
     0
440
 16777216
100
AcDbMText
 10
-0.8644642857142859
 20
8.193446691560989
 30
0.0
 40
0.18
 41
0.0
 46
0.0
 71
     5
 72
     1
  1
\A1;0.3388
 73
     1
 44
1.0
  0
POINT
  5
10350
330
10106
100
AcDbEntity
  8
Defpoints
  6
Continuous
 62
     0
440
 16777216
100
AcDbPoint
 10
0.3699999999999993
 20
8.500000000000005
 30
0.0
  0
POINT
  5
10351
330
10106
100
AcDbEntity
  8
Defpoints
  6
Continuous
 62
     0
440
 16777216
100
AcDbPoint
 10
0.0312499999999996
 20
8.500000000000005
 30
0.0
  0
POINT
  5
10352
330
10106
100
AcDbEntity
  8
Defpoints
  6
Continuous
 62
     0
440
 16777216
100
AcDbPoint
 10
0.0312499999999996
 20
8.193446691560989
 30
0.0
  0
ENDBLK
  5
10108
330
10106
100
AcDbEntity
  8
0
100
AcDbBlockEnd
  0
BLOCK
  5
10116
330
10115
100
AcDbEntity
  8
0
100
AcDbBlockBegin
  2
*D7
 70
     1
 10
0.0
 20
0.0
 30
0.0
  3
*D7
  1

  0
LINE
  5
10188
330
10115
100
AcDbEntity
  8
0
  6
Continuous
 62
     0
440
 16777216
370
    -2
100
AcDbLine
 10
6.234551442127216
 20
3.084501442127221
 30
0.0
 11
8.336835068127882
 21
3.08450144212722
 31
0.0
  0
LINE
  5
10189
330
10115
100
AcDbEntity
  8
0
  6
Continuous
 62
     0
440
 16777216
370
    -2
100
AcDbLine
 10
6.234551442127216
 20
2.946501442127221
 30
0.0
 11
8.336835068127882
 21
2.946501442127221
 31
0.0
  0
LINE
  5
1018A
330
10115
100
AcDbEntity
  8
0
  6
Continuous
 62
     0
440
 16777216
370
    -2
100
AcDbLine
 10
8.156835068127882
 20
3.264501442127221
 30
0.0
 11
8.156835068127882
 21
3.44450144212722
 31
0.0
  0
LINE
  5
1018B
330
10115
100
AcDbEntity
  8
0
  6
Continuous
 62
     0
440
 16777216
370
    -2
100
AcDbLine
 10
8.156835068127882
 20
2.76650144212722
 30
0.0
 11
8.156835068127882
 21
2.586501442127221
 31
0.0
  0
LINE
  5
1018C
330
10115
100
AcDbEntity
  8
0
  6
Continuous
 62
     0
440
 16777216
370
    -2
100
AcDbLine
 10
8.336835068127882
 20
2.586501442127219
 30
0.0
 11
8.156835068127882
 21
2.586501442127219
 31
0.0
  0
MTEXT
  5
1018D
330
10115
100
AcDbEntity
  8
0
  6
Continuous
 62
     0
440
 16777216
100
AcDbMText
 10
8.855406496699311
 20
2.586501442127221
 30
0.0
 40
0.18
 41
0.0
 46
0.0
 71
     5
 72
     1
  1
\A1;0.1380
 73
     1
 44
1.0
  0
SOLID
  5
1018E
330
10115
100
AcDbEntity
  8
0
  6
Continuous
 62
     0
440
 16777216
100
AcDbTrace
 10
8.126835068127883
 20
3.264501442127221
 30
0.0
 11
8.186835068127882
 21
3.264501442127221
 31
0.0
 12
8.156835068127882
 22
3.08450144212722
 32
0.0
 13
8.156835068127882
 23
3.08450144212722
 33
0.0
  0
SOLID
  5
1018F
330
10115
100
AcDbEntity
  8
0
  6
Continuous
 62
     0
440
 16777216
100
AcDbTrace
 10
8.126835068127883
 20
2.76650144212722
 30
0.0
 11
8.186835068127882
 21
2.76650144212722
 31
0.0
 12
8.156835068127882
 22
2.946501442127221
 32
0.0
 13
8.156835068127882
 23
2.946501442127221
 33
0.0
  0
POINT
  5
10190
330
10115
100
AcDbEntity
  8
Defpoints
  6
Continuous
 62
     0
440
 16777216
100
AcDbPoint
 10
6.172051442127216
 20
3.084501442127221
 30
0.0
  0
POINT
  5
10191
330
10115
100
AcDbEntity
  8
Defpoints
  6
Continuous
 62
     0
440
 16777216
100
AcDbPoint
 10
6.172051442127216
 20
2.946501442127221
 30
0.0
  0
POINT
  5
10192
330
10115
100
AcDbEntity
  8
Defpoints
  6
Continuous
 62
     0
440
 16777216
100
AcDbPoint
 10
8.156835068127882
 20
2.946501442127221
 30
0.0
  0
ENDBLK
  5
10117
330
10115
100
AcDbEntity
  8
0
100
AcDbBlockEnd
  0
BLOCK
  5
101A6
330
101A5
100
AcDbEntity
  8
0
100
AcDbBlockBegin
  2
*D9
 70
     1
 10
0.0
 20
0.0
 30
0.0
  3
*D9
  1

  0
LINE
  5
103AC
330
101A5
100
AcDbEntity
  8
0
  6
Continuous
 62
     0
440
 16777216
370
    -2
100
AcDbLine
 10
2.737521848092637
 20
3.398682806849557
 30
0.0
 11
2.557521848092637
 21
3.398682806849557
 31
0.0
  0
LINE
  5
103AD
330
101A5
100
AcDbEntity
  8
0
  6
Continuous
 62
     0
440
 16777216
370
    -2
100
AcDbLine
 10
2.557521848092637
 20
3.398682806849557
 30
0.0
 11
2.539942666341056
 21
3.219543273610952
 31
0.0
  0
MTEXT
  5
103AE
330
101A5
100
AcDbEntity
  8
0
  6
Continuous
 62
     0
440
 16777216
100
AcDbMText
 10
3.337521848092637
 20
3.398682806849558
 30
0.0
 40
0.18
 41
0.0
 46
0.0
 71
     5
 72
     1
  1
\A1;∅1.4000
 73
     1
 44
1.0
  0
SOLID
  5
103AF
330
101A5
100
AcDbEntity
  8
0
  6
Continuous
 62
     0
440
 16777216
100
AcDbTrace
 10
2.510086077467955
 20
3.222473137236216
 30
0.0
 11
2.569799255214157
 21
3.216613409985689
 31
0.0
 12
2.522363484589475
 22
3.040403740372348
 32
0.0
 13
2.522363484589475
 23
3.040403740372348
 33
0.0
  0
LINE
  5
103B0
330
101A5
100
AcDbEntity
  8
0
  6
Continuous
 62
     0
440
 16777216
370
    -2
100
AcDbLine
 10
2.363999999999994
 20
2.34375
 30
0.0
 11
2.543999999999994
 21
2.34375
 31
0.0
  0
LINE
  5
103B1
330
101A5
100
AcDbEntity
  8
0
  6
Continuous
 62
     0
440
 16777216
370
    -2
100
AcDbLine
 10
2.453999999999995
 20
2.25375
 30
0.0
 11
2.453999999999995
 21
2.43375
 31
0.0
  0
POINT
  5
103B2
330
101A5
100
AcDbEntity
  8
Defpoints
  6
Continuous
 62
     0
440
 16777216
100
AcDbPoint
 10
2.522363484589475
 20
3.040403740372348
 30
0.0
  0
POINT
  5
103B3
330
101A5
100
AcDbEntity
  8
Defpoints
  6
Continuous
 62
     0
440
 16777216
100
AcDbPoint
 10
2.385636515410513
 20
1.647096259627652
 30
0.0
  0
ENDBLK
  5
101A7
330
101A5
100
AcDbEntity
  8
0
100
AcDbBlockEnd
  0
BLOCK
  5
101B2
330
101B1
100
AcDbEntity
  8
0
100
AcDbBlockBegin
  2
*D10
 70
     1
 10
0.0
 20
0.0
 30
0.0
  3
*D10
  1

  0
LINE
  5
103A4
330
101B1
100
AcDbEntity
  8
0
  6
Continuous
 62
     0
440
 16777216
370
    -2
100
AcDbLine
 10
5.725896482555741
 20
3.351957289892586
 30
0.0
 11
5.905896482555743
 21
3.351957289892586
 31
0.0
  0
LINE
  5
103A5
330
101B1
100
AcDbEntity
  8
0
  6
Continuous
 62
     0
440
 16777216
370
    -2
100
AcDbLine
 10
5.905896482555743
 20
3.351957289892586
 30
0.0
 11
6.017569892166151
 21
3.210787004116906
 31
0.0
  0
MTEXT
  5
103A6
330
101B1
100
AcDbEntity
  8
0
  6
Continuous
 62
     0
440
 16777216
100
AcDbMText
 10
5.125896482555741
 20
3.351957289892587
 30
0.0
 40
0.18
 41
0.0
 46
0.0
 71
     5
 72
     1
  1
\A1;∅0.1380
 73
     1
 44
1.0
  0
SOLID
  5
103A7
330
101B1
100
AcDbEntity
  8
0
  6
Continuous
 62
     0
440
 16777216
100
AcDbTrace
 10
6.041098273128764
 20
3.229399239051974
 30
0.0
 11
5.994041511203538
 21
3.192174769181838
 31
0.0
 12
6.129243301776558
 22
3.069616718341229
 32
0.0
 13
6.129243301776558
 23
3.069616718341229
 33
0.0
  0
LINE
  5
103A8
330
101B1
100
AcDbEntity
  8
0
  6
Continuous
 62
     0
440
 16777216
370
    -2
100
AcDbLine
 10
6.082051442127214
 20
3.015501442127219
 30
0.0
 11
6.262051442127213
 21
3.015501442127219
 31
0.0
  0
LINE
  5
103A9
330
101B1
100
AcDbEntity
  8
0
  6
Continuous
 62
     0
440
 16777216
370
    -2
100
AcDbLine
 10
6.172051442127214
 20
2.925501442127219
 30
0.0
 11
6.172051442127214
 21
3.105501442127218
 31
0.0
  0
POINT
  5
103AA
330
101B1
100
AcDbEntity
  8
Defpoints
  6
Continuous
 62
     0
440
 16777216
100
AcDbPoint
 10
6.129243301776558
 20
3.069616718341229
 30
0.0
  0
POINT
  5
103AB
330
101B1
100
AcDbEntity
  8
Defpoints
  6
Continuous
 62
     0
440
 16777216
100
AcDbPoint
 10
6.21485958247787
 20
2.961386165913209
 30
0.0
  0
ENDBLK
  5
101B3
330
101B1
100
AcDbEntity
  8
0
100
AcDbBlockEnd
  0
BLOCK
  5
101BE
330
101BD
100
AcDbEntity
  8
0
100
AcDbBlockBegin
  2
*D11
 70
     1
 10
0.0
 20
0.0
 30
0.0
  3
*D11
  1

  0
LINE
  5
10353
330
101BD
100
AcDbEntity
  8
0
  6
Continuous
 62
     0
440
 16777216
370
    -2
100
AcDbLine
 10
3.999999999999996
 20
2.281250000000002
 30
0.0
 11
3.999999999999996
 21
0.4078837875443212
 31
0.0
  0
LINE
  5
10354
330
101BD
100
AcDbEntity
  8
0
  6
Continuous
 62
     0
440
 16777216
370
    -2
100
AcDbLine
 10
5.545999999999994
 20
2.281250000000002
 30
0.0
 11
5.545999999999994
 21
0.4078837875443212
 31
0.0
  0
LINE
  5
10355
330
101BD
100
AcDbEntity
  8
0
  6
Continuous
 62
     0
440
 16777216
370
    -2
100
AcDbLine
 10
3.819999999999995
 20
0.5878837875443211
 30
0.0
 11
3.639999999999996
 21
0.5878837875443211
 31
0.0
  0
LINE
  5
10356
330
101BD
100
AcDbEntity
  8
0
  6
Continuous
 62
     0
440
 16777216
370
    -2
100
AcDbLine
 10
5.725999999999993
 20
0.5878837875443211
 30
0.0
 11
5.905999999999994
 21
0.5878837875443211
 31
0.0
  0
SOLID
  5
10357
330
101BD
100
AcDbEntity
  8
0
  6
Continuous
 62
     0
440
 16777216
100
AcDbTrace
 10
3.819999999999995
 20
0.6178837875443211
 30
0.0
 11
3.819999999999995
 21
0.557883787544321
 31
0.0
 12
3.999999999999996
 22
0.5878837875443211
 32
0.0
 13
3.999999999999996
 23
0.5878837875443211
 33
0.0
  0
SOLID
  5
10358
330
101BD
100
AcDbEntity
  8
0
  6
Continuous
 62
     0
440
 16777216
100
AcDbTrace
 10
5.725999999999993
 20
0.6178837875443211
 30
0.0
 11
5.725999999999993
 21
0.557883787544321
 31
0.0
 12
5.545999999999994
 22
0.5878837875443211
 32
0.0
 13
5.545999999999994
 23
0.5878837875443211
 33
0.0
  0
MTEXT
  5
10359
330
101BD
100
AcDbEntity
  8
0
  6
Continuous
 62
     0
440
 16777216
100
AcDbMText
 10
4.772999999999995
 20
0.5878837875443211
 30
0.0
 40
0.18
 41
0.0
 46
0.0
 71
     5
 72
     1
  1
\A1;1.5460
 73
     1
 44
1.0
  0
POINT
  5
1035A
330
101BD
100
AcDbEntity
  8
Defpoints
  6
Continuous
 62
     0
440
 16777216
100
AcDbPoint
 10
3.999999999999996
 20
2.343750000000002
 30
0.0
  0
POINT
  5
1035B
330
101BD
100
AcDbEntity
  8
Defpoints
  6
Continuous
 62
     0
440
 16777216
100
AcDbPoint
 10
5.545999999999994
 20
2.343750000000002
 30
0.0
  0
POINT
  5
1035C
330
101BD
100
AcDbEntity
  8
Defpoints
  6
Continuous
 62
     0
440
 16777216
100
AcDbPoint
 10
5.545999999999994
 20
0.5878837875443211
 30
0.0
  0
ENDBLK
  5
101BF
330
101BD
100
AcDbEntity
  8
0
100
AcDbBlockEnd
  0
BLOCK
  5
101CC
330
101CB
100
AcDbEntity
  8
0
100
AcDbBlockBegin
  2
*D12
 70
     1
 10
0.0
 20
0.0
 30
0.0
  3
*D12
  1

  0
LINE
  5
1035D
330
101CB
100
AcDbEntity
  8
0
  6
Continuous
 62
     0
440
 16777216
370
    -2
100
AcDbLine
 10
5.545999999999994
 20
2.281250000000002
 30
0.0
 11
5.545999999999994
 21
-0.2326558470937177
 31
0.0
  0
LINE
  5
1035E
330
101CB
100
AcDbEntity
  8
0
  6
Continuous
 62
     0
440
 16777216
370
    -2
100
AcDbLine
 10
7.968749999999996
 20
2.281250000000002
 30
0.0
 11
7.968749999999996
 21
-0.2326558470937177
 31
0.0
  0
LINE
  5
1035F
330
101CB
100
AcDbEntity
  8
0
  6
Continuous
 62
     0
440
 16777216
370
    -2
100
AcDbLine
 10
5.725999999999993
 20
-0.0526558470937175
 30
0.0
 11
6.221660714285709
 21
-0.0526558470937175
 31
0.0
  0
LINE
  5
10360
330
101CB
100
AcDbEntity
  8
0
  6
Continuous
 62
     0
440
 16777216
370
    -2
100
AcDbLine
 10
7.788749999999996
 20
-0.0526558470937175
 30
0.0
 11
7.29308928571428
 21
-0.0526558470937175
 31
0.0
  0
SOLID
  5
10361
330
101CB
100
AcDbEntity
  8
0
  6
Continuous
 62
     0
440
 16777216
100
AcDbTrace
 10
5.725999999999993
 20
-0.0226558470937175
 30
0.0
 11
5.725999999999993
 21
-0.0826558470937175
 31
0.0
 12
5.545999999999994
 22
-0.0526558470937175
 32
0.0
 13
5.545999999999994
 23
-0.0526558470937175
 33
0.0
  0
SOLID
  5
10362
330
101CB
100
AcDbEntity
  8
0
  6
Continuous
 62
     0
440
 16777216
100
AcDbTrace
 10
7.788749999999996
 20
-0.0226558470937175
 30
0.0
 11
7.788749999999996
 21
-0.0826558470937175
 31
0.0
 12
7.968749999999996
 22
-0.0526558470937175
 32
0.0
 13
7.968749999999996
 23
-0.0526558470937175
 33
0.0
  0
MTEXT
  5
10363
330
101CB
100
AcDbEntity
  8
0
  6
Continuous
 62
     0
440
 16777216
100
AcDbMText
 10
6.757374999999995
 20
-0.0526558470937175
 30
0.0
 40
0.18
 41
0.0
 46
0.0
 71
     5
 72
     1
  1
\A1;2.4228
 73
     1
 44
1.0
  0
POINT
  5
10364
330
101CB
100
AcDbEntity
  8
Defpoints
  6
Continuous
 62
     0
440
 16777216
100
AcDbPoint
 10
5.545999999999994
 20
2.343750000000002
 30
0.0
  0
POINT
  5
10365
330
101CB
100
AcDbEntity
  8
Defpoints
  6
Continuous
 62
     0
440
 16777216
100
AcDbPoint
 10
7.968749999999996
 20
2.343750000000002
 30
0.0
  0
POINT
  5
10366
330
101CB
100
AcDbEntity
  8
Defpoints
  6
Continuous
 62
     0
440
 16777216
100
AcDbPoint
 10
7.968749999999996
 20
-0.0526558470937175
 30
0.0
  0
ENDBLK
  5
101CD
330
101CB
100
AcDbEntity
  8
0
100
AcDbBlockEnd
  0
BLOCK
  5
101DA
330
101D9
100
AcDbEntity
  8
0
100
AcDbBlockBegin
  2
*D13
 70
     1
 10
0.0
 20
0.0
 30
0.0
  3
*D13
  1

  0
LINE
  5
10367
330
101D9
100
AcDbEntity
  8
0
  6
Continuous
 62
     0
440
 16777216
370
    -2
100
AcDbLine
 10
6.172051442127216
 20
1.609498557872786
 30
0.0
 11
6.172051442127216
 21
0.3970812745458117
 31
0.0
  0
LINE
  5
10368
330
101D9
100
AcDbEntity
  8
0
  6
Continuous
 62
     0
440
 16777216
370
    -2
100
AcDbLine
 10
7.968749999999996
 20
1.609498557872786
 30
0.0
 11
7.968749999999996
 21
0.3970812745458117
 31
0.0
  0
LINE
  5
10369
330
101D9
100
AcDbEntity
  8
0
  6
Continuous
 62
     0
440
 16777216
370
    -2
100
AcDbLine
 10
6.352051442127216
 20
0.5770812745458116
 30
0.0
 11
6.551829292492177
 21
0.5770812745458116
 31
0.0
  0
LINE
  5
1036A
330
101D9
100
AcDbEntity
  8
0
  6
Continuous
 62
     0
440
 16777216
370
    -2
100
AcDbLine
 10
7.788749999999996
 20
0.5770812745458116
 30
0.0
 11
7.588972149635035
 21
0.5770812745458116
 31
0.0
  0
SOLID
  5
1036B
330
101D9
100
AcDbEntity
  8
0
  6
Continuous
 62
     0
440
 16777216
100
AcDbTrace
 10
6.352051442127216
 20
0.6070812745458117
 30
0.0
 11
6.352051442127216
 21
0.5470812745458116
 31
0.0
 12
6.172051442127216
 22
0.5770812745458116
 32
0.0
 13
6.172051442127216
 23
0.5770812745458116
 33
0.0
  0
SOLID
  5
1036C
330
101D9
100
AcDbEntity
  8
0
  6
Continuous
 62
     0
440
 16777216
100
AcDbTrace
 10
7.788749999999996
 20
0.6070812745458117
 30
0.0
 11
7.788749999999996
 21
0.5470812745458116
 31
0.0
 12
7.968749999999996
 22
0.5770812745458116
 32
0.0
 13
7.968749999999996
 23
0.5770812745458116
 33
0.0
  0
MTEXT
  5
1036D
330
101D9
100
AcDbEntity
  8
0
  6
Continuous
 62
     0
440
 16777216
100
AcDbMText
 10
7.070400721063606
 20
0.5770812745458116
 30
0.0
 40
0.18
 41
0.0
 46
0.0
 71
     5
 72
     1
  1
\A1;1.7967
 73
     1
 44
1.0
  0
POINT
  5
1036E
330
101D9
100
AcDbEntity
  8
Defpoints
  6
Continuous
 62
     0
440
 16777216
100
AcDbPoint
 10
6.172051442127216
 20
1.671998557872786
 30
0.0
  0
POINT
  5
1036F
330
101D9
100
AcDbEntity
  8
Defpoints
  6
Continuous
 62
     0
440
 16777216
100
AcDbPoint
 10
7.968749999999996
 20
1.671998557872786
 30
0.0
  0
POINT
  5
10370
330
101D9
100
AcDbEntity
  8
Defpoints
  6
Continuous
 62
     0
440
 16777216
100
AcDbPoint
 10
7.968749999999996
 20
0.5770812745458116
 30
0.0
  0
ENDBLK
  5
101DB
330
101D9
100
AcDbEntity
  8
0
100
AcDbBlockEnd
  0
BLOCK
  5
101E8
330
101E7
100
AcDbEntity
  8
0
100
AcDbBlockBegin
  2
*D14
 70
     1
 10
0.0
 20
0.0
 30
0.0
  3
*D14
  1

  0
LINE
  5
10371
330
101E7
100
AcDbEntity
  8
0
  6
Continuous
 62
     0
440
 16777216
370
    -2
100
AcDbLine
 10
2.391499999999996
 20
2.343750000000001
 30
0.0
 11
-1.158962067105357
 21
2.343750000000002
 31
0.0
  0
LINE
  5
10372
330
101E7
100
AcDbEntity
  8
0
  6
Continuous
 62
     0
440
 16777216
370
    -2
100
AcDbLine
 10
2.391499999999995
 20
1.093750000000001
 30
0.0
 11
-1.158962067105357
 21
1.093750000000001
 31
0.0
  0
LINE
  5
10373
330
101E7
100
AcDbEntity
  8
0
  6
Continuous
 62
     0
440
 16777216
370
    -2
100
AcDbLine
 10
-0.9789620671053567
 20
2.163750000000002
 30
0.0
 11
-0.9789620671053567
 21
1.898750000000001
 31
0.0
  0
LINE
  5
10374
330
101E7
100
AcDbEntity
  8
0
  6
Continuous
 62
     0
440
 16777216
370
    -2
100
AcDbLine
 10
-0.9789620671053569
 20
1.273750000000001
 30
0.0
 11
-0.9789620671053569
 21
1.538750000000002
 31
0.0
  0
SOLID
  5
10375
330
101E7
100
AcDbEntity
  8
0
  6
Continuous
 62
     0
440
 16777216
100
AcDbTrace
 10
-1.008962067105356
 20
2.163750000000002
 30
0.0
 11
-0.9489620671053568
 21
2.163750000000002
 31
0.0
 12
-0.9789620671053567
 22
2.343750000000002
 32
0.0
 13
-0.9789620671053567
 23
2.343750000000002
 33
0.0
  0
SOLID
  5
10376
330
101E7
100
AcDbEntity
  8
0
  6
Continuous
 62
     0
440
 16777216
100
AcDbTrace
 10
-1.008962067105356
 20
1.273750000000001
 30
0.0
 11
-0.9489620671053568
 21
1.273750000000001
 31
0.0
 12
-0.9789620671053571
 22
1.093750000000001
 32
0.0
 13
-0.9789620671053571
 23
1.093750000000001
 33
0.0
  0
MTEXT
  5
10377
330
101E7
100
AcDbEntity
  8
0
  6
Continuous
 62
     0
440
 16777216
100
AcDbMText
 10
-0.9789620671053571
 20
1.718750000000001
 30
0.0
 40
0.18
 41
0.0
 46
0.0
 71
     5
 72
     1
  1
\A1;1.2500
 73
     1
 44
1.0
  0
POINT
  5
10378
330
101E7
100
AcDbEntity
  8
Defpoints
  6
Continuous
 62
     0
440
 16777216
100
AcDbPoint
 10
2.453999999999996
 20
2.343750000000001
 30
0.0
  0
POINT
  5
10379
330
101E7
100
AcDbEntity
  8
Defpoints
  6
Continuous
 62
     0
440
 16777216
100
AcDbPoint
 10
2.453999999999995
 20
1.093750000000001
 30
0.0
  0
POINT
  5
1037A
330
101E7
100
AcDbEntity
  8
Defpoints
  6
Continuous
 62
     0
440
 16777216
100
AcDbPoint
 10
-0.9789620671053571
 20
1.093750000000001
 30
0.0
  0
ENDBLK
  5
101E9
330
101E7
100
AcDbEntity
  8
0
100
AcDbBlockEnd
  0
BLOCK
  5
101F6
330
101F5
100
AcDbEntity
  8
0
100
AcDbBlockBegin
  2
*D15
 70
     1
 10
0.0
 20
0.0
 30
0.0
  3
*D15
  1

  0
LINE
  5
1037B
330
101F5
100
AcDbEntity
  8
0
  6
Continuous
 62
     0
440
 16777216
370
    -2
100
AcDbLine
 10
1.765448557872777
 20
1.671998557872786
 30
0.0
 11
-0.3255379835744175
 21
1.671998557872786
 31
0.0
  0
LINE
  5
1037C
330
101F5
100
AcDbEntity
  8
0
  6
Continuous
 62
     0
440
 16777216
370
    -2
100
AcDbLine
 10
1.765448557872777
 20
1.093750000000001
 30
0.0
 11
-0.3255379835744174
 21
1.093750000000001
 31
0.0
  0
LINE
  5
1037D
330
101F5
100
AcDbEntity
  8
0
  6
Continuous
 62
     0
440
 16777216
370
    -2
100
AcDbLine
 10
-0.1455379835744173
 20
1.491998557872786
 30
0.0
 11
-0.1455379835744174
 21
1.273750000000001
 31
0.0
  0
LINE
  5
1037E
330
101F5
100
AcDbEntity
  8
0
  6
Continuous
 62
     0
440
 16777216
370
    -2
100
AcDbLine
 10
-0.1455379835744174
 20
1.093750000000001
 30
0.0
 11
-0.1455379835744175
 21
0.9137500000000018
 31
0.0
  0
LINE
  5
1037F
330
101F5
100
AcDbEntity
  8
0
  6
Continuous
 62
     0
440
 16777216
370
    -2
100
AcDbLine
 10
-0.1455379835744175
 20
0.9137500000000018
 30
0.0
 11
-0.3255379835744174
 21
0.913750000000002
 31
0.0
  0
SOLID
  5
10380
330
101F5
100
AcDbEntity
  8
0
  6
Continuous
 62
     0
440
 16777216
100
AcDbTrace
 10
-0.1755379835744173
 20
1.491998557872786
 30
0.0
 11
-0.1155379835744173
 21
1.491998557872786
 31
0.0
 12
-0.1455379835744173
 22
1.671998557872786
 32
0.0
 13
-0.1455379835744173
 23
1.671998557872786
 33
0.0
  0
SOLID
  5
10381
330
101F5
100
AcDbEntity
  8
0
  6
Continuous
 62
     0
440
 16777216
100
AcDbTrace
 10
-0.1755379835744174
 20
1.273750000000001
 30
0.0
 11
-0.1155379835744174
 21
1.273750000000001
 31
0.0
 12
-0.1455379835744174
 22
1.093750000000001
 32
0.0
 13
-0.1455379835744174
 23
1.093750000000001
 33
0.0
  0
MTEXT
  5
10382
330
101F5
100
AcDbEntity
  8
0
  6
Continuous
 62
     0
440
 16777216
100
AcDbMText
 10
-0.8612522692887033
 20
0.9137500000000018
 30
0.0
 40
0.18
 41
0.0
 46
0.0
 71
     5
 72
     1
  1
\A1;0.5782
 73
     1
 44
1.0
  0
POINT
  5
10383
330
101F5
100
AcDbEntity
  8
Defpoints
  6
Continuous
 62
     0
440
 16777216
100
AcDbPoint
 10
1.827948557872777
 20
1.671998557872786
 30
0.0
  0
POINT
  5
10384
330
101F5
100
AcDbEntity
  8
Defpoints
  6
Continuous
 62
     0
440
 16777216
100
AcDbPoint
 10
1.827948557872777
 20
1.093750000000001
 30
0.0
  0
POINT
  5
10385
330
101F5
100
AcDbEntity
  8
Defpoints
  6
Continuous
 62
     0
440
 16777216
100
AcDbPoint
 10
-0.1455379835744174
 20
1.093750000000001
 30
0.0
  0
ENDBLK
  5
101F7
330
101F5
100
AcDbEntity
  8
0
100
AcDbBlockEnd
  0
BLOCK
  5
10205
330
10204
100
AcDbEntity
  8
0
100
AcDbBlockBegin
  2
*D16
 70
     1
 10
0.0
 20
0.0
 30
0.0
  3
*D16
  1

  0
LINE
  5
10386
330
10204
100
AcDbEntity
  8
0
  6
Continuous
 62
     0
440
 16777216
370
    -2
100
AcDbLine
 10
1.765448557872777
 20
1.671998557872786
 30
0.0
 11
-0.3225066040587208
 21
1.671998557872786
 31
0.0
  0
LINE
  5
10387
330
10204
100
AcDbEntity
  8
0
  6
Continuous
 62
     0
440
 16777216
370
    -2
100
AcDbLine
 10
1.765448557872777
 20
3.015501442127221
 30
0.0
 11
-0.3225066040587203
 21
3.015501442127221
 31
0.0
  0
LINE
  5
10388
330
10204
100
AcDbEntity
  8
0
  6
Continuous
 62
     0
440
 16777216
370
    -2
100
AcDbLine
 10
-0.1425066040587206
 20
1.491998557872786
 30
0.0
 11
-0.1425066040587207
 21
1.311998557872786
 31
0.0
  0
LINE
  5
10389
330
10204
100
AcDbEntity
  8
0
  6
Continuous
 62
     0
440
 16777216
370
    -2
100
AcDbLine
 10
-0.1425066040587203
 20
3.195501442127222
 30
0.0
 11
-0.1425066040587202
 21
3.375501442127221
 31
0.0
  0
MTEXT
  5
1038A
330
10204
100
AcDbEntity
  8
0
  6
Continuous
 62
     0
440
 16777216
100
AcDbMText
 10
-0.4497574821770556
 20
2.728878743926873
 30
0.0
 40
0.18
 41
0.0
 46
0.0
 71
     5
 72
     1
  1
\A1;1.3435
 73
     1
 44
1.0
  0
SOLID
  5
1038B
330
10204
100
AcDbEntity
  8
0
  6
Continuous
 62
     0
440
 16777216
100
AcDbTrace
 10
-0.1725066040587206
 20
1.491998557872786
 30
0.0
 11
-0.1125066040587206
 21
1.491998557872786
 31
0.0
 12
-0.1425066040587206
 22
1.671998557872786
 32
0.0
 13
-0.1425066040587206
 23
1.671998557872786
 33
0.0
  0
SOLID
  5
1038C
330
10204
100
AcDbEntity
  8
0
  6
Continuous
 62
     0
440
 16777216
100
AcDbTrace
 10
-0.1725066040587202
 20
3.195501442127222
 30
0.0
 11
-0.1125066040587203
 21
3.195501442127222
 31
0.0
 12
-0.1425066040587203
 22
3.015501442127221
 32
0.0
 13
-0.1425066040587203
 23
3.015501442127221
 33
0.0
  0
POINT
  5
1038D
330
10204
100
AcDbEntity
  8
Defpoints
  6
Continuous
 62
     0
440
 16777216
100
AcDbPoint
 10
1.827948557872777
 20
1.671998557872786
 30
0.0
  0
POINT
  5
1038E
330
10204
100
AcDbEntity
  8
Defpoints
  6
Continuous
 62
     0
440
 16777216
100
AcDbPoint
 10
1.827948557872777
 20
3.015501442127221
 30
0.0
  0
POINT
  5
1038F
330
10204
100
AcDbEntity
  8
Defpoints
  6
Continuous
 62
     0
440
 16777216
100
AcDbPoint
 10
-0.1425066040587203
 20
3.015501442127221
 30
0.0
  0
ENDBLK
  5
10206
330
10204
100
AcDbEntity
  8
0
100
AcDbBlockEnd
  0
BLOCK
  5
10227
330
10226
100
AcDbEntity
  8
0
100
AcDbBlockBegin
  2
*D17
 70
     1
 10
0.0
 20
0.0
 30
0.0
  3
*D17
  1

  0
LINE
  5
10390
330
10226
100
AcDbEntity
  8
0
  6
Continuous
 62
     0
440
 16777216
370
    -2
100
AcDbLine
 10
2.544460409764856
 20
8.419381031984341
 30
0.0
 11
2.108679627175817
 21
8.419381031984341
 31
0.0
  0
LINE
  5
10391
330
10226
100
AcDbEntity
  8
0
  6
Continuous
 62
     0
440
 16777216
370
    -2
100
AcDbLine
 10
2.226179627175817
 20
8.905750000000006
 30
0.0
 11
2.108679627175817
 21
8.905750000000006
 31
0.0
  0
LINE
  5
10392
330
10226
100
AcDbEntity
  8
0
  6
Continuous
 62
     0
440
 16777216
370
    -2
100
AcDbLine
 10
2.288679627175817
 20
8.239381031984342
 30
0.0
 11
2.288679627175817
 21
8.059381031984342
 31
0.0
  0
LINE
  5
10393
330
10226
100
AcDbEntity
  8
0
  6
Continuous
 62
     0
440
 16777216
370
    -2
100
AcDbLine
 10
2.288679627175817
 20
9.085750000000006
 30
0.0
 11
2.288679627175817
 21
9.265750000000005
 31
0.0
  0
SOLID
  5
10394
330
10226
100
AcDbEntity
  8
0
  6
Continuous
 62
     0
440
 16777216
100
AcDbTrace
 10
2.258679627175817
 20
8.239381031984342
 30
0.0
 11
2.318679627175816
 21
8.239381031984342
 31
0.0
 12
2.288679627175817
 22
8.419381031984341
 32
0.0
 13
2.288679627175817
 23
8.419381031984341
 33
0.0
  0
SOLID
  5
10395
330
10226
100
AcDbEntity
  8
0
  6
Continuous
 62
     0
440
 16777216
100
AcDbTrace
 10
2.258679627175817
 20
9.085750000000006
 30
0.0
 11
2.318679627175817
 21
9.085750000000006
 31
0.0
 12
2.288679627175817
 22
8.905750000000006
 32
0.0
 13
2.288679627175817
 23
8.905750000000006
 33
0.0
  0
MTEXT
  5
10396
330
10226
100
AcDbEntity
  8
0
  6
Continuous
 62
     0
440
 16777216
100
AcDbMText
 10
2.288679627175815
 20
8.662565515992174
 30
0.0
 40
0.18
 41
0.0
 46
0.0
 71
     5
 72
     1
  1
\A1;0.4864
 73
     1
 44
1.0
  0
POINT
  5
10397
330
10226
100
AcDbEntity
  8
Defpoints
  6
Continuous
 62
     0
440
 16777216
100
AcDbPoint
 10
2.606960409764856
 20
8.419381031984341
 30
0.0
  0
POINT
  5
10398
330
10226
100
AcDbEntity
  8
Defpoints
  6
Continuous
 62
     0
440
 16777216
100
AcDbPoint
 10
2.288679627175817
 20
8.905750000000006
 30
0.0
  0
POINT
  5
10399
330
10226
100
AcDbEntity
  8
Defpoints
  6
Continuous
 62
     0
440
 16777216
100
AcDbPoint
 10
2.288679627175817
 20
8.905750000000006
 30
0.0
  0
ENDBLK
  5
10228
330
10226
100
AcDbEntity
  8
0
100
AcDbBlockEnd
  0
BLOCK
  5
10235
330
10234
100
AcDbEntity
  8
0
100
AcDbBlockBegin
  2
*D18
 70
     1
 10
0.0
 20
0.0
 30
0.0
  3
*D18
  1

  0
LINE
  5
1039A
330
10234
100
AcDbEntity
  8
0
  6
Continuous
 62
     0
440
 16777216
370
    -2
100
AcDbLine
 10
0.7808242894513464
 20
7.193920265064646
 30
0.0
 11
0.7808242894513464
 21
6.879680083123677
 31
0.0
  0
LINE
  5
1039B
330
10234
100
AcDbEntity
  8
0
  6
Continuous
 62
     0
440
 16777216
370
    -2
100
AcDbLine
 10
0.0312499999999997
 20
7.193920265064646
 30
0.0
 11
0.0312499999999996
 21
6.879680083123677
 31
0.0
  0
LINE
  5
1039C
330
10234
100
AcDbEntity
  8
0
  6
Continuous
 62
     0
440
 16777216
370
    -2
100
AcDbLine
 10
0.6008242894513466
 20
7.059680083123677
 30
0.0
 11
0.2112499999999996
 21
7.059680083123677
 31
0.0
  0
LINE
  5
1039D
330
10234
100
AcDbEntity
  8
0
  6
Continuous
 62
     0
440
 16777216
370
    -2
100
AcDbLine
 10
0.0312499999999996
 20
7.059680083123677
 30
0.0
 11
-0.1487500000000004
 21
7.059680083123677
 31
0.0
  0
SOLID
  5
1039E
330
10234
100
AcDbEntity
  8
0
  6
Continuous
 62
     0
440
 16777216
100
AcDbTrace
 10
0.6008242894513466
 20
7.089680083123677
 30
0.0
 11
0.6008242894513466
 21
7.029680083123676
 31
0.0
 12
0.7808242894513464
 22
7.059680083123677
 32
0.0
 13
0.7808242894513464
 23
7.059680083123677
 33
0.0
  0
SOLID
  5
1039F
330
10234
100
AcDbEntity
  8
0
  6
Continuous
 62
     0
440
 16777216
100
AcDbTrace
 10
0.2112499999999996
 20
7.089680083123677
 30
0.0
 11
0.2112499999999996
 21
7.029680083123676
 31
0.0
 12
0.0312499999999996
 22
7.059680083123677
 32
0.0
 13
0.0312499999999996
 23
7.059680083123677
 33
0.0
  0
MTEXT
  5
103A0
330
10234
100
AcDbEntity
  8
0
  6
Continuous
 62
     0
440
 16777216
100
AcDbMText
 10
-0.6801785714285719
 20
7.059680083123677
 30
0.0
 40
0.18
 41
0.0
 46
0.0
 71
     5
 72
     1
  1
\A1;0.7496
 73
     1
 44
1.0
  0
POINT
  5
103A1
330
10234
100
AcDbEntity
  8
Defpoints
  6
Continuous
 62
     0
440
 16777216
100
AcDbPoint
 10
0.7808242894513464
 20
7.256420265064646
 30
0.0
  0
POINT
  5
103A2
330
10234
100
AcDbEntity
  8
Defpoints
  6
Continuous
 62
     0
440
 16777216
100
AcDbPoint
 10
0.0312499999999997
 20
7.256420265064646
 30
0.0
  0
POINT
  5
103A3
330
10234
100
AcDbEntity
  8
Defpoints
  6
Continuous
 62
     0
440
 16777216
100
AcDbPoint
 10
0.0312499999999996
 20
7.059680083123677
 30
0.0
  0
ENDBLK
  5
10236
330
10234
100
AcDbEntity
  8
0
100
AcDbBlockEnd
  0
ENDSEC
  0
SECTION
  2
ENTITIES
  0
LWPOLYLINE
  5
100
330
1F
100
AcDbEntity
  8
0
100
AcDbPolyline
 90
        6
 70
     1
 43
0.0
 10
1.495170819529725
 20
5.668945279201755
 10
1.588920819529726
 20
5.506565515992172
 10
1.495170819529725
 20
5.344185752782595
 10
1.307670819529725
 20
5.344185752782595
 10
1.213920819529726
 20
5.506565515992172
 10
1.307670819529725
 20
5.668945279201755
  0
LWPOLYLINE
  5
101
330
1F
100
AcDbEntity
  8
0
100
AcDbPolyline
 90
        6
 70
     1
 43
0.0
 10
1.307670819529725
 20
5.168945279201754
 10
1.495170819529725
 20
5.168945279201754
 10
1.588920819529726
 20
5.006565515992175
 10
1.495170819529725
 20
4.844185752782594
 10
1.307670819529725
 20
4.844185752782594
 10
1.213920819529726
 20
5.006565515992175
  0
LWPOLYLINE
  5
102
330
1F
100
AcDbEntity
  8
0
100
AcDbPolyline
 90
        6
 70
     1
 43
0.0
 10
1.307670819529725
 20
5.844185752782594
 10
1.213920819529726
 20
6.006565515992175
 10
1.307670819529725
 20
6.168945279201753
 10
1.495170819529725
 20
6.168945279201753
 10
1.588920819529726
 20
6.006565515992175
 10
1.495170819529725
 20
5.844185752782594
  0
CIRCLE
  5
103
330
1F
100
AcDbEntity
  8
0
100
AcDbCircle
 10
6.172051442127216
 20
3.015501442127221
 30
0.0
 40
0.069
  0
LWPOLYLINE
  5
104
330
1F
100
AcDbEntity
  8
0
100
AcDbPolyline
 90
        6
 70
     1
 43
0.0
 10
1.213920819529726
 20
6.506565515992172
 10
1.307670819529725
 20
6.668945279201755
 10
1.495170819529725
 20
6.668945279201755
 10
1.588920819529726
 20
6.506565515992172
 10
1.495170819529725
 20
6.344185752782594
 10
1.307670819529725
 20
6.344185752782594
  0
LWPOLYLINE
  5
105
330
1F
100
AcDbEntity
  8
0
100
AcDbPolyline
 90
        6
 70
     1
 43
0.0
 10
1.062074289451345
 20
4.918800028274223
 10
1.155824289451346
 20
4.756420265064646
 10
1.062074289451345
 20
4.594040501855063
 10
0.8745742894513449
 20
4.594040501855063
 10
0.7808242894513464
 20
4.756420265064646
 10
0.8745742894513449
 20
4.918800028274223
  0
LWPOLYLINE
  5
106
330
1F
100
AcDbEntity
  8
0
100
AcDbPolyline
 90
        6
 70
     1
 43
0.0
 10
1.213920819529726
 20
3.506565515992173
 10
1.307670819529725
 20
3.668945279201751
 10
1.495170819529725
 20
3.668945279201751
 10
1.588920819529726
 20
3.506565515992173
 10
1.495170819529725
 20
3.344185752782593
 10
1.307670819529725
 20
3.344185752782593
  0
LWPOLYLINE
  5
107
330
1F
100
AcDbEntity
  8
0
100
AcDbPolyline
 90
        6
 70
     1
 43
0.0
 10
0.7808242894513464
 20
7.756420265064645
 10
0.8745742894513449
 20
7.918800028274225
 10
1.062074289451345
 20
7.918800028274225
 10
1.155824289451346
 20
7.756420265064645
 10
1.062074289451345
 20
7.594040501855062
 10
0.8745742894513449
 20
7.594040501855062
  0
LWPOLYLINE
  5
108
330
1F
100
AcDbEntity
  8
0
100
AcDbPolyline
 90
        6
 70
     1
 43
0.0
 10
2.080113879686475
 20
6.506856017847234
 10
2.173863879686476
 20
6.669235781056815
 10
2.361363879686476
 20
6.669235781056815
 10
2.455113879686475
 20
6.506856017847234
 10
2.361363879686476
 20
6.344476254637652
 10
2.173863879686476
 20
6.344476254637652
  0
LWPOLYLINE
  5
109
330
1F
100
AcDbEntity
  8
0
100
AcDbPolyline
 90
        6
 70
     1
 43
0.0
 10
2.361363879686476
 20
6.844476254637652
 10
2.173863879686476
 20
6.844476254637652
 10
2.080113879686475
 20
7.006856017847236
 10
2.173863879686476
 20
7.169235781056813
 10
2.361363879686476
 20
7.169235781056813
 10
2.455113879686475
 20
7.006856017847236
  0
LWPOLYLINE
  5
110
330
1F
100
AcDbEntity
  8
0
100
AcDbPolyline
 90
        6
 70
     1
 43
0.0
 10
1.213920819529726
 20
7.006565515992173
 10
1.307670819529725
 20
7.168945279201756
 10
1.495170819529725
 20
7.168945279201756
 10
1.588920819529726
 20
7.006565515992173
 10
1.495170819529725
 20
6.844185752782593
 10
1.307670819529725
 20
6.844185752782593
  0
LWPOLYLINE
  5
111
330
1F
100
AcDbEntity
  8
0
100
AcDbPolyline
 90
        6
 70
     1
 43
0.0
 10
0.8745742894513449
 20
5.418800028274225
 10
1.062074289451345
 20
5.418800028274225
 10
1.155824289451346
 20
5.256420265064645
 10
1.062074289451345
 20
5.094040501855064
 10
0.8745742894513449
 20
5.094040501855064
 10
0.7808242894513464
 20
5.256420265064645
  0
LWPOLYLINE
  5
112
330
1F
100
AcDbEntity
  8
0
100
AcDbPolyline
 90
        6
 70
     1
 43
0.0
 10
1.928267349608105
 20
4.094331003710121
 10
1.740767349608105
 20
4.094331003710121
 10
1.647017349608106
 20
4.256710766919705
 10
1.740767349608105
 20
4.419090530129281
 10
1.928267349608105
 20
4.419090530129281
 10
2.022017349608106
 20
4.256710766919705
  0
LWPOLYLINE
  5
113
330
1F
100
AcDbEntity
  8
0
100
AcDbPolyline
 90
        6
 70
     1
 43
0.0
 10
2.455113879686475
 20
4.006856017847234
 10
2.361363879686476
 20
3.844476254637655
 10
2.173863879686476
 20
3.844476254637655
 10
2.080113879686475
 20
4.006856017847234
 10
2.173863879686476
 20
4.169235781056815
 10
2.361363879686476
 20
4.169235781056815
  0
LWPOLYLINE
  5
114
330
1F
100
AcDbEntity
  8
0
100
AcDbPolyline
 90
        6
 70
     1
 43
0.0
 10
1.062074289451345
 20
2.918800028274224
 10
1.155824289451346
 20
2.756420265064644
 10
1.062074289451345
 20
2.594040501855064
 10
0.8745742894513449
 20
2.594040501855064
 10
0.7808242894513464
 20
2.756420265064644
 10
0.8745742894513449
 20
2.918800028274224
  0
LWPOLYLINE
  5
115
330
1F
100
AcDbEntity
  8
0
100
AcDbPolyline
 90
        6
 70
     1
 43
0.0
 10
1.495170819529725
 20
8.16894527920175
 10
1.588920819529726
 20
8.00656551599217
 10
1.495170819529725
 20
7.844185752782594
 10
1.307670819529725
 20
7.844185752782594
 10
1.213920819529726
 20
8.00656551599217
 10
1.307670819529725
 20
8.16894527920175
  0
LWPOLYLINE
  5
116
330
1F
100
AcDbEntity
  8
0
100
AcDbPolyline
 90
        6
 70
     1
 43
0.0
 10
1.740767349608105
 20
8.419090530129283
 10
1.928267349608105
 20
8.419090530129283
 10
2.022017349608106
 20
8.256710766919704
 10
1.928267349608105
 20
8.094331003710125
 10
1.740767349608105
 20
8.094331003710125
 10
1.647017349608106
 20
8.256710766919704
  0
LWPOLYLINE
  5
117
330
1F
100
AcDbEntity
  8
0
100
AcDbPolyline
 90
        6
 70
     1
 43
0.0
 10
2.361363879686476
 20
5.344476254637652
 10
2.173863879686476
 20
5.344476254637652
 10
2.080113879686475
 20
5.506856017847235
 10
2.173863879686476
 20
5.669235781056812
 10
2.361363879686476
 20
5.669235781056812
 10
2.455113879686475
 20
5.506856017847235
  0
LWPOLYLINE
  5
118
330
1F
100
AcDbEntity
  8
0
100
AcDbPolyline
 90
        6
 70
     1
 43
0.0
 10
0.8745742894513449
 20
7.418800028274223
 10
1.062074289451345
 20
7.418800028274223
 10
1.155824289451346
 20
7.256420265064646
 10
1.062074289451345
 20
7.094040501855063
 10
0.8745742894513449
 20
7.094040501855063
 10
0.7808242894513464
 20
7.256420265064646
  0
LWPOLYLINE
  5
119
330
1F
100
AcDbEntity
  8
0
100
AcDbPolyline
 90
        6
 70
     1
 43
0.0
 10
1.062074289451345
 20
4.094040501855062
 10
0.8745742894513449
 20
4.094040501855062
 10
0.7808242894513464
 20
4.256420265064645
 10
0.8745742894513449
 20
4.418800028274225
 10
1.062074289451345
 20
4.418800028274225
 10
1.155824289451346
 20
4.256420265064645
  0
LWPOLYLINE
  5
120
330
1F
100
AcDbEntity
  8
0
100
AcDbPolyline
 90
        6
 70
     1
 43
0.0
 10
1.307670819529725
 20
4.668945279201755
 10
1.495170819529725
 20
4.668945279201755
 10
1.588920819529726
 20
4.506565515992173
 10
1.495170819529725
 20
4.344185752782595
 10
1.307670819529725
 20
4.344185752782595
 10
1.213920819529726
 20
4.506565515992173
  0
LWPOLYLINE
  5
121
330
1F
100
AcDbEntity
  8
0
100
AcDbPolyline
 90
        6
 70
     1
 43
0.0
 10
1.588920819529726
 20
4.006565515992171
 10
1.495170819529725
 20
3.844185752782594
 10
1.307670819529725
 20
3.844185752782594
 10
1.213920819529726
 20
4.006565515992171
 10
1.307670819529725
 20
4.168945279201754
 10
1.495170819529725
 20
4.168945279201754
  0
LWPOLYLINE
  5
122
330
1F
100
AcDbEntity
  8
0
100
AcDbPolyline
 90
        8
 70
     1
 43
0.0
 10
0.03125
 20
1.093750000000001
 10
0.0312499999999996
 20
8.905750000000006
 10
7.968749999999996
 20
8.905750000000006
 10
7.968749999999996
 20
1.093750000000001
 10
6.499999999999996
 20
1.093750000000001
 10
4.811999999999996
 20
1.093750000000001
 10
3.187999999999997
 20
1.093750000000001
 10
1.499999999999997
 20
1.093750000000001
  0
LWPOLYLINE
  5
123
330
1F
100
AcDbEntity
  8
0
100
AcDbPolyline
 90
        6
 70
     1
 43
0.0
 10
2.173863879686476
 20
4.344476254637652
 10
2.080113879686475
 20
4.506856017847235
 10
2.173863879686476
 20
4.669235781056813
 10
2.361363879686476
 20
4.669235781056813
 10
2.455113879686475
 20
4.506856017847235
 10
2.361363879686476
 20
4.344476254637652
  0
LWPOLYLINE
  5
124
330
1F
100
AcDbEntity
  8
0
100
AcDbPolyline
 90
        6
 70
     1
 43
0.0
 10
1.928267349608105
 20
3.919090530129284
 10
2.022017349608106
 20
3.756710766919704
 10
1.928267349608105
 20
3.594331003710126
 10
1.740767349608105
 20
3.594331003710126
 10
1.647017349608106
 20
3.756710766919704
 10
1.740767349608105
 20
3.919090530129284
  0
CIRCLE
  5
125
330
1F
100
AcDbEntity
  8
0
100
AcDbCircle
 10
3.999999999999996
 20
2.343750000000002
 30
0.0
 40
0.6999999999999999
  0
LWPOLYLINE
  5
126
330
1F
100
AcDbEntity
  8
0
100
AcDbPolyline
 90
        6
 70
     1
 43
0.0
 10
2.606960409764856
 20
3.919381031984345
 10
2.794460409764856
 20
3.919381031984345
 10
2.888210409764856
 20
3.757001268774764
 10
2.794460409764856
 20
3.594621505565172
 10
2.606960409764856
 20
3.594621505565172
 10
2.513210409764855
 20
3.757001268774764
  0
LWPOLYLINE
  5
127
330
1F
100
AcDbEntity
  8
0
100
AcDbPolyline
 90
        6
 70
     1
 43
0.0
 10
2.022017349608106
 20
6.756710766919702
 10
1.928267349608105
 20
6.594331003710121
 10
1.740767349608105
 20
6.594331003710121
 10
1.647017349608106
 20
6.756710766919702
 10
1.740767349608105
 20
6.919090530129283
 10
1.928267349608105
 20
6.919090530129283
  0
LWPOLYLINE
  5
128
330
1F
100
AcDbEntity
  8
0
100
AcDbPolyline
 90
        6
 70
     1
 43
0.0
 10
1.928267349608105
 20
6.419090530129281
 10
2.022017349608106
 20
6.256710766919704
 10
1.928267349608105
 20
6.094331003710121
 10
1.740767349608105
 20
6.094331003710121
 10
1.647017349608106
 20
6.256710766919704
 10
1.740767349608105
 20
6.419090530129281
  0
LWPOLYLINE
  5
129
330
1F
100
AcDbEntity
  8
0
100
AcDbPolyline
 90
        6
 70
     1
 43
0.0
 10
1.928267349608105
 20
4.59433100371012
 10
1.740767349608105
 20
4.59433100371012
 10
1.647017349608106
 20
4.756710766919703
 10
1.740767349608105
 20
4.919090530129284
 10
1.928267349608105
 20
4.919090530129284
 10
2.022017349608106
 20
4.756710766919703
  0
LWPOLYLINE
  5
130
330
1F
100
AcDbEntity
  8
0
100
AcDbPolyline
 90
        6
 70
     1
 43
0.0
 10
0.7808242894513464
 20
6.756420265064646
 10
0.8745742894513449
 20
6.918800028274223
 10
1.062074289451345
 20
6.918800028274223
 10
1.155824289451346
 20
6.756420265064646
 10
1.062074289451345
 20
6.594040501855062
 10
0.8745742894513449
 20
6.594040501855062
  0
LWPOLYLINE
  5
131
330
1F
100
AcDbEntity
  8
0
100
AcDbPolyline
 90
        6
 70
     1
 43
0.0
 10
2.455113879686475
 20
6.006856017847233
 10
2.361363879686476
 20
5.844476254637652
 10
2.173863879686476
 20
5.844476254637652
 10
2.080113879686475
 20
6.006856017847233
 10
2.173863879686476
 20
6.169235781056814
 10
2.361363879686476
 20
6.169235781056814
  0
LWPOLYLINE
  5
132
330
1F
100
AcDbEntity
  8
0
100
AcDbPolyline
 90
        6
 70
     1
 43
0.0
 10
1.928267349608105
 20
5.419090530129281
 10
2.022017349608106
 20
5.256710766919704
 10
1.928267349608105
 20
5.094331003710121
 10
1.740767349608105
 20
5.094331003710121
 10
1.647017349608106
 20
5.256710766919704
 10
1.740767349608105
 20
5.419090530129281
  0
LWPOLYLINE
  5
133
330
1F
100
AcDbEntity
  8
0
100
AcDbPolyline
 90
        6
 70
     1
 43
0.0
 10
1.062074289451345
 20
3.918800028274223
 10
1.155824289451346
 20
3.756420265064646
 10
1.062074289451345
 20
3.594040501855064
 10
0.8745742894513449
 20
3.594040501855064
 10
0.7808242894513464
 20
3.756420265064646
 10
0.8745742894513449
 20
3.918800028274223
  0
LWPOLYLINE
  5
134
330
1F
100
AcDbEntity
  8
0
100
AcDbPolyline
 90
        6
 70
     1
 43
0.0
 10
1.062074289451345
 20
6.094040501855064
 10
0.8745742894513449
 20
6.094040501855064
 10
0.7808242894513464
 20
6.256420265064644
 10
0.8745742894513449
 20
6.418800028274224
 10
1.062074289451345
 20
6.418800028274224
 10
1.155824289451346
 20
6.256420265064644
  0
LWPOLYLINE
  5
135
330
1F
100
AcDbEntity
  8
0
100
AcDbPolyline
 90
        6
 70
     1
 43
0.0
 10
1.647017349608106
 20
5.756710766919703
 10
1.740767349608105
 20
5.919090530129283
 10
1.928267349608105
 20
5.919090530129283
 10
2.022017349608106
 20
5.756710766919703
 10
1.928267349608105
 20
5.594331003710123
 10
1.740767349608105
 20
5.594331003710123
  0
CIRCLE
  5
136
330
1F
100
AcDbEntity
  8
0
100
AcDbCircle
 10
1.827948557872777
 20
1.671998557872786
 30
0.0
 40
0.069
  0
LWPOLYLINE
  5
137
330
1F
100
AcDbEntity
  8
0
100
AcDbPolyline
 90
        6
 70
     1
 43
0.0
 10
1.213920819529726
 20
7.506565515992172
 10
1.307670819529725
 20
7.668945279201752
 10
1.495170819529725
 20
7.668945279201752
 10
1.588920819529726
 20
7.506565515992172
 10
1.495170819529725
 20
7.344185752782594
 10
1.307670819529725
 20
7.344185752782594
  0
LWPOLYLINE
  5
138
330
1F
100
AcDbEntity
  8
0
100
AcDbPolyline
 90
        6
 70
     1
 43
0.0
 10
1.062074289451345
 20
5.918800028274223
 10
1.155824289451346
 20
5.756420265064646
 10
1.062074289451345
 20
5.594040501855063
 10
0.8745742894513449
 20
5.594040501855063
 10
0.7808242894513464
 20
5.756420265064646
 10
0.8745742894513449
 20
5.918800028274223
  0
LWPOLYLINE
  5
139
330
1F
100
AcDbEntity
  8
0
100
AcDbPolyline
 90
        6
 70
     1
 43
0.0
 10
2.080113879686475
 20
5.006856017847234
 10
2.173863879686476
 20
5.169235781056814
 10
2.361363879686476
 20
5.169235781056814
 10
2.455113879686475
 20
5.006856017847234
 10
2.361363879686476
 20
4.844476254637654
 10
2.173863879686476
 20
4.844476254637654
  0
LWPOLYLINE
  5
140
330
1F
100
AcDbEntity
  8
0
100
AcDbPolyline
 90
        6
 70
     1
 43
0.0
 10
1.155824289451346
 20
3.256420265064646
 10
1.062074289451345
 20
3.094040501855062
 10
0.8745742894513449
 20
3.094040501855062
 10
0.7808242894513464
 20
3.256420265064646
 10
0.8745742894513449
 20
3.418800028274223
 10
1.062074289451345
 20
3.418800028274223
  0
LWPOLYLINE
  5
141
330
1F
100
AcDbEntity
  8
0
100
AcDbPolyline
 90
        6
 70
     1
 43
0.0
 10
2.173863879686476
 20
7.669235781056808
 10
2.361363879686476
 20
7.669235781056808
 10
2.455113879686475
 20
7.506856017847234
 10
2.361363879686476
 20
7.344476254637651
 10
2.173863879686476
 20
7.344476254637651
 10
2.080113879686475
 20
7.506856017847234
  0
LWPOLYLINE
  5
142
330
1F
100
AcDbEntity
  8
0
100
AcDbPolyline
 90
        6
 70
     1
 43
0.0
 10
1.928267349608105
 20
7.594331003710124
 10
1.740767349608105
 20
7.594331003710124
 10
1.647017349608106
 20
7.756710766919705
 10
1.740767349608105
 20
7.919090530129281
 10
1.928267349608105
 20
7.919090530129281
 10
2.022017349608106
 20
7.756710766919705
  0
LWPOLYLINE
  5
143
330
1F
100
AcDbEntity
  8
0
100
AcDbPolyline
 90
        6
 70
     1
 43
0.0
 10
2.455113879686475
 20
8.006856017847235
 10
2.361363879686476
 20
7.844476254637651
 10
2.173863879686476
 20
7.844476254637651
 10
2.080113879686475
 20
8.006856017847235
 10
2.173863879686476
 20
8.169235781056809
 10
2.361363879686476
 20
8.169235781056809
  0
CIRCLE
  5
144
330
1F
100
AcDbEntity
  8
0
100
AcDbCircle
 10
2.453999999999996
 20
2.343750000000002
 30
0.0
 40
0.6999999999999999
  0
CIRCLE
  5
145
330
1F
100
AcDbEntity
  8
0
100
AcDbCircle
 10
1.827948557872777
 20
3.015501442127221
 30
0.0
 40
0.069
  0
CIRCLE
  5
146
330
1F
100
AcDbEntity
  8
0
100
AcDbCircle
 10
5.545999999999994
 20
2.343750000000002
 30
0.0
 40
0.6999999999999999
  0
LWPOLYLINE
  5
147
330
1F
100
AcDbEntity
  8
0
100
AcDbPolyline
 90
        6
 70
     1
 43
0.0
 10
1.740767349608105
 20
7.094331003710121
 10
1.647017349608106
 20
7.256710766919703
 10
1.740767349608105
 20
7.419090530129281
 10
1.928267349608105
 20
7.419090530129281
 10
2.022017349608106
 20
7.256710766919703
 10
1.928267349608105
 20
7.094331003710121
  0
CIRCLE
  5
148
330
1F
100
AcDbEntity
  8
0
100
AcDbCircle
 10
6.172051442127216
 20
1.671998557872786
 30
0.0
 40
0.069
  0
LWPOLYLINE
  5
149
330
1F
100
AcDbEntity
  8
0
100
AcDbPolyline
 90
        6
 70
     1
 43
0.0
 10
2.606960409764856
 20
4.094621505565173
 10
2.513210409764855
 20
4.257001268774761
 10
2.606960409764856
 20
4.419381031984345
 10
2.794460409764856
 20
4.419381031984345
 10
2.888210409764856
 20
4.257001268774761
 10
2.794460409764856
 20
4.094621505565173
  0
LWPOLYLINE
  5
150
330
1F
100
AcDbEntity
  8
0
100
AcDbPolyline
 90
        6
 70
     1
 43
0.0
 10
2.888210409764856
 20
5.757001268774763
 10
2.794460409764856
 20
5.594621505565175
 10
2.606960409764856
 20
5.594621505565175
 10
2.513210409764855
 20
5.757001268774763
 10
2.606960409764856
 20
5.919381031984345
 10
2.794460409764856
 20
5.919381031984345
  0
LWPOLYLINE
  5
151
330
1F
100
AcDbEntity
  8
0
100
AcDbPolyline
 90
        6
 70
     1
 43
0.0
 10
2.794460409764856
 20
5.419381031984345
 10
2.888210409764856
 20
5.257001268774761
 10
2.794460409764856
 20
5.094621505565173
 10
2.606960409764856
 20
5.094621505565173
 10
2.513210409764855
 20
5.257001268774761
 10
2.606960409764856
 20
5.419381031984345
  0
LWPOLYLINE
  5
152
330
1F
100
AcDbEntity
  8
0
100
AcDbPolyline
 90
        6
 70
     1
 43
0.0
 10
3.227556939843236
 20
6.169526282911871
 10
3.321306939843235
 20
6.00714651970228
 10
3.227556939843236
 20
5.844766756492705
 10
3.040056939843236
 20
5.844766756492705
 10
2.946306939843235
 20
6.00714651970228
 10
3.040056939843236
 20
6.169526282911871
  0
LWPOLYLINE
  5
153
330
1F
100
AcDbEntity
  8
0
100
AcDbPolyline
 90
        6
 70
     1
 43
0.0
 10
4.093749999999996
 20
6.169816784766934
 10
4.187499999999995
 20
6.00743702155735
 10
4.093749999999996
 20
5.845057258347762
 10
3.906249999999996
 20
5.845057258347762
 10
3.812499999999998
 20
6.00743702155735
 10
3.906249999999996
 20
6.169816784766934
  0
LWPOLYLINE
  5
154
330
1F
100
AcDbEntity
  8
0
100
AcDbPolyline
 90
        6
 70
     1
 43
0.0
 10
3.812499999999998
 20
6.507437021557352
 10
3.906249999999996
 20
6.669816784766934
 10
4.093749999999996
 20
6.669816784766934
 10
4.187499999999995
 20
6.507437021557352
 10
4.093749999999996
 20
6.345057258347763
 10
3.906249999999996
 20
6.345057258347763
  0
LWPOLYLINE
  5
155
330
1F
100
AcDbEntity
  8
0
100
AcDbPolyline
 90
        6
 70
     1
 43
0.0
 10
3.812499999999998
 20
7.007437021557353
 10
3.906249999999996
 20
7.169816784766934
 10
4.093749999999996
 20
7.169816784766934
 10
4.187499999999995
 20
7.007437021557353
 10
4.093749999999996
 20
6.845057258347762
 10
3.906249999999996
 20
6.845057258347762
  0
LWPOLYLINE
  5
156
330
1F
100
AcDbEntity
  8
0
100
AcDbPolyline
 90
        6
 70
     1
 43
0.0
 10
3.812499999999998
 20
7.50743702155735
 10
3.906249999999996
 20
7.669816784766934
 10
4.093749999999996
 20
7.669816784766934
 10
4.187499999999995
 20
7.50743702155735
 10
4.093749999999996
 20
7.345057258347763
 10
3.906249999999996
 20
7.345057258347763
  0
LWPOLYLINE
  5
157
330
1F
100
AcDbEntity
  8
0
100
AcDbPolyline
 90
        6
 70
     1
 43
0.0
 10
3.812499999999998
 20
8.007437021557352
 10
3.906249999999996
 20
8.169816784766933
 10
4.093749999999996
 20
8.169816784766933
 10
4.187499999999995
 20
8.007437021557352
 10
4.093749999999996
 20
7.845057258347759
 10
3.906249999999996
 20
7.845057258347759
  0
LWPOLYLINE
  5
158
330
1F
100
AcDbEntity
  8
0
100
AcDbPolyline
 90
        6
 70
     1
 43
0.0
 10
4.245596530078377
 20
3.757582272484872
 10
4.339346530078376
 20
3.919962035694461
 10
4.526846530078376
 20
3.919962035694461
 10
4.620596530078375
 20
3.757582272484872
 10
4.526846530078376
 20
3.595202509275296
 10
4.339346530078376
 20
3.595202509275296
  0
LWPOLYLINE
  5
159
330
1F
100
AcDbEntity
  8
0
100
AcDbPolyline
 90
        6
 70
     1
 43
0.0
 10
4.245596530078377
 20
4.257582272484873
 10
4.339346530078376
 20
4.419962035694462
 10
4.526846530078376
 20
4.419962035694462
 10
4.620596530078375
 20
4.257582272484873
 10
4.526846530078376
 20
4.095202509275293
 10
4.339346530078376
 20
4.095202509275293
  0
LWPOLYLINE
  5
160
330
1F
100
AcDbEntity
  8
0
100
AcDbPolyline
 90
        6
 70
     1
 43
0.0
 10
4.245596530078377
 20
4.757582272484872
 10
4.339346530078376
 20
4.91996203569446
 10
4.526846530078376
 20
4.91996203569446
 10
4.620596530078375
 20
4.757582272484872
 10
4.526846530078376
 20
4.595202509275295
 10
4.339346530078376
 20
4.595202509275295
  0
LWPOLYLINE
  5
161
330
1F
100
AcDbEntity
  8
0
100
AcDbPolyline
 90
        6
 70
     1
 43
0.0
 10
4.245596530078377
 20
5.257582272484873
 10
4.339346530078376
 20
5.419962035694462
 10
4.526846530078376
 20
5.419962035694462
 10
4.620596530078375
 20
5.257582272484873
 10
4.526846530078376
 20
5.095202509275293
 10
4.339346530078376
 20
5.095202509275293
  0
LWPOLYLINE
  5
162
330
1F
100
AcDbEntity
  8
0
100
AcDbPolyline
 90
        6
 70
     1
 43
0.0
 10
4.245596530078377
 20
5.757582272484872
 10
4.339346530078376
 20
5.919962035694463
 10
4.526846530078376
 20
5.919962035694463
 10
4.620596530078375
 20
5.757582272484872
 10
4.526846530078376
 20
5.595202509275294
 10
4.339346530078376
 20
5.595202509275294
  0
LWPOLYLINE
  5
163
330
1F
100
AcDbEntity
  8
0
100
AcDbPolyline
 90
        6
 70
     1
 43
0.0
 10
4.245596530078377
 20
6.257582272484873
 10
4.339346530078376
 20
6.419962035694461
 10
4.526846530078376
 20
6.419962035694461
 10
4.620596530078375
 20
6.257582272484873
 10
4.526846530078376
 20
6.095202509275293
 10
4.339346530078376
 20
6.095202509275293
  0
LWPOLYLINE
  5
164
330
1F
100
AcDbEntity
  8
0
100
AcDbPolyline
 90
        6
 70
     1
 43
0.0
 10
4.245596530078377
 20
6.757582272484871
 10
4.339346530078376
 20
6.919962035694463
 10
4.526846530078376
 20
6.919962035694463
 10
4.620596530078375
 20
6.757582272484871
 10
4.526846530078376
 20
6.595202509275294
 10
4.339346530078376
 20
6.595202509275294
  0
LWPOLYLINE
  5
165
330
1F
100
AcDbEntity
  8
0
100
AcDbPolyline
 90
        6
 70
     1
 43
0.0
 10
4.245596530078377
 20
7.257582272484873
 10
4.339346530078376
 20
7.41996203569446
 10
4.526846530078376
 20
7.41996203569446
 10
4.620596530078375
 20
7.257582272484873
 10
4.526846530078376
 20
7.095202509275292
 10
4.339346530078376
 20
7.095202509275292
  0
LWPOLYLINE
  5
166
330
1F
100
AcDbEntity
  8
0
100
AcDbPolyline
 90
        6
 70
     1
 43
0.0
 10
4.245596530078377
 20
7.757582272484873
 10
4.339346530078376
 20
7.919962035694462
 10
4.526846530078376
 20
7.919962035694462
 10
4.620596530078375
 20
7.757582272484873
 10
4.526846530078376
 20
7.595202509275292
 10
4.339346530078376
 20
7.595202509275292
  0
LWPOLYLINE
  5
167
330
1F
100
AcDbEntity
  8
0
100
AcDbPolyline
 90
        6
 70
     1
 43
0.0
 10
4.245596530078377
 20
8.257582272484873
 10
4.339346530078376
 20
8.41996203569446
 10
4.526846530078376
 20
8.41996203569446
 10
4.620596530078375
 20
8.257582272484873
 10
4.526846530078376
 20
8.095202509275294
 10
4.339346530078376
 20
8.095202509275294
  0
LWPOLYLINE
  5
168
330
1F
100
AcDbEntity
  8
0
100
AcDbPolyline
 90
        6
 70
     1
 43
0.0
 10
4.678693060156759
 20
4.007727523412403
 10
4.772443060156756
 20
4.170107286621985
 10
4.959943060156756
 20
4.170107286621985
 10
5.053693060156759
 20
4.007727523412403
 10
4.959943060156756
 20
3.845347760202825
 10
4.772443060156756
 20
3.845347760202825
  0
LWPOLYLINE
  5
169
330
1F
100
AcDbEntity
  8
0
100
AcDbPolyline
 90
        6
 70
     1
 43
0.0
 10
4.678693060156759
 20
4.507727523412405
 10
4.772443060156756
 20
4.670107286621984
 10
4.959943060156756
 20
4.670107286621984
 10
5.053693060156759
 20
4.507727523412405
 10
4.959943060156756
 20
4.345347760202824
 10
4.772443060156756
 20
4.345347760202824
  0
LWPOLYLINE
  5
170
330
1F
100
AcDbEntity
  8
0
100
AcDbPolyline
 90
        6
 70
     1
 43
0.0
 10
4.772443060156756
 20
5.670107286621987
 10
4.959943060156756
 20
5.670107286621987
 10
5.053693060156759
 20
5.507727523412404
 10
4.959943060156756
 20
5.345347760202823
 10
4.772443060156756
 20
5.345347760202823
 10
4.678693060156759
 20
5.507727523412404
  0
LWPOLYLINE
  5
171
330
1F
100
AcDbEntity
  8
0
100
AcDbPolyline
 90
        6
 70
     1
 43
0.0
 10
5.919886120313512
 20
6.50801802526746
 10
5.826136120313514
 20
6.345638262057883
 10
5.638636120313513
 20
6.345638262057883
 10
5.544886120313512
 20
6.50801802526746
 10
5.638636120313513
 20
6.670397788477044
 10
5.826136120313514
 20
6.670397788477044
  0
LWPOLYLINE
  5
172
330
1F
100
AcDbEntity
  8
0
100
AcDbPolyline
 90
        6
 70
     1
 43
0.0
 10
5.393039590235137
 20
4.095493011130353
 10
5.205539590235137
 20
4.095493011130353
 10
5.111789590235138
 20
4.257872774339934
 10
5.205539590235137
 20
4.420252537549513
 10
5.393039590235137
 20
4.420252537549513
 10
5.486789590235138
 20
4.257872774339934
  0
LWPOLYLINE
  5
173
330
1F
100
AcDbEntity
  8
0
100
AcDbPolyline
 90
        6
 70
     1
 43
0.0
 10
5.919886120313512
 20
5.008018025267463
 10
5.826136120313514
 20
4.845638262057883
 10
5.638636120313513
 20
4.845638262057883
 10
5.544886120313512
 20
5.008018025267463
 10
5.638636120313513
 20
5.170397788477045
 10
5.826136120313514
 20
5.170397788477045
  0
LWPOLYLINE
  5
174
330
1F
100
AcDbEntity
  8
0
100
AcDbPolyline
 90
        6
 70
     1
 43
0.0
 10
4.678693060156759
 20
6.007727523412401
 10
4.772443060156756
 20
6.170107286621985
 10
4.959943060156756
 20
6.170107286621985
 10
5.053693060156759
 20
6.007727523412401
 10
4.959943060156756
 20
5.845347760202825
 10
4.772443060156756
 20
5.845347760202825
  0
LWPOLYLINE
  5
175
330
1F
100
AcDbEntity
  8
0
100
AcDbPolyline
 90
        6
 70
     1
 43
0.0
 10
5.544886120313512
 20
5.508018025267461
 10
5.638636120313513
 20
5.670397788477044
 10
5.826136120313514
 20
5.670397788477044
 10
5.919886120313512
 20
5.508018025267461
 10
5.826136120313514
 20
5.345638262057883
 10
5.638636120313513
 20
5.345638262057883
  0
LWPOLYLINE
  5
176
330
1F
100
AcDbEntity
  8
0
100
AcDbPolyline
 90
        6
 70
     1
 43
0.0
 10
4.959943060156756
 20
8.170107286621984
 10
5.053693060156759
 20
8.0077275234124
 10
4.959943060156756
 20
7.845347760202823
 10
4.772443060156756
 20
7.845347760202823
 10
4.678693060156759
 20
8.0077275234124
 10
4.772443060156756
 20
8.170107286621984
  0
LWPOLYLINE
  5
177
330
1F
100
AcDbEntity
  8
0
100
AcDbPolyline
 90
        6
 70
     1
 43
0.0
 10
4.678693060156759
 20
7.007727523412405
 10
4.772443060156756
 20
7.170107286621985
 10
4.959943060156756
 20
7.170107286621985
 10
5.053693060156759
 20
7.007727523412405
 10
4.959943060156756
 20
6.845347760202824
 10
4.772443060156756
 20
6.845347760202824
  0
LWPOLYLINE
  5
178
330
1F
100
AcDbEntity
  8
0
100
AcDbPolyline
 90
        6
 70
     1
 43
0.0
 10
5.919886120313512
 20
4.008018025267464
 10
5.826136120313514
 20
3.845638262057883
 10
5.638636120313513
 20
3.845638262057883
 10
5.544886120313512
 20
4.008018025267464
 10
5.638636120313513
 20
4.170397788477044
 10
5.826136120313514
 20
4.170397788477044
  0
LWPOLYLINE
  5
179
330
1F
100
AcDbEntity
  8
0
100
AcDbPolyline
 90
        6
 70
     1
 43
0.0
 10
5.205539590235137
 20
7.095493011130352
 10
5.111789590235138
 20
7.257872774339934
 10
5.205539590235137
 20
7.420252537549512
 10
5.393039590235137
 20
7.420252537549512
 10
5.486789590235138
 20
7.257872774339934
 10
5.393039590235137
 20
7.095493011130352
  0
LWPOLYLINE
  5
180
330
1F
100
AcDbEntity
  8
0
100
AcDbPolyline
 90
        6
 70
     1
 43
0.0
 10
5.393039590235137
 20
6.095493011130352
 10
5.205539590235137
 20
6.095493011130352
 10
5.111789590235138
 20
6.257872774339936
 10
5.205539590235137
 20
6.420252537549513
 10
5.393039590235137
 20
6.420252537549513
 10
5.486789590235138
 20
6.257872774339936
  0
LWPOLYLINE
  5
181
330
1F
100
AcDbEntity
  8
0
100
AcDbPolyline
 90
        6
 70
     1
 43
0.0
 10
4.678693060156759
 20
6.507727523412404
 10
4.772443060156756
 20
6.670107286621987
 10
4.959943060156756
 20
6.670107286621987
 10
5.053693060156759
 20
6.507727523412404
 10
4.959943060156756
 20
6.345347760202825
 10
4.772443060156756
 20
6.345347760202825
  0
LWPOLYLINE
  5
182
330
1F
100
AcDbEntity
  8
0
100
AcDbPolyline
 90
        6
 70
     1
 43
0.0
 10
5.393039590235137
 20
8.095493011130352
 10
5.205539590235137
 20
8.095493011130352
 10
5.111789590235138
 20
8.257872774339935
 10
5.205539590235137
 20
8.420252537549512
 10
5.393039590235137
 20
8.420252537549512
 10
5.486789590235138
 20
8.257872774339935
  0
LWPOLYLINE
  5
183
330
1F
100
AcDbEntity
  8
0
100
AcDbPolyline
 90
        6
 70
     1
 43
0.0
 10
5.393039590235137
 20
6.920252537549514
 10
5.486789590235138
 20
6.757872774339934
 10
5.393039590235137
 20
6.595493011130351
 10
5.205539590235137
 20
6.595493011130351
 10
5.111789590235138
 20
6.757872774339934
 10
5.205539590235137
 20
6.920252537549514
  0
LWPOLYLINE
  5
184
330
1F
100
AcDbEntity
  8
0
100
AcDbPolyline
 90
        6
 70
     1
 43
0.0
 10
6.411079180470275
 20
7.008308527122524
 10
6.504829180470273
 20
7.170688290332103
 10
6.692329180470276
 20
7.170688290332103
 10
6.786079180470279
 20
7.008308527122524
 10
6.692329180470276
 20
6.845928763912941
 10
6.504829180470273
 20
6.845928763912941
  0
LWPOLYLINE
  5
185
330
1F
100
AcDbEntity
  8
0
100
AcDbPolyline
 90
        6
 70
     1
 43
0.0
 10
6.692329180470276
 20
5.845928763912943
 10
6.504829180470273
 20
5.845928763912943
 10
6.411079180470275
 20
6.008308527122525
 10
6.504829180470273
 20
6.170688290332103
 10
6.692329180470276
 20
6.170688290332103
 10
6.786079180470279
 20
6.008308527122525
  0
LWPOLYLINE
  5
186
330
1F
100
AcDbEntity
  8
0
100
AcDbPolyline
 90
        6
 70
     1
 43
0.0
 10
6.411079180470275
 20
6.508308527122523
 10
6.504829180470273
 20
6.670688290332104
 10
6.692329180470276
 20
6.670688290332104
 10
6.786079180470279
 20
6.508308527122523
 10
6.692329180470276
 20
6.345928763912944
 10
6.504829180470273
 20
6.345928763912944
  0
LWPOLYLINE
  5
187
330
1F
100
AcDbEntity
  8
0
100
AcDbPolyline
 90
        6
 70
     1
 43
0.0
 10
5.826136120313514
 20
4.670397788477044
 10
5.919886120313512
 20
4.508018025267461
 10
5.826136120313514
 20
4.345638262057884
 10
5.638636120313513
 20
4.345638262057884
 10
5.544886120313512
 20
4.508018025267461
 10
5.638636120313513
 20
4.670397788477044
  0
LWPOLYLINE
  5
188
330
1F
100
AcDbEntity
  8
0
100
AcDbPolyline
 90
        6
 70
     1
 43
0.0
 10
6.504829180470273
 20
3.845928763912943
 10
6.411079180470275
 20
4.008308527122523
 10
6.504829180470273
 20
4.170688290332104
 10
6.692329180470276
 20
4.170688290332104
 10
6.786079180470279
 20
4.008308527122523
 10
6.692329180470276
 20
3.845928763912943
  0
LWPOLYLINE
  5
189
330
1F
100
AcDbEntity
  8
0
100
AcDbPolyline
 90
        6
 70
     1
 43
0.0
 10
6.411079180470275
 20
4.508308527122524
 10
6.504829180470273
 20
4.670688290332101
 10
6.692329180470276
 20
4.670688290332101
 10
6.786079180470279
 20
4.508308527122524
 10
6.692329180470276
 20
4.345928763912941
 10
6.504829180470273
 20
4.345928763912941
  0
LWPOLYLINE
  5
190
330
1F
100
AcDbEntity
  8
0
100
AcDbPolyline
 90
        6
 70
     1
 43
0.0
 10
5.053693060156759
 20
7.507727523412403
 10
4.959943060156756
 20
7.345347760202825
 10
4.772443060156756
 20
7.345347760202825
 10
4.678693060156759
 20
7.507727523412403
 10
4.772443060156756
 20
7.670107286621985
 10
4.959943060156756
 20
7.670107286621985
  0
LWPOLYLINE
  5
191
330
1F
100
AcDbEntity
  8
0
100
AcDbPolyline
 90
        6
 70
     1
 43
0.0
 10
5.205539590235137
 20
3.595493011130352
 10
5.111789590235138
 20
3.757872774339936
 10
5.205539590235137
 20
3.920252537549512
 10
5.393039590235137
 20
3.920252537549512
 10
5.486789590235138
 20
3.757872774339936
 10
5.393039590235137
 20
3.595493011130352
  0
LWPOLYLINE
  5
192
330
1F
100
AcDbEntity
  8
0
100
AcDbPolyline
 90
        6
 70
     1
 43
0.0
 10
6.504829180470273
 20
5.170688290332104
 10
6.692329180470276
 20
5.170688290332104
 10
6.786079180470279
 20
5.008308527122525
 10
6.692329180470276
 20
4.845928763912943
 10
6.504829180470273
 20
4.845928763912943
 10
6.411079180470275
 20
5.008308527122525
  0
LWPOLYLINE
  5
193
330
1F
100
AcDbEntity
  8
0
100
AcDbPolyline
 90
        6
 70
     1
 43
0.0
 10
6.411079180470275
 20
5.508308527122523
 10
6.504829180470273
 20
5.670688290332104
 10
6.692329180470276
 20
5.670688290332104
 10
6.786079180470279
 20
5.508308527122523
 10
6.692329180470276
 20
5.345928763912941
 10
6.504829180470273
 20
5.345928763912941
  0
LWPOLYLINE
  5
194
330
1F
100
AcDbEntity
  8
0
100
AcDbPolyline
 90
        6
 70
     1
 43
0.0
 10
6.937925710548655
 20
2.596074014840461
 10
6.844175710548656
 20
2.758453778050041
 10
6.937925710548655
 20
2.920833541259633
 10
7.125425710548655
 20
2.920833541259633
 10
7.219175710548654
 20
2.758453778050041
 10
7.125425710548655
 20
2.596074014840461
  0
LWPOLYLINE
  5
195
330
1F
100
AcDbEntity
  8
0
100
AcDbPolyline
 90
        6
 70
     1
 43
0.0
 10
6.411079180470275
 20
8.008308527122524
 10
6.504829180470273
 20
8.170688290332101
 10
6.692329180470276
 20
8.170688290332101
 10
6.786079180470279
 20
8.008308527122524
 10
6.692329180470276
 20
7.84592876391294
 10
6.504829180470273
 20
7.84592876391294
  0
LWPOLYLINE
  5
196
330
1F
100
AcDbEntity
  8
0
100
AcDbPolyline
 90
        6
 70
     1
 43
0.0
 10
5.205539590235137
 20
5.920252537549512
 10
5.393039590235137
 20
5.920252537549512
 10
5.486789590235138
 20
5.757872774339935
 10
5.393039590235137
 20
5.595493011130352
 10
5.205539590235137
 20
5.595493011130352
 10
5.111789590235138
 20
5.757872774339935
  0
LWPOLYLINE
  5
197
330
1F
100
AcDbEntity
  8
0
100
AcDbPolyline
 90
        6
 70
     1
 43
0.0
 10
5.826136120313514
 20
5.845638262057881
 10
5.638636120313513
 20
5.845638262057881
 10
5.544886120313512
 20
6.008018025267463
 10
5.638636120313513
 20
6.170397788477045
 10
5.826136120313514
 20
6.170397788477045
 10
5.919886120313512
 20
6.008018025267463
  0
LWPOLYLINE
  5
198
330
1F
100
AcDbEntity
  8
0
100
AcDbPolyline
 90
        6
 70
     1
 43
0.0
 10
6.071732650391896
 20
5.095783512985405
 10
5.977982650391898
 20
5.258163276194993
 10
6.071732650391896
 20
5.420543039404576
 10
6.259232650391896
 20
5.420543039404576
 10
6.352982650391898
 20
5.258163276194993
 10
6.259232650391896
 20
5.095783512985405
  0
LWPOLYLINE
  5
199
330
1F
100
AcDbEntity
  8
0
100
AcDbPolyline
 90
        6
 70
     1
 43
0.0
 10
5.977982650391898
 20
5.758163276194994
 10
6.071732650391896
 20
5.920543039404575
 10
6.259232650391896
 20
5.920543039404575
 10
6.352982650391898
 20
5.758163276194994
 10
6.259232650391896
 20
5.595783512985403
 10
6.071732650391896
 20
5.595783512985403
  0
LWPOLYLINE
  5
200
330
1F
100
AcDbEntity
  8
0
100
AcDbPolyline
 90
        6
 70
     1
 43
0.0
 10
5.544886120313512
 20
7.008018025267461
 10
5.638636120313513
 20
7.170397788477044
 10
5.826136120313514
 20
7.170397788477044
 10
5.919886120313512
 20
7.008018025267461
 10
5.826136120313514
 20
6.845638262057884
 10
5.638636120313513
 20
6.845638262057884
  0
LWPOLYLINE
  5
201
330
1F
100
AcDbEntity
  8
0
100
AcDbPolyline
 90
        6
 70
     1
 43
0.0
 10
5.544886120313512
 20
7.508018025267462
 10
5.638636120313513
 20
7.670397788477043
 10
5.826136120313514
 20
7.670397788477043
 10
5.919886120313512
 20
7.508018025267462
 10
5.826136120313514
 20
7.345638262057883
 10
5.638636120313513
 20
7.345638262057883
  0
LWPOLYLINE
  5
202
330
1F
100
AcDbEntity
  8
0
100
AcDbPolyline
 90
        6
 70
     1
 43
0.0
 10
6.259232650391896
 20
6.595783512985402
 10
6.071732650391896
 20
6.595783512985402
 10
5.977982650391898
 20
6.758163276194994
 10
6.071732650391896
 20
6.920543039404574
 10
6.259232650391896
 20
6.920543039404574
 10
6.352982650391898
 20
6.758163276194994
  0
LWPOLYLINE
  5
203
330
1F
100
AcDbEntity
  8
0
100
AcDbPolyline
 90
        6
 70
     1
 43
0.0
 10
5.977982650391898
 20
7.258163276194991
 10
6.071732650391896
 20
7.420543039404575
 10
6.259232650391896
 20
7.420543039404575
 10
6.352982650391898
 20
7.258163276194991
 10
6.259232650391896
 20
7.095783512985404
 10
6.071732650391896
 20
7.095783512985404
  0
LWPOLYLINE
  5
204
330
1F
100
AcDbEntity
  8
0
100
AcDbPolyline
 90
        6
 70
     1
 43
0.0
 10
4.772443060156756
 20
4.845347760202825
 10
4.678693060156759
 20
5.007727523412403
 10
4.772443060156756
 20
5.170107286621985
 10
4.959943060156756
 20
5.170107286621985
 10
5.053693060156759
 20
5.007727523412403
 10
4.959943060156756
 20
4.845347760202825
  0
LWPOLYLINE
  5
205
330
1F
100
AcDbEntity
  8
0
100
AcDbPolyline
 90
        6
 70
     1
 43
0.0
 10
3.660653469921616
 20
4.419671533839403
 10
3.754403469921616
 20
4.257291770629815
 10
3.660653469921616
 20
4.094912007420236
 10
3.473153469921616
 20
4.094912007420236
 10
3.379403469921615
 20
4.257291770629815
 10
3.473153469921616
 20
4.419671533839403
  0
LWPOLYLINE
  5
206
330
1F
100
AcDbEntity
  8
0
100
AcDbPolyline
 90
        6
 70
     1
 43
0.0
 10
3.379403469921615
 20
4.757291770629816
 10
3.473153469921616
 20
4.919671533839403
 10
3.660653469921616
 20
4.919671533839403
 10
3.754403469921616
 20
4.757291770629816
 10
3.660653469921616
 20
4.594912007420234
 10
3.473153469921616
 20
4.594912007420234
  0
LWPOLYLINE
  5
207
330
1F
100
AcDbEntity
  8
0
100
AcDbPolyline
 90
        6
 70
     1
 43
0.0
 10
3.379403469921615
 20
5.257291770629813
 10
3.473153469921616
 20
5.419671533839401
 10
3.660653469921616
 20
5.419671533839401
 10
3.754403469921616
 20
5.257291770629813
 10
3.660653469921616
 20
5.094912007420236
 10
3.473153469921616
 20
5.094912007420236
  0
LWPOLYLINE
  5
208
330
1F
100
AcDbEntity
  8
0
100
AcDbPolyline
 90
        6
 70
     1
 43
0.0
 10
3.379403469921615
 20
5.757291770629815
 10
3.473153469921616
 20
5.919671533839403
 10
3.660653469921616
 20
5.919671533839403
 10
3.754403469921616
 20
5.757291770629815
 10
3.660653469921616
 20
5.594912007420235
 10
3.473153469921616
 20
5.594912007420235
  0
LWPOLYLINE
  5
209
330
1F
100
AcDbEntity
  8
0
100
AcDbPolyline
 90
        6
 70
     1
 43
0.0
 10
3.379403469921615
 20
6.257291770629813
 10
3.473153469921616
 20
6.419671533839404
 10
3.660653469921616
 20
6.419671533839404
 10
3.754403469921616
 20
6.257291770629813
 10
3.660653469921616
 20
6.094912007420235
 10
3.473153469921616
 20
6.094912007420235
  0
LWPOLYLINE
  5
210
330
1F
100
AcDbEntity
  8
0
100
AcDbPolyline
 90
        6
 70
     1
 43
0.0
 10
3.379403469921615
 20
6.757291770629815
 10
3.473153469921616
 20
6.919671533839402
 10
3.660653469921616
 20
6.919671533839402
 10
3.754403469921616
 20
6.757291770629815
 10
3.660653469921616
 20
6.594912007420233
 10
3.473153469921616
 20
6.594912007420233
  0
LWPOLYLINE
  5
211
330
1F
100
AcDbEntity
  8
0
100
AcDbPolyline
 90
        6
 70
     1
 43
0.0
 10
3.379403469921615
 20
7.257291770629811
 10
3.473153469921616
 20
7.419671533839404
 10
3.660653469921616
 20
7.419671533839404
 10
3.754403469921616
 20
7.257291770629811
 10
3.660653469921616
 20
7.094912007420235
 10
3.473153469921616
 20
7.094912007420235
  0
LWPOLYLINE
  5
212
330
1F
100
AcDbEntity
  8
0
100
AcDbPolyline
 90
        6
 70
     1
 43
0.0
 10
3.379403469921615
 20
7.757291770629812
 10
3.473153469921616
 20
7.919671533839402
 10
3.660653469921616
 20
7.919671533839402
 10
3.754403469921616
 20
7.757291770629812
 10
3.660653469921616
 20
7.594912007420236
 10
3.473153469921616
 20
7.594912007420236
  0
LWPOLYLINE
  5
213
330
1F
100
AcDbEntity
  8
0
100
AcDbPolyline
 90
        6
 70
     1
 43
0.0
 10
3.379403469921615
 20
8.257291770629814
 10
3.473153469921616
 20
8.419671533839403
 10
3.660653469921616
 20
8.419671533839403
 10
3.754403469921616
 20
8.257291770629814
 10
3.660653469921616
 20
8.094912007420237
 10
3.473153469921616
 20
8.094912007420237
  0
LWPOLYLINE
  5
214
330
1F
100
AcDbEntity
  8
0
100
AcDbPolyline
 90
        6
 70
     1
 43
0.0
 10
3.812499999999998
 20
4.007437021557346
 10
3.906249999999996
 20
4.16981678476692
 10
4.093749999999996
 20
4.16981678476692
 10
4.187499999999995
 20
4.007437021557346
 10
4.093749999999996
 20
3.845057258347763
 10
3.906249999999996
 20
3.845057258347763
  0
LWPOLYLINE
  5
215
330
1F
100
AcDbEntity
  8
0
100
AcDbPolyline
 90
        6
 70
     1
 43
0.0
 10
3.812499999999998
 20
4.507437021557344
 10
3.906249999999996
 20
4.669816784766918
 10
4.093749999999996
 20
4.669816784766918
 10
4.187499999999995
 20
4.507437021557344
 10
4.093749999999996
 20
4.345057258347764
 10
3.906249999999996
 20
4.345057258347764
  0
LWPOLYLINE
  5
216
330
1F
100
AcDbEntity
  8
0
100
AcDbPolyline
 90
        6
 70
     1
 43
0.0
 10
3.812499999999998
 20
5.007437021557345
 10
3.906249999999996
 20
5.16981678476692
 10
4.093749999999996
 20
5.16981678476692
 10
4.187499999999995
 20
5.007437021557345
 10
4.093749999999996
 20
4.845057258347763
 10
3.906249999999996
 20
4.845057258347763
  0
LWPOLYLINE
  5
217
330
1F
100
AcDbEntity
  8
0
100
AcDbPolyline
 90
        6
 70
     1
 43
0.0
 10
3.812499999999998
 20
5.507437021557352
 10
3.906249999999996
 20
5.669816784766935
 10
4.093749999999996
 20
5.669816784766935
 10
4.187499999999995
 20
5.507437021557352
 10
4.093749999999996
 20
5.345057258347764
 10
3.906249999999996
 20
5.345057258347764
  0
LWPOLYLINE
  5
218
330
1F
100
AcDbEntity
  8
0
100
AcDbPolyline
 90
        6
 70
     1
 43
0.0
 10
3.040056939843236
 20
4.844766756492705
 10
2.946306939843235
 20
5.007146519702294
 10
3.040056939843236
 20
5.169526282911871
 10
3.227556939843236
 20
5.169526282911871
 10
3.321306939843235
 20
5.007146519702294
 10
3.227556939843236
 20
4.844766756492705
  0
LWPOLYLINE
  5
219
330
1F
100
AcDbEntity
  8
0
100
AcDbPolyline
 90
        6
 70
     1
 43
0.0
 10
2.794460409764856
 20
8.094621505565172
 10
2.606960409764856
 20
8.094621505565172
 10
2.513210409764855
 20
8.257001268774763
 10
2.606960409764856
 20
8.419381031984341
 10
2.794460409764856
 20
8.419381031984341
 10
2.888210409764856
 20
8.257001268774763
  0
LWPOLYLINE
  5
220
330
1F
100
AcDbEntity
  8
0
100
AcDbPolyline
 90
        6
 70
     1
 43
0.0
 10
6.411079180470275
 20
7.508308527122522
 10
6.504829180470273
 20
7.670688290332102
 10
6.692329180470276
 20
7.670688290332102
 10
6.786079180470279
 20
7.508308527122522
 10
6.692329180470276
 20
7.345928763912942
 10
6.504829180470273
 20
7.345928763912942
  0
LWPOLYLINE
  5
221
330
1F
100
AcDbEntity
  8
0
100
AcDbPolyline
 90
        6
 70
     1
 43
0.0
 10
3.227556939843236
 20
7.169526282911873
 10
3.321306939843235
 20
7.00714651970228
 10
3.227556939843236
 20
6.844766756492704
 10
3.040056939843236
 20
6.844766756492704
 10
2.946306939843235
 20
7.00714651970228
 10
3.040056939843236
 20
7.169526282911873
  0
LWPOLYLINE
  5
222
330
1F
100
AcDbEntity
  8
0
100
AcDbPolyline
 90
        6
 70
     1
 43
0.0
 10
2.946306939843235
 20
7.507146519702281
 10
3.040056939843236
 20
7.669526282911868
 10
3.227556939843236
 20
7.669526282911868
 10
3.321306939843235
 20
7.507146519702281
 10
3.227556939843236
 20
7.344766756492702
 10
3.040056939843236
 20
7.344766756492702
  0
LWPOLYLINE
  5
223
330
1F
100
AcDbEntity
  8
0
100
AcDbPolyline
 90
        6
 70
     1
 43
0.0
 10
2.946306939843235
 20
8.007146519702281
 10
3.040056939843236
 20
8.169526282911867
 10
3.227556939843236
 20
8.169526282911867
 10
3.321306939843235
 20
8.007146519702281
 10
3.227556939843236
 20
7.8447667564927
 10
3.040056939843236
 20
7.8447667564927
  0
LWPOLYLINE
  5
224
330
1F
100
AcDbEntity
  8
0
100
AcDbPolyline
 90
        6
 70
     1
 43
0.0
 10
3.379403469921615
 20
3.757291770629815
 10
3.473153469921616
 20
3.919671533839404
 10
3.660653469921616
 20
3.919671533839404
 10
3.754403469921616
 20
3.757291770629815
 10
3.660653469921616
 20
3.594912007420235
 10
3.473153469921616
 20
3.594912007420235
  0
LWPOLYLINE
  5
225
330
1F
100
AcDbEntity
  8
0
100
AcDbPolyline
 90
        6
 70
     1
 43
0.0
 10
3.321306939843235
 20
5.507146519702279
 10
3.227556939843236
 20
5.344766756492703
 10
3.040056939843236
 20
5.344766756492703
 10
2.946306939843235
 20
5.507146519702279
 10
3.040056939843236
 20
5.669526282911872
 10
3.227556939843236
 20
5.669526282911872
  0
LWPOLYLINE
  5
226
330
1F
100
AcDbEntity
  8
0
100
AcDbPolyline
 90
        6
 70
     1
 43
0.0
 10
2.888210409764856
 20
6.257001268774761
 10
2.794460409764856
 20
6.094621505565172
 10
2.606960409764856
 20
6.094621505565172
 10
2.513210409764855
 20
6.257001268774761
 10
2.606960409764856
 20
6.419381031984344
 10
2.794460409764856
 20
6.419381031984344
  0
LWPOLYLINE
  5
227
330
1F
100
AcDbEntity
  8
0
100
AcDbPolyline
 90
        6
 70
     1
 43
0.0
 10
2.606960409764856
 20
6.594621505565175
 10
2.513210409764855
 20
6.757001268774763
 10
2.606960409764856
 20
6.919381031984345
 10
2.794460409764856
 20
6.919381031984345
 10
2.888210409764856
 20
6.757001268774763
 10
2.794460409764856
 20
6.594621505565175
  0
LWPOLYLINE
  5
228
330
1F
100
AcDbEntity
  8
0
100
AcDbPolyline
 90
        6
 70
     1
 43
0.0
 10
2.606960409764856
 20
7.919381031984345
 10
2.794460409764856
 20
7.919381031984345
 10
2.888210409764856
 20
7.757001268774761
 10
2.794460409764856
 20
7.594621505565174
 10
2.606960409764856
 20
7.594621505565174
 10
2.513210409764855
 20
7.757001268774761
  0
LWPOLYLINE
  5
229
330
1F
100
AcDbEntity
  8
0
100
AcDbPolyline
 90
        6
 70
     1
 43
0.0
 10
3.227556939843236
 20
4.669526282911873
 10
3.321306939843235
 20
4.507146519702292
 10
3.227556939843236
 20
4.344766756492704
 10
3.040056939843236
 20
4.344766756492704
 10
2.946306939843235
 20
4.507146519702292
 10
3.040056939843236
 20
4.669526282911873
  0
LWPOLYLINE
  5
230
330
1F
100
AcDbEntity
  8
0
100
AcDbPolyline
 90
        6
 70
     1
 43
0.0
 10
2.606960409764856
 20
7.094621505565172
 10
2.513210409764855
 20
7.257001268774763
 10
2.606960409764856
 20
7.419381031984343
 10
2.794460409764856
 20
7.419381031984343
 10
2.888210409764856
 20
7.257001268774763
 10
2.794460409764856
 20
7.094621505565172
  0
LWPOLYLINE
  5
231
330
1F
100
AcDbEntity
  8
0
100
AcDbPolyline
 90
        6
 70
     1
 43
0.0
 10
2.946306939843235
 20
6.507146519702278
 10
3.040056939843236
 20
6.669526282911872
 10
3.227556939843236
 20
6.669526282911872
 10
3.321306939843235
 20
6.507146519702278
 10
3.227556939843236
 20
6.344766756492703
 10
3.040056939843236
 20
6.344766756492703
  0
LWPOLYLINE
  5
232
330
1F
100
AcDbEntity
  8
0
100
AcDbPolyline
 90
        6
 70
     1
 43
0.0
 10
2.888210409764856
 20
4.757001268774764
 10
2.794460409764856
 20
4.594621505565172
 10
2.606960409764856
 20
4.594621505565172
 10
2.513210409764855
 20
4.757001268774764
 10
2.606960409764856
 20
4.919381031984343
 10
2.794460409764856
 20
4.919381031984343
  0
LWPOLYLINE
  5
233
330
1F
100
AcDbEntity
  8
0
100
AcDbPolyline
 90
        6
 70
     1
 43
0.0
 10
3.321306939843235
 20
4.007146519702295
 10
3.227556939843236
 20
3.844766756492703
 10
3.040056939843236
 20
3.844766756492703
 10
2.946306939843235
 20
4.007146519702295
 10
3.040056939843236
 20
4.169526282911871
 10
3.227556939843236
 20
4.169526282911871
  0
LWPOLYLINE
  5
234
330
1F
100
AcDbEntity
  8
0
100
AcDbPolyline
 90
        6
 70
     1
 43
0.0
 10
5.205539590235137
 20
4.595493011130351
 10
5.111789590235138
 20
4.757872774339935
 10
5.205539590235137
 20
4.920252537549512
 10
5.393039590235137
 20
4.920252537549512
 10
5.486789590235138
 20
4.757872774339935
 10
5.393039590235137
 20
4.595493011130351
  0
LWPOLYLINE
  5
235
330
1F
100
AcDbEntity
  8
0
100
AcDbPolyline
 90
        6
 70
     1
 43
0.0
 10
5.486789590235138
 20
5.257872774339932
 10
5.393039590235137
 20
5.095493011130353
 10
5.205539590235137
 20
5.095493011130353
 10
5.111789590235138
 20
5.257872774339932
 10
5.205539590235137
 20
5.420252537549513
 10
5.393039590235137
 20
5.420252537549513
  0
LWPOLYLINE
  5
236
330
1F
100
AcDbEntity
  8
0
100
AcDbPolyline
 90
        6
 70
     1
 43
0.0
 10
6.352982650391898
 20
8.258163276194991
 10
6.259232650391896
 20
8.095783512985404
 10
6.071732650391896
 20
8.095783512985404
 10
5.977982650391898
 20
8.258163276194991
 10
6.071732650391896
 20
8.420543039404575
 10
6.259232650391896
 20
8.420543039404575
  0
LWPOLYLINE
  5
237
330
1F
100
AcDbEntity
  8
0
100
AcDbPolyline
 90
        6
 70
     1
 43
0.0
 10
6.411079180470275
 20
3.508308527122524
 10
6.504829180470273
 20
3.670688290332103
 10
6.692329180470276
 20
3.670688290332103
 10
6.786079180470279
 20
3.508308527122524
 10
6.692329180470276
 20
3.345928763912944
 10
6.504829180470273
 20
3.345928763912944
  0
LWPOLYLINE
  5
238
330
1F
100
AcDbEntity
  8
0
100
AcDbPolyline
 90
        6
 70
     1
 43
0.0
 10
6.259232650391896
 20
4.420543039404576
 10
6.352982650391898
 20
4.258163276194993
 10
6.259232650391896
 20
4.095783512985405
 10
6.071732650391896
 20
4.095783512985405
 10
5.977982650391898
 20
4.258163276194993
 10
6.071732650391896
 20
4.420543039404576
  0
LWPOLYLINE
  5
239
330
1F
100
AcDbEntity
  8
0
100
AcDbPolyline
 90
        6
 70
     1
 43
0.0
 10
5.977982650391898
 20
4.758163276194992
 10
6.071732650391896
 20
4.920543039404575
 10
6.259232650391896
 20
4.920543039404575
 10
6.352982650391898
 20
4.758163276194992
 10
6.259232650391896
 20
4.595783512985403
 10
6.071732650391896
 20
4.595783512985403
  0
LWPOLYLINE
  5
240
330
1F
100
AcDbEntity
  8
0
100
AcDbPolyline
 90
        6
 70
     1
 43
0.0
 10
6.071732650391896
 20
3.595783512985404
 10
5.977982650391898
 20
3.758163276194992
 10
6.071732650391896
 20
3.920543039404575
 10
6.259232650391896
 20
3.920543039404575
 10
6.352982650391898
 20
3.758163276194992
 10
6.259232650391896
 20
3.595783512985404
  0
LWPOLYLINE
  5
241
330
1F
100
AcDbEntity
  8
0
100
AcDbPolyline
 90
        6
 70
     1
 43
0.0
 10
5.111789590235138
 20
7.757872774339934
 10
5.205539590235137
 20
7.920252537549515
 10
5.393039590235137
 20
7.920252537549515
 10
5.486789590235138
 20
7.757872774339934
 10
5.393039590235137
 20
7.595493011130355
 10
5.205539590235137
 20
7.595493011130355
  0
LWPOLYLINE
  5
242
330
1F
100
AcDbEntity
  8
0
100
AcDbPolyline
 90
        6
 70
     1
 43
0.0
 10
5.544886120313512
 20
8.008018025267459
 10
5.638636120313513
 20
8.170397788477044
 10
5.826136120313514
 20
8.170397788477044
 10
5.919886120313512
 20
8.008018025267459
 10
5.826136120313514
 20
7.845638262057884
 10
5.638636120313513
 20
7.845638262057884
  0
LWPOLYLINE
  5
243
330
1F
100
AcDbEntity
  8
0
100
AcDbPolyline
 90
        6
 70
     1
 43
0.0
 10
5.977982650391898
 20
6.258163276194992
 10
6.071732650391896
 20
6.420543039404575
 10
6.259232650391896
 20
6.420543039404575
 10
6.352982650391898
 20
6.258163276194992
 10
6.259232650391896
 20
6.095783512985404
 10
6.071732650391896
 20
6.095783512985404
  0
LWPOLYLINE
  5
244
330
1F
100
AcDbEntity
  8
0
100
AcDbPolyline
 90
        6
 70
     1
 43
0.0
 10
6.844175710548656
 20
3.25845377805004
 10
6.937925710548655
 20
3.420833541259634
 10
7.125425710548655
 20
3.420833541259634
 10
7.219175710548654
 20
3.25845377805004
 10
7.125425710548655
 20
3.096074014840462
 10
6.937925710548655
 20
3.096074014840462
  0
LWPOLYLINE
  5
245
330
1F
100
AcDbEntity
  8
0
100
AcDbPolyline
 90
        6
 70
     1
 43
0.0
 10
5.977982650391898
 20
7.758163276194993
 10
6.071732650391896
 20
7.920543039404574
 10
6.259232650391896
 20
7.920543039404574
 10
6.352982650391898
 20
7.758163276194993
 10
6.259232650391896
 20
7.595783512985401
 10
6.071732650391896
 20
7.595783512985401
  0
LWPOLYLINE
  5
246
330
1F
100
AcDbEntity
  8
0
100
AcDbPolyline
 90
        6
 70
     1
 43
0.0
 10
6.844175710548656
 20
3.758453778050041
 10
6.937925710548655
 20
3.920833541259632
 10
7.125425710548655
 20
3.920833541259632
 10
7.219175710548654
 20
3.758453778050041
 10
7.125425710548655
 20
3.596074014840461
 10
6.937925710548655
 20
3.596074014840461
  0
LWPOLYLINE
  5
247
330
1F
100
AcDbEntity
  8
0
100
AcDbPolyline
 90
        6
 70
     1
 43
0.0
 10
6.844175710548656
 20
4.258453778050041
 10
6.937925710548655
 20
4.420833541259634
 10
7.125425710548655
 20
4.420833541259634
 10
7.219175710548654
 20
4.258453778050041
 10
7.125425710548655
 20
4.096074014840462
 10
6.937925710548655
 20
4.096074014840462
  0
LWPOLYLINE
  5
248
330
1F
100
AcDbEntity
  8
0
100
AcDbPolyline
 90
        6
 70
     1
 43
0.0
 10
6.844175710548656
 20
4.758453778050041
 10
6.937925710548655
 20
4.920833541259635
 10
7.125425710548655
 20
4.920833541259635
 10
7.219175710548654
 20
4.758453778050041
 10
7.125425710548655
 20
4.596074014840463
 10
6.937925710548655
 20
4.596074014840463
  0
LWPOLYLINE
  5
249
330
1F
100
AcDbEntity
  8
0
100
AcDbPolyline
 90
        6
 70
     1
 43
0.0
 10
6.844175710548656
 20
5.258453778050041
 10
6.937925710548655
 20
5.420833541259633
 10
7.125425710548655
 20
5.420833541259633
 10
7.219175710548654
 20
5.258453778050041
 10
7.125425710548655
 20
5.096074014840461
 10
6.937925710548655
 20
5.096074014840461
  0
LWPOLYLINE
  5
250
330
1F
100
AcDbEntity
  8
0
100
AcDbPolyline
 90
        6
 70
     1
 43
0.0
 10
6.844175710548656
 20
5.75845377805004
 10
6.937925710548655
 20
5.920833541259635
 10
7.125425710548655
 20
5.920833541259635
 10
7.219175710548654
 20
5.75845377805004
 10
7.125425710548655
 20
5.596074014840463
 10
6.937925710548655
 20
5.596074014840463
  0
LWPOLYLINE
  5
251
330
1F
100
AcDbEntity
  8
0
100
AcDbPolyline
 90
        6
 70
     1
 43
0.0
 10
6.844175710548656
 20
6.258453778050041
 10
6.937925710548655
 20
6.420833541259633
 10
7.125425710548655
 20
6.420833541259633
 10
7.219175710548654
 20
6.258453778050041
 10
7.125425710548655
 20
6.096074014840463
 10
6.937925710548655
 20
6.096074014840463
  0
LWPOLYLINE
  5
252
330
1F
100
AcDbEntity
  8
0
100
AcDbPolyline
 90
        6
 70
     1
 43
0.0
 10
6.844175710548656
 20
6.75845377805004
 10
6.937925710548655
 20
6.920833541259634
 10
7.125425710548655
 20
6.920833541259634
 10
7.219175710548654
 20
6.75845377805004
 10
7.125425710548655
 20
6.596074014840462
 10
6.937925710548655
 20
6.596074014840462
  0
LWPOLYLINE
  5
253
330
1F
100
AcDbEntity
  8
0
100
AcDbPolyline
 90
        6
 70
     1
 43
0.0
 10
6.844175710548656
 20
7.258453778050041
 10
6.937925710548655
 20
7.420833541259631
 10
7.125425710548655
 20
7.420833541259631
 10
7.219175710548654
 20
7.258453778050041
 10
7.125425710548655
 20
7.096074014840461
 10
6.937925710548655
 20
7.096074014840461
  0
LWPOLYLINE
  5
254
330
1F
100
AcDbEntity
  8
0
100
AcDbPolyline
 90
        6
 70
     1
 43
0.0
 10
6.844175710548656
 20
7.758453778050037
 10
6.937925710548655
 20
7.920833541259633
 10
7.125425710548655
 20
7.920833541259633
 10
7.219175710548654
 20
7.758453778050037
 10
7.125425710548655
 20
7.596074014840463
 10
6.937925710548655
 20
7.596074014840463
  0
LINE
  5
255
330
1F
100
AcDbEntity
  8
0
100
AcDbLine
 10
7.968749999999996
 20
1.093750000000001
 30
0.0
 11
7.968749999999996
 21
2.09375
 31
0.0
  0
LWPOLYLINE
  5
256
330
1F
100
AcDbEntity
  8
0
100
AcDbPolyline
 90
        6
 70
     1
 43
0.0
 10
0.5649999999999985
 20
8.61258330249198
 10
0.6299999999999985
 20
8.500000000000005
 10
0.5649999999999981
 20
8.387416697508028
 10
0.4349999999999988
 20
8.387416697508028
 10
0.3699999999999993
 20
8.500000000000005
 10
0.4349999999999989
 20
8.61258330249198
  0
LWPOLYLINE
  5
257
330
1F
100
AcDbEntity
  8
0
100
AcDbPolyline
 90
        6
 70
     1
 43
0.0
 10
7.369999999999998
 20
8.500000000000005
 10
7.434999999999998
 20
8.61258330249198
 10
7.564999999999996
 20
8.61258330249198
 10
7.629999999999999
 20
8.500000000000005
 10
7.564999999999996
 20
8.387416697508028
 10
7.434999999999998
 20
8.387416697508028
  0
LWPOLYLINE
  5
258
330
1F
100
AcDbEntity
  8
0
100
AcDbPolyline
 90
        6
 70
     1
 43
0.0
 10
0.3699999999999993
 20
1.500000000000004
 10
0.4349999999999989
 20
1.612583302491981
 10
0.5649999999999985
 20
1.612583302491981
 10
0.6299999999999985
 20
1.500000000000004
 10
0.5649999999999981
 20
1.387416697508028
 10
0.4349999999999988
 20
1.387416697508028
  0
LWPOLYLINE
  5
259
330
1F
100
AcDbEntity
  8
0
100
AcDbPolyline
 90
        6
 70
     1
 43
0.0
 10
7.369999999999998
 20
1.500000000000004
 10
7.434999999999998
 20
1.612583302491981
 10
7.564999999999996
 20
1.612583302491981
 10
7.629999999999999
 20
1.500000000000004
 10
7.564999999999996
 20
1.387416697508028
 10
7.434999999999998
 20
1.387416697508028
  0
DIMENSION
  5
1005B
330
1F
100
AcDbEntity
  8
0
  6
Continuous
 62
     1
100
AcDbDimension
280
     0
  2
*D0
 10
7.968749999999996
 20
9.572801449636763
 30
0.0
 11
3.999999999999998
 21
9.572801449636763
 31
0.0
 70
    32
 71
     5
 42
7.937499999999997
 73
     0
 74
     0
 75
     0
  3
Standard
100
AcDbAlignedDimension
 13
0.0312499999999996
 23
8.905750000000006
 33
0.0
 14
7.968749999999996
 24
8.905750000000006
 34
0.0
100
AcDbRotatedDimension
  0
DIMENSION
  5
1006A
330
1F
100
AcDbEntity
  8
0
  6
Continuous
 62
     1
100
AcDbDimension
280
     0
  2
*D1
 10
9.510489128990279
 20
1.09375
 30
0.0
 11
9.510489128990279
 21
4.999750000000005
 31
0.0
 70
   160
 71
     5
 42
7.812000000000005
 73
     0
 74
     0
 75
     0
  3
Standard
100
AcDbAlignedDimension
 13
7.968749999999996
 23
8.905750000000006
 33
0.0
 14
7.968749999999996
 24
1.093750000000001
 34
0.0
 50
90.0
100
AcDbRotatedDimension
  0
DIMENSION
  5
10078
330
1F
100
AcDbEntity
  8
0
  6
Continuous
 62
     1
100
AcDbDimension
280
     0
  2
*D2
 10
5.393039590235137
 20
8.645368840913647
 30
0.0
 11
6.271611018806565
 21
8.645368840913647
 31
0.0
 70
    32
 71
     5
 42
0.1875
 73
     0
 74
     0
 75
     0
  3
Standard
100
AcDbAlignedDimension
 13
5.205539590235137
 23
8.420252537549512
 33
0.0
 14
5.393039590235137
 24
8.420252537549512
 34
0.0
100
AcDbRotatedDimension
  0
DIMENSION
  5
10086
330
1F
100
AcDbEntity
  8
0
  6
Continuous
 62
     1
100
AcDbDimension
280
     0
  2
*D3
 10
4.002637969469059
 20
7.919962035694462
 30
0.0
 11
3.993972994386588
 21
8.657372124406871
 31
0.0
 70
   160
 71
     5
 42
0.1752404735808328
 73
     0
 74
     0
 75
     0
  3
Standard
100
AcDbAlignedDimension
 13
4.339346530078376
 23
8.095202509275294
 33
0.0
 14
4.339346530078376
 24
7.919962035694462
 34
0.0
 50
270.0
100
AcDbRotatedDimension
1001
ACAD
1000
DSTYLE
1002
{
1070
   279
1070
     2
1002
}
  0
DIMENSION
  5
100E8
330
1F
100
AcDbEntity
  8
0
  6
Continuous
 62
     1
100
AcDbDimension
280
     0
  2
*D4
 10
0.5649999999999985
 20
9.090980464910156
 30
0.0
 11
1.443571428571426
 21
9.090980464910156
 31
0.0
 70
    32
 71
     5
 42
0.1299999999999994
 73
     0
 74
     0
 75
     0
  3
Standard
100
AcDbAlignedDimension
 13
0.4349999999999989
 23
8.61258330249198
 33
0.0
 14
0.5649999999999985
 24
8.61258330249198
 34
0.0
100
AcDbRotatedDimension
  0
DIMENSION
  5
100F6
330
1F
100
AcDbEntity
  8
0
  6
Continuous
 62
     1
100
AcDbDimension
280
     0
  2
*D5
 10
8.288791038248497
 20
8.905750000000006
 30
0.0
 11
9.004505323962781
 21
9.265750000000007
 31
0.0
 70
    32
 71
     5
 42
0.2931666975080258
 73
     0
 74
     0
 75
     0
  3
Standard
100
AcDbAlignedDimension
 13
7.564999999999996
 23
8.61258330249198
 33
0.0
 14
7.968749999999996
 24
8.905750000000006
 34
0.0
 50
90.0
100
AcDbRotatedDimension
  0
DIMENSION
  5
10105
330
1F
100
AcDbEntity
  8
0
  6
Continuous
 62
     1
100
AcDbDimension
280
     0
  2
*D6
 10
0.0312499999999996
 20
8.193446691560989
 30
0.0
 11
-0.8644642857142859
 21
8.193446691560989
 31
0.0
 70
    32
 71
     5
 42
0.3387499999999997
 73
     0
 74
     0
 75
     0
  3
Standard
100
AcDbAlignedDimension
 13
0.3699999999999993
 23
8.500000000000005
 33
0.0
 14
0.0312499999999996
 24
8.500000000000005
 34
0.0
100
AcDbRotatedDimension
  0
DIMENSION
  5
101A4
330
1F
100
AcDbEntity
  8
0
  6
Continuous
 62
     1
100
AcDbDimension
280
     0
  2
*D9
 10
2.385636515410513
 20
1.647096259627652
 30
0.0
 11
3.337521848092637
 21
3.398682806849558
 31
0.0
 70
   163
 71
     5
 42
1.399999999999999
 73
     0
 74
     0
 75
     0
  3
Standard
100
AcDbDiametricDimension
 15
2.522363484589475
 25
3.040403740372348
 35
0.0
 40
0.0
1001
ACAD_DSTYLE_DIMRADIAL_EXTENSION
1070
   387
1070
     1
1070
   388
1040
0.0
1070
   390
1040
0.0
  0
DIMENSION
  5
101B0
330
1F
100
AcDbEntity
  8
0
  6
Continuous
 62
     1
100
AcDbDimension
280
     0
  2
*D10
 10
6.21485958247787
 20
2.961386165913209
 30
0.0
 11
5.125896482555741
 21
3.351957289892587
 31
0.0
 70
   163
 71
     5
 42
0.1380000000000003
 73
     0
 74
     0
 75
     0
  3
Standard
100
AcDbDiametricDimension
 15
6.129243301776558
 25
3.069616718341229
 35
0.0
 40
0.0
1001
ACAD_DSTYLE_DIMRADIAL_EXTENSION
1070
   387
1070
     1
1070
   388
1040
0.0
1070
   390
1040
0.0
  0
DIMENSION
  5
101BC
330
1F
100
AcDbEntity
  8
0
  6
Continuous
 62
     1
100
AcDbDimension
280
     0
  2
*D11
 10
5.545999999999994
 20
0.5878837875443211
 30
0.0
 11
4.772999999999995
 21
0.5878837875443211
 31
0.0
 70
    32
 71
     5
 42
1.545999999999998
 73
     0
 74
     0
 75
     0
  3
Standard
100
AcDbAlignedDimension
 13
3.999999999999996
 23
2.343750000000002
 33
0.0
 14
5.545999999999994
 24
2.343750000000002
 34
0.0
100
AcDbRotatedDimension
  0
DIMENSION
  5
101CA
330
1F
100
AcDbEntity
  8
0
  6
Continuous
 62
     1
100
AcDbDimension
280
     0
  2
*D12
 10
7.968749999999996
 20
-0.0526558470937175
 30
0.0
 11
6.757374999999995
 21
-0.0526558470937175
 31
0.0
 70
    32
 71
     5
 42
2.422750000000002
 73
     0
 74
     0
 75
     0
  3
Standard
100
AcDbAlignedDimension
 13
5.545999999999994
 23
2.343750000000002
 33
0.0
 14
7.968749999999996
 24
2.343750000000002
 34
0.0
100
AcDbRotatedDimension
  0
DIMENSION
  5
101D8
330
1F
100
AcDbEntity
  8
0
  6
Continuous
 62
     1
100
AcDbDimension
280
     0
  2
*D13
 10
7.968749999999996
 20
0.5770812745458116
 30
0.0
 11
7.070400721063606
 21
0.5770812745458116
 31
0.0
 70
    32
 71
     5
 42
1.79669855787278
 73
     0
 74
     0
 75
     0
  3
Standard
100
AcDbAlignedDimension
 13
6.172051442127216
 23
1.671998557872786
 33
0.0
 14
7.968749999999996
 24
1.671998557872786
 34
0.0
100
AcDbRotatedDimension
  0
DIMENSION
  5
101E6
330
1F
100
AcDbEntity
  8
0
  6
Continuous
 62
     1
100
AcDbDimension
280
     0
  2
*D14
 10
-0.9789620671053571
 20
1.093750000000001
 30
0.0
 11
-0.9789620671053571
 21
1.718750000000001
 31
0.0
 70
    32
 71
     5
 42
1.25
 73
     0
 74
     0
 75
     0
  3
Standard
100
AcDbAlignedDimension
 13
2.453999999999996
 23
2.343750000000001
 33
0.0
 14
2.453999999999995
 24
1.093750000000001
 34
0.0
 50
90.0
100
AcDbRotatedDimension
  0
DIMENSION
  5
101F4
330
1F
100
AcDbEntity
  8
0
  6
Continuous
 62
     1
100
AcDbDimension
280
     0
  2
*D15
 10
-0.1455379835744174
 20
1.093750000000001
 30
0.0
 11
-0.8612522692887033
 21
0.9137500000000018
 31
0.0
 70
    32
 71
     5
 42
0.5782485578727848
 73
     0
 74
     0
 75
     0
  3
Standard
100
AcDbAlignedDimension
 13
1.827948557872777
 23
1.671998557872786
 33
0.0
 14
1.827948557872777
 24
1.093750000000001
 34
0.0
 50
90.0
100
AcDbRotatedDimension
  0
DIMENSION
  5
10203
330
1F
100
AcDbEntity
  8
0
  6
Continuous
 62
     1
100
AcDbDimension
280
     0
  2
*D16
 10
-0.1425066040587203
 20
3.015501442127221
 30
0.0
 11
-0.4497574821770556
 21
2.728878743926873
 31
0.0
 70
   160
 71
     5
 42
1.343502884254435
 73
     0
 74
     0
 75
     0
  3
Standard
100
AcDbAlignedDimension
 13
1.827948557872777
 23
1.671998557872786
 33
0.0
 14
1.827948557872777
 24
3.015501442127221
 34
0.0
 50
90.0
100
AcDbRotatedDimension
1001
ACAD
1000
DSTYLE
1002
{
1070
   279
1070
     2
1002
}
  0
DIMENSION
  5
10225
330
1F
100
AcDbEntity
  8
0
  6
Continuous
 62
     1
100
AcDbDimension
280
     0
  2
*D17
 10
2.288679627175817
 20
8.905750000000006
 30
0.0
 11
2.288679627175815
 21
8.662565515992174
 31
0.0
 70
    32
 71
     5
 42
0.4863689680156647
 73
     0
 74
     0
 75
     0
  3
Standard
100
AcDbAlignedDimension
 13
2.606960409764856
 23
8.419381031984341
 33
0.0
 14
2.288679627175817
 24
8.905750000000006
 34
0.0
 50
90.0
100
AcDbRotatedDimension
  0
DIMENSION
  5
10233
330
1F
100
AcDbEntity
  8
0
  6
Continuous
 62
     1
100
AcDbDimension
280
     0
  2
*D18
 10
0.0312499999999996
 20
7.059680083123677
 30
0.0
 11
-0.6801785714285719
 21
7.059680083123677
 31
0.0
 70
    32
 71
     5
 42
0.7495742894513468
 73
     0
 74
     0
 75
     0
  3
Standard
100
AcDbAlignedDimension
 13
0.7808242894513464
 23
7.256420265064646
 33
0.0
 14
0.0312499999999997
 24
7.256420265064646
 34
0.0
100
AcDbRotatedDimension
  0
ENDSEC
  0
SECTION
  2
OBJECTS
  0
DICTIONARY
  5
C
330
0
100
AcDbDictionary
281
     1
  3
ACAD_CIP_PREVIOUS_PRODUCT_INFO
350
1005A
  3
ACAD_COLOR
350
10036
  3
ACAD_DETAILVIEWSTYLE
350
10051
  3
ACAD_GROUP
350
D
  3
ACAD_IMAGE_VARS
350
103BC
  3
ACAD_LAYOUT
350
10037
  3
ACAD_MATERIAL
350
10004
  3
ACAD_MLEADERSTYLE
350
1004D
  3
ACAD_MLINESTYLE
350
17
  3
ACAD_PLOTSETTINGS
350
10054
  3
ACAD_PLOTSTYLENAME
350
10002
  3
ACAD_SCALELIST
350
1003B
  3
ACAD_SECTIONVIEWSTYLE
350
1004F
  3
ACAD_TABLESTYLE
350
10038
  3
ACAD_VISUALSTYLE
350
1001D
  3
ACDB_RECOMPOSE_DATA
350
103CF
  3
AcDbVariableDictionary
350
102FF
  0
DICTIONARY
  5
102F9
330
2
100
AcDbDictionary
280
     1
281
     1
  3
ACAD_LAYERSTATES
360
102FA
  0
DICTIONARY
  5
102F4
330
50
100
AcDbDictionary
280
     1
281
     1
  3
ADSK_XREC_LAYER_RECONCILED
360
102F5
  0
XRECORD
  5
1005A
102
{ACAD_REACTORS
330
C
102
}
330
C
100
AcDbXrecord
280
     1
300
ACDMAC
300
2021
300
ACDMAC_F_S_TL
  0
DICTIONARY
  5
10036
102
{ACAD_REACTORS
330
C
102
}
330
C
100
AcDbDictionary
281
     1
  0
DICTIONARY
  5
10051
102
{ACAD_REACTORS
330
C
102
}
330
C
100
AcDbDictionary
281
     1
  3
Imperial24
350
10052
  0
DICTIONARY
  5
D
330
C
100
AcDbDictionary
281
     1
  0
RASTERVARIABLES
  5
103BC
102
{ACAD_REACTORS
330
C
102
}
330
C
100
AcDbRasterVariables
 90
        0
 70
     1
 71
     1
 72
     5
  0
DICTIONARY
  5
10037
102
{ACAD_REACTORS
330
C
102
}
330
C
100
AcDbDictionary
281
     1
  3
Layout1
350
10056
  3
Model
350
10055
  0
DICTIONARY
  5
10004
102
{ACAD_REACTORS
330
C
102
}
330
C
100
AcDbDictionary
281
     1
  3
ByBlock
350
1000D
  3
ByLayer
350
10005
  3
Global
350
10015
  0
DICTIONARY
  5
1004D
102
{ACAD_REACTORS
330
C
102
}
330
C
100
AcDbDictionary
281
     1
  3
Standard
350
1004E
  0
DICTIONARY
  5
17
330
C
100
AcDbDictionary
281
     1
  3
Standard
350
1003A
  0
DICTIONARY
  5
10054
102
{ACAD_REACTORS
330
C
102
}
330
C
100
AcDbDictionary
281
     1
  0
ACDBDICTIONARYWDFLT
  5
10002
102
{ACAD_REACTORS
330
C
102
}
330
C
100
AcDbDictionary
281
     1
  3
Normal
350
10003
100
AcDbDictionaryWithDefault
340
10003
  0
DICTIONARY
  5
1003B
102
{ACAD_REACTORS
330
C
102
}
330
C
100
AcDbDictionary
281
     1
  3
A0
350
1003C
  3
A1
350
1003D
  3
A2
350
1003E
  3
A3
350
1003F
  3
A4
350
10040
  3
A5
350
10041
  3
A6
350
10042
  3
A7
350
10043
  3
A8
350
10044
  3
A9
350
10045
  3
B0
350
10046
  3
B1
350
10047
  3
B2
350
10048
  3
B3
350
10049
  3
B4
350
1004A
  3
B5
350
1004B
  3
B6
350
1004C
  0
DICTIONARY
  5
1004F
102
{ACAD_REACTORS
330
C
102
}
330
C
100
AcDbDictionary
281
     1
  3
Imperial24
350
10050
  0
DICTIONARY
  5
10038
102
{ACAD_REACTORS
330
C
102
}
330
C
100
AcDbDictionary
281
     1
  3
Standard
350
10039
  0
DICTIONARY
  5
1001D
102
{ACAD_REACTORS
330
C
102
}
330
C
100
AcDbDictionary
281
     1
  3
2dWireframe
350
10023
  3
Basic
350
10022
  3
Brighten
350
10029
  3
ColorChange
350
1002D
  3
Conceptual
350
10026
  3
Dim
350
10028
  3
EdgeColorOff
350
10035
  3
Facepattern
350
1002C
  3
Flat
350
1001E
  3
FlatWithEdges
350
1001F
  3
Gouraud
350
10020
  3
GouraudWithEdges
350
10021
  3
Hidden
350
10025
  3
JitterOff
350
10033
  3
Linepattern
350
1002B
  3
OverhangOff
350
10034
  3
Realistic
350
10027
  3
Shaded
350
10032
  3
Shaded with edges
350
10031
  3
Shades of Gray
350
1002E
  3
Sketchy
350
1002F
  3
Thicken
350
1002A
  3
Wireframe
350
10024
  3
X-Ray
350
10030
  0
XRECORD
  5
103CF
102
{ACAD_REACTORS
330
C
102
}
330
C
100
AcDbXrecord
280
     1
 90
        1
330
10039
330
10086
330
10203
  0
DICTIONARY
  5
102FF
102
{ACAD_REACTORS
330
C
102
}
330
C
100
AcDbDictionary
281
     1
  3
CANNOSCALE
350
10305
  3
CMLEADERSTYLE
350
10301
  3
CTABLESTYLE
350
10300
  3
CVIEWDETAILSTYLE
350
10302
  3
CVIEWSECTIONSTYLE
350
10303
  3
LAYEREVAL
350
10307
  3
LAYERNOTIFY
350
10308
  3
LIGHTINGUNITS
350
10306
  3
MSLTSCALE
350
10304
  0
DICTIONARY
  5
102FA
102
{ACAD_REACTORS
330
102F9
102
}
330
102F9
100
AcDbDictionary
281
     1
  0
XRECORD
  5
102F5
102
{ACAD_REACTORS
330
102F4
102
}
330
102F4
100
AcDbXrecord
280
     1
290
     1
  0
ACDBDETAILVIEWSTYLE
  5
10052
102
{ACAD_REACTORS
330
10051
102
}
330
10051
100
AcDbModelDocViewStyle
 70
     0
  3
Imperial24
290
     0
300
Imperial24
 90
        0
100
AcDbDetailViewStyle
 70
     0
 71
     0
 90
        3
 71
     1
340
11
 62
   256
 40
0.24
340
0
 62
   256
 40
0.24
300

 40
0.36
280
     3
 71
     2
340
0
 90
       25
 62
   256
 71
     3
340
11
 62
   256
 40
0.24
 90
        1
 40
0.75
 90
        1
300
%<\AcVar ViewType \f "%tc1">% %<\AcVar ViewDetailId>%\PSCALE %<\AcVar ViewScale \f "%sn">%
 71
     4
340
0
 90
       25
 62
   256
340
0
 90
       25
 62
   256
280
     0
  0
LAYOUT
  5
10056
102
{ACAD_REACTORS
330
10037
102
}
330
10037
100
AcDbPlotSettings
  1

  2

  4

  6

 40
0.0
 41
0.0
 42
0.0
 43
0.0
 44
0.0
 45
0.0
 46
0.0
 47
0.0
 48
0.0
 49
0.0
140
0.0
141
0.0
142
1.0
143
1.0
 70
   688
 72
     0
 73
     0
 74
     5
  7

 75
    16
147
1.0
 76
     0
 77
     2
 78
   300
148
0.0
149
0.0
100
AcDbLayout
  1
Layout1
 70
     1
 71
     1
 10
0.0
 20
0.0
 11
12.0
 21
9.0
 12
0.0
 22
0.0
 32
0.0
 14
1.000000000000000E+20
 24
1.000000000000000E+20
 34
1.000000000000000E+20
 15
-1.000000000000000E+20
 25
-1.000000000000000E+20
 35
-1.000000000000000E+20
146
0.0
 13
0.0
 23
0.0
 33
0.0
 16
1.0
 26
0.0
 36
0.0
 17
0.0
 27
1.0
 37
0.0
 76
     0
330
1B
  0
LAYOUT
  5
10055
102
{ACAD_REACTORS
330
10037
102
}
330
10037
100
AcDbPlotSettings
  1

  2
none_device
  4
Letter_(8.50_x_11.00_Inches)
  6

 40
6.349999904632568
 41
6.349999904632568
 42
6.350006103515625
 43
6.350006103515625
 44
215.8999938964844
 45
279.3999938964844
 46
0.0
 47
0.0
 48
0.0
 49
0.0
140
0.0
141
0.0
142
1.0
143
2.629046016636181
 70
 11952
 72
     0
 73
     1
 74
     0
  7

 75
     0
147
0.38036610758129
 76
     0
 77
     2
 78
   300
148
329.6415403559733
149
152.4131679393017
100
AcDbLayout
  1
Model
 70
     1
 71
     0
 10
0.0
 20
0.0
 11
12.0
 21
9.0
 12
0.0
 22
0.0
 32
0.0
 14
0.0
 24
0.0
 34
0.0
 15
0.0
 25
0.0
 35
0.0
146
0.0
 13
0.0
 23
0.0
 33
0.0
 16
1.0
 26
0.0
 36
0.0
 17
0.0
 27
1.0
 37
0.0
 76
     0
330
1F
331
10059
1001
ACAD_PSEXT
1000
None
1000
None
1000
Not applicable
1000
The layout will not be plotted unless a new plotter configuration name is selected.
1070
     0
  0
MATERIAL
  5
1000D
102
{ACAD_XDICTIONARY
360
1000E
102
}
102
{ACAD_REACTORS
330
10004
102
}
330
10004
100
AcDbMaterial
  1
ByBlock
 72
     0
 43
0.0208333333333333
 43
0.0
 43
0.0
 43
0.0
 43
0.0
 43
0.0208333333333333
 43
0.0
 43
0.0
 43
0.0
 43
0.0
 43
1.0
 43
0.0
 43
0.0
 43
0.0
 43
0.0
 43
1.0
 77
     0
 47
0.0208333333333333
 47
0.0
 47
0.0
 47
0.0
 47
0.0
 47
0.0208333333333333
 47
0.0
 47
0.0
 47
0.0
 47
0.0
 47
1.0
 47
0.0
 47
0.0
 47
0.0
 47
0.0
 47
1.0
171
     0
 49
0.0208333333333333
 49
0.0
 49
0.0
 49
0.0
 49
0.0
 49
0.0208333333333333
 49
0.0
 49
0.0
 49
0.0
 49
0.0
 49
1.0
 49
0.0
 49
0.0
 49
0.0
 49
0.0
 49
1.0
175
     0
142
0.0208333333333333
142
0.0
142
0.0
142
0.0
142
0.0
142
0.0208333333333333
142
0.0
142
0.0
142
0.0
142
0.0
142
1.0
142
0.0
142
0.0
142
0.0
142
0.0
142
1.0
179
     0
144
0.0208333333333333
144
0.0
144
0.0
144
0.0
144
0.0
144
0.0208333333333333
144
0.0
144
0.0
144
0.0
144
0.0
144
1.0
144
0.0
144
0.0
144
0.0
144
0.0
144
1.0
147
0.0208333333333333
147
0.0
147
0.0
147
0.0
147
0.0
147
0.0208333333333333
147
0.0
147
0.0
147
0.0
147
0.0
147
1.0
147
0.0
147
0.0
147
0.0
147
0.0
147
1.0
  0
MATERIAL
  5
10005
102
{ACAD_XDICTIONARY
360
10006
102
}
102
{ACAD_REACTORS
330
10004
102
}
330
10004
100
AcDbMaterial
  1
ByLayer
 72
     0
 43
0.0208333333333333
 43
0.0
 43
0.0
 43
0.0
 43
0.0
 43
0.0208333333333333
 43
0.0
 43
0.0
 43
0.0
 43
0.0
 43
1.0
 43
0.0
 43
0.0
 43
0.0
 43
0.0
 43
1.0
 77
     0
 47
0.0208333333333333
 47
0.0
 47
0.0
 47
0.0
 47
0.0
 47
0.0208333333333333
 47
0.0
 47
0.0
 47
0.0
 47
0.0
 47
1.0
 47
0.0
 47
0.0
 47
0.0
 47
0.0
 47
1.0
171
     0
 49
0.0208333333333333
 49
0.0
 49
0.0
 49
0.0
 49
0.0
 49
0.0208333333333333
 49
0.0
 49
0.0
 49
0.0
 49
0.0
 49
1.0
 49
0.0
 49
0.0
 49
0.0
 49
0.0
 49
1.0
175
     0
142
0.0208333333333333
142
0.0
142
0.0
142
0.0
142
0.0
142
0.0208333333333333
142
0.0
142
0.0
142
0.0
142
0.0
142
1.0
142
0.0
142
0.0
142
0.0
142
0.0
142
1.0
179
     0
144
0.0208333333333333
144
0.0
144
0.0
144
0.0
144
0.0
144
0.0208333333333333
144
0.0
144
0.0
144
0.0
144
0.0
144
1.0
144
0.0
144
0.0
144
0.0
144
0.0
144
1.0
147
0.0208333333333333
147
0.0
147
0.0
147
0.0
147
0.0
147
0.0208333333333333
147
0.0
147
0.0
147
0.0
147
0.0
147
1.0
147
0.0
147
0.0
147
0.0
147
0.0
147
1.0
  0
MATERIAL
  5
10015
102
{ACAD_XDICTIONARY
360
10016
102
}
102
{ACAD_REACTORS
330
10004
102
}
330
10004
100
AcDbMaterial
  1
Global
 72
     0
 43
0.0208333333333333
 43
0.0
 43
0.0
 43
0.0
 43
0.0
 43
0.0208333333333333
 43
0.0
 43
0.0
 43
0.0
 43
0.0
 43
1.0
 43
0.0
 43
0.0
 43
0.0
 43
0.0
 43
1.0
 77
     0
 47
0.0208333333333333
 47
0.0
 47
0.0
 47
0.0
 47
0.0
 47
0.0208333333333333
 47
0.0
 47
0.0
 47
0.0
 47
0.0
 47
1.0
 47
0.0
 47
0.0
 47
0.0
 47
0.0
 47
1.0
171
     0
 49
0.0208333333333333
 49
0.0
 49
0.0
 49
0.0
 49
0.0
 49
0.0208333333333333
 49
0.0
 49
0.0
 49
0.0
 49
0.0
 49
1.0
 49
0.0
 49
0.0
 49
0.0
 49
0.0
 49
1.0
175
     0
142
0.0208333333333333
142
0.0
142
0.0
142
0.0
142
0.0
142
0.0208333333333333
142
0.0
142
0.0
142
0.0
142
0.0
142
1.0
142
0.0
142
0.0
142
0.0
142
0.0
142
1.0
179
     0
144
0.0208333333333333
144
0.0
144
0.0
144
0.0
144
0.0
144
0.0208333333333333
144
0.0
144
0.0
144
0.0
144
0.0
144
1.0
144
0.0
144
0.0
144
0.0
144
0.0
144
1.0
147
0.0208333333333333
147
0.0
147
0.0
147
0.0
147
0.0
147
0.0208333333333333
147
0.0
147
0.0
147
0.0
147
0.0
147
1.0
147
0.0
147
0.0
147
0.0
147
0.0
147
1.0
  0
MLEADERSTYLE
  5
1004E
102
{ACAD_REACTORS
330
1004D
102
}
330
1004D
100
AcDbMLeaderStyle
179
     2
170
     2
171
     1
172
     0
 90
        2
 40
0.0
 41
0.0
173
     1
 91
-1056964608
340
14
 92
       -2
290
     1
 42
0.09
291
     1
 43
0.36
  3
Standard
 44
0.18
300

342
11
174
     1
178
     6
175
     1
176
     0
 93
-1056964608
 45
0.18
292
     0
297
     0
 46
0.18
 94
-1056964608
 47
1.0
 49
1.0
140
1.0
293
     1
141
0.0
294
     1
177
     0
142
1.0
295
     0
296
     0
143
0.125
271
     0
272
     9
273
     9
298
     0
  0
MLINESTYLE
  5
1003A
102
{ACAD_REACTORS
330
17
102
}
330
17
100
AcDbMlineStyle
  2
STANDARD
 70
     0
  3

 62
   256
 51
90.0
 52
90.0
 71
     2
 49
0.5
 62
   256
  6
BYLAYER
 49
-0.5
 62
   256
  6
BYLAYER
  0
ACDBPLACEHOLDER
  5
10003
102
{ACAD_REACTORS
330
10002
102
}
330
10002
  0
SCALE
  5
1003C
102
{ACAD_REACTORS
330
1003B
102
}
330
1003B
100
AcDbScale
 70
     0
300
1:1
140
1.0
141
1.0
290
     1
  0
SCALE
  5
1003D
102
{ACAD_REACTORS
330
1003B
102
}
330
1003B
100
AcDbScale
 70
     0
300
1/128" = 1'-0"
140
0.0078125
141
12.0
290
     0
  0
SCALE
  5
1003E
102
{ACAD_REACTORS
330
1003B
102
}
330
1003B
100
AcDbScale
 70
     0
300
1/64" = 1'-0"
140
0.015625
141
12.0
290
     0
  0
SCALE
  5
1003F
102
{ACAD_REACTORS
330
1003B
102
}
330
1003B
100
AcDbScale
 70
     0
300
1/32" = 1'-0"
140
0.03125
141
12.0
290
     0
  0
SCALE
  5
10040
102
{ACAD_REACTORS
330
1003B
102
}
330
1003B
100
AcDbScale
 70
     0
300
1/16" = 1'-0"
140
0.0625
141
12.0
290
     0
  0
SCALE
  5
10041
102
{ACAD_REACTORS
330
1003B
102
}
330
1003B
100
AcDbScale
 70
     0
300
3/32" = 1'-0"
140
0.09375
141
12.0
290
     0
  0
SCALE
  5
10042
102
{ACAD_REACTORS
330
1003B
102
}
330
1003B
100
AcDbScale
 70
     0
300
1/8" = 1'-0"
140
0.125
141
12.0
290
     0
  0
SCALE
  5
10043
102
{ACAD_REACTORS
330
1003B
102
}
330
1003B
100
AcDbScale
 70
     0
300
3/16" = 1'-0"
140
0.1875
141
12.0
290
     0
  0
SCALE
  5
10044
102
{ACAD_REACTORS
330
1003B
102
}
330
1003B
100
AcDbScale
 70
     0
300
1/4" = 1'-0"
140
0.25
141
12.0
290
     0
  0
SCALE
  5
10045
102
{ACAD_REACTORS
330
1003B
102
}
330
1003B
100
AcDbScale
 70
     0
300
3/8" = 1'-0"
140
0.375
141
12.0
290
     0
  0
SCALE
  5
10046
102
{ACAD_REACTORS
330
1003B
102
}
330
1003B
100
AcDbScale
 70
     0
300
1/2" = 1'-0"
140
0.5
141
12.0
290
     0
  0
SCALE
  5
10047
102
{ACAD_REACTORS
330
1003B
102
}
330
1003B
100
AcDbScale
 70
     0
300
3/4" = 1'-0"
140
0.75
141
12.0
290
     0
  0
SCALE
  5
10048
102
{ACAD_REACTORS
330
1003B
102
}
330
1003B
100
AcDbScale
 70
     0
300
1" = 1'-0"
140
1.0
141
12.0
290
     0
  0
SCALE
  5
10049
102
{ACAD_REACTORS
330
1003B
102
}
330
1003B
100
AcDbScale
 70
     0
300
1-1/2" = 1'-0"
140
1.5
141
12.0
290
     0
  0
SCALE
  5
1004A
102
{ACAD_REACTORS
330
1003B
102
}
330
1003B
100
AcDbScale
 70
     0
300
3" = 1'-0"
140
3.0
141
12.0
290
     0
  0
SCALE
  5
1004B
102
{ACAD_REACTORS
330
1003B
102
}
330
1003B
100
AcDbScale
 70
     0
300
6" = 1'-0"
140
6.0
141
12.0
290
     0
  0
SCALE
  5
1004C
102
{ACAD_REACTORS
330
1003B
102
}
330
1003B
100
AcDbScale
 70
     0
300
1'-0" = 1'-0"
140
12.0
141
12.0
290
     0
  0
ACDBSECTIONVIEWSTYLE
  5
10050
102
{ACAD_REACTORS
330
1004F
102
}
330
1004F
100
AcDbModelDocViewStyle
 70
     0
  3
Imperial24
290
     0
300
Imperial24
 90
        0
100
AcDbSectionViewStyle
 70
     0
 71
     0
 90
       78
 71
     1
340
11
 62
   256
 40
0.24
340
0
340
0
 62
   256
 40
0.24
300
I, O, Q, S, X, Z
 40
0.48
 90
        3
 40
0.18
 90
        1
 71
     2
340
0
 90
       25
 62
   256
340
0
 90
       50
 62
   256
 40
0.24
 40
0.0
 40
0.24
 71
     3
340
11
 62
   256
 40
0.24
 90
        1
 40
0.75
 90
        1
300
%<\AcVar ViewType \f "%tc1">% %<\AcVar ViewSectionStartId>%-%<\AcVar ViewSectionEndId>%\PSCALE %<\AcVar ViewScale \f "%sn">%
 71
     4
 62
   256
 62
   257
300
ANSI31
 40
1.0
 90
        0
290
     0
290
     0
 90
        6
 40
0.0
 40
1.570796326794896
 40
0.2617993877991494
 40
1.308996938995747
 40
-0.2617993877991494
 40
1.832595714594046
  0
TABLESTYLE
  5
10039
102
{ACAD_XDICTIONARY
360
103CD
102
}
102
{ACAD_REACTORS
330
10038
102
}
330
10038
100
AcDbTableStyle
280
     0
  3
Standard
 70
     0
 71
     0
 40
0.06
 41
0.06
280
     0
281
     0
  7
STANDARD
140
0.18
170
     2
 62
     0
 63
     7
283
     0
 90
      512
 91
        0
  1

274
    -2
284
     1
 64
     0
275
    -2
285
     1
 65
     0
276
    -2
286
     1
 66
     0
277
    -2
287
     1
 67
     0
278
    -2
288
     1
 68
     0
279
    -2
289
     1
 69
     0
  7
STANDARD
140
0.25
170
     5
 62
     0
 63
     7
283
     0
 90
      512
 91
        0
  1

274
    -2
284
     1
 64
     0
275
    -2
285
     1
 65
     0
276
    -2
286
     1
 66
     0
277
    -2
287
     1
 67
     0
278
    -2
288
     1
 68
     0
279
    -2
289
     1
 69
     0
  7
STANDARD
140
0.18
170
     5
 62
     0
 63
     7
283
     0
 90
      512
 91
        0
  1

274
    -2
284
     1
 64
     0
275
    -2
285
     1
 65
     0
276
    -2
286
     1
 66
     0
277
    -2
287
     1
 67
     0
278
    -2
288
     1
 68
     0
279
    -2
289
     1
 69
     0
  0
VISUALSTYLE
  5
10023
102
{ACAD_REACTORS
330
1001D
102
}
330
1001D
100
AcDbVisualStyle
  2
2dWireframe
 70
     4
177
     3
291
     0
 70
    58
 90
        0
176
     1
 90
        2
176
     1
 90
        0
176
     1
 90
        0
176
     1
 40
0.6
176
     1
 40
30.0
176
     1
 62
     7
420
 16777215
176
     1
 90
        1
176
     1
 90
        4
176
     1
 62
     7
176
     1
 62
   257
176
     1
 90
        1
176
     1
 90
        1
176
     1
 40
1.0
176
     1
 90
        0
176
     1
 62
   257
176
     1
 40
1.0
176
     1
 90
        1
176
     1
 90
        6
176
     1
 90
        2
176
     1
 62
     7
176
     1
 90
        5
176
     1
 90
        0
176
     1
 90
        0
176
     1
290
     0
176
     1
 90
        1
176
     1
 40
0.0
176
     1
 90
        0
176
     1
290
     1
176
     1
290
     1
176
     1
290
     0
176
     1
290
     0
176
     1
290
     0
176
     1
290
     0
176
     1
290
     0
176
     1
290
     0
176
     1
290
     0
176
     1
 90
       50
176
     1
 40
0.0
176
     1
 40
1.0
176
     1
 90
        0
176
     1
 62
    18
420
        0
176
     1
 90
       50
176
     1
 90
        3
176
     1
 62
     5
420
      255
176
     1
290
     0
176
     1
 90
       50
176
     1
 90
       50
176
     1
 90
       50
176
     1
290
     0
176
     1
 90
       50
176
     1
 62
   256
176
     0
 40
1.0
176
     0
 90
        2
176
     1
  1
strokes_ogs.tif
176
     1
290
     0
176
     1
 40
1.0
176
     1
 40
1.0
176
     1
  0
VISUALSTYLE
  5
10022
102
{ACAD_REACTORS
330
1001D
102
}
330
1001D
100
AcDbVisualStyle
  2
Basic
 70
     7
177
     3
291
     1
 70
    58
 90
        1
176
     1
 90
        0
176
     1
 90
        1
176
     1
 90
        0
176
     1
 40
0.6
176
     1
 40
30.0
176
     1
 62
     7
420
 16777215
176
     1
 90
        0
176
     1
 90
        4
176
     1
 62
     7
176
     1
 62
   257
176
     1
 90
        1
176
     1
 90
        1
176
     1
 40
1.0
176
     1
 90
        8
176
     1
 62
     7
176
     1
 40
1.0
176
     1
 90
        1
176
     1
 90
        6
176
     1
 90
        2
176
     1
 62
     7
176
     1
 90
        5
176
     1
 90
        0
176
     1
 90
        0
176
     1
290
     0
176
     1
 90
        1
176
     1
 40
0.0
176
     1
 90
        0
176
     1
290
     0
176
     1
290
     1
176
     1
290
     1
176
     1
290
     0
176
     1
290
     0
176
     1
290
     0
176
     1
290
     0
176
     1
290
     0
176
     1
290
     0
176
     1
 90
       50
176
     1
 40
0.0
176
     1
 40
1.0
176
     1
 90
        0
176
     1
 62
    18
420
        0
176
     1
 90
       50
176
     1
 90
        3
176
     1
 62
     5
420
      255
176
     1
290
     0
176
     1
 90
       50
176
     1
 90
       50
176
     1
 90
       50
176
     1
290
     0
176
     1
 90
       50
176
     1
 62
   256
176
     0
 40
1.0
176
     0
 90
        2
176
     1
  1
strokes_ogs.tif
176
     1
290
     0
176
     1
 40
1.0
176
     1
 40
1.0
176
     1
  0
VISUALSTYLE
  5
10029
102
{ACAD_REACTORS
330
1001D
102
}
330
1001D
100
AcDbVisualStyle
  2
Brighten
 70
    12
177
     3
291
     1
 70
    58
 90
        2
176
     1
 90
        2
176
     1
 90
        0
176
     1
 90
        0
176
     1
 40
0.6
176
     1
 40
30.0
176
     1
 62
     7
420
 16777215
176
     1
 90
        1
176
     1
 90
        4
176
     1
 62
     7
176
     1
 62
   257
176
     1
 90
        1
176
     1
 90
        1
176
     1
 40
1.0
176
     1
 90
        8
176
     1
 62
     7
176
     1
 40
1.0
176
     1
 90
        1
176
     1
 90
        6
176
     1
 90
        2
176
     1
 62
     7
176
     1
 90
        5
176
     1
 90
        0
176
     1
 90
        0
176
     1
290
     0
176
     1
 90
        1
176
     1
 40
50.0
176
     1
 90
        0
176
     1
290
     0
176
     1
290
     1
176
     1
290
     1
176
     1
290
     0
176
     1
290
     0
176
     1
290
     0
176
     1
290
     0
176
     1
290
     0
176
     1
290
     0
176
     1
 90
       50
176
     1
 40
0.0
176
     1
 40
1.0
176
     1
 90
        0
176
     1
 62
    18
420
        0
176
     1
 90
       50
176
     1
 90
        3
176
     1
 62
     5
420
      255
176
     1
290
     0
176
     1
 90
       50
176
     1
 90
       50
176
     1
 90
       50
176
     1
290
     0
176
     1
 90
       50
176
     1
 62
   256
176
     0
 40
1.0
176
     0
 90
        2
176
     1
  1
strokes_ogs.tif
176
     1
290
     0
176
     1
 40
1.0
176
     1
 40
1.0
176
     1
  0
VISUALSTYLE
  5
1002D
102
{ACAD_REACTORS
330
1001D
102
}
330
1001D
100
AcDbVisualStyle
  2
ColorChange
 70
    16
177
     3
291
     1
 70
    58
 90
        2
176
     1
 90
        2
176
     1
 90
        3
176
     1
 90
        0
176
     1
 40
0.6
176
     1
 40
30.0
176
     1
 62
     8
420
  8421504
176
     1
 90
        1
176
     1
 90
        4
176
     1
 62
     7
176
     1
 62
   257
176
     1
 90
        1
176
     1
 90
        1
176
     1
 40
1.0
176
     1
 90
        8
176
     1
 62
     8
420
  8421504
176
     1
 40
1.0
176
     1
 90
        1
176
     1
 90
        6
176
     1
 90
        2
176
     1
 62
     7
176
     1
 90
        5
176
     1
 90
        0
176
     1
 90
        0
176
     1
290
     0
176
     1
 90
        1
176
     1
 40
0.0
176
     1
 90
        0
176
     1
290
     0
176
     1
290
     1
176
     1
290
     1
176
     1
290
     0
176
     1
290
     0
176
     1
290
     0
176
     1
290
     0
176
     1
290
     0
176
     1
290
     0
176
     1
 90
       50
176
     1
 40
0.0
176
     1
 40
1.0
176
     1
 90
        0
176
     1
 62
    18
420
        0
176
     1
 90
       50
176
     1
 90
        3
176
     1
 62
     5
420
      255
176
     1
290
     0
176
     1
 90
       50
176
     1
 90
       50
176
     1
 90
       50
176
     1
290
     0
176
     1
 90
       50
176
     1
 62
   256
176
     0
 40
1.0
176
     0
 90
        2
176
     1
  1
strokes_ogs.tif
176
     1
290
     0
176
     1
 40
1.0
176
     1
 40
1.0
176
     1
  0
VISUALSTYLE
  5
10026
102
{ACAD_REACTORS
330
1001D
102
}
330
1001D
100
AcDbVisualStyle
  2
Conceptual
 70
     9
177
     3
291
     0
 70
    58
 90
        3
176
     1
 90
        2
176
     1
 90
        0
176
     1
 90
        0
176
     1
 40
0.6
176
     1
 40
30.0
176
     1
 62
     7
420
 16777215
176
     1
 90
        2
176
     1
 90
        2
176
     1
 62
     7
176
     1
 62
   257
176
     1
 90
        1
176
     1
 90
        1
176
     1
 40
179.0
176
     1
 90
        8
176
     1
 62
     7
176
     1
 40
1.0
176
     1
 90
        1
176
     1
 90
        6
176
     1
 90
        2
176
     1
 62
     7
176
     1
 90
        3
176
     1
 90
        0
176
     1
 90
        0
176
     1
290
     0
176
     1
 90
        1
176
     1
 40
0.0
176
     1
 90
        0
176
     1
290
     0
176
     1
290
     1
176
     1
290
     1
176
     1
290
     0
176
     1
290
     0
176
     1
290
     0
176
     1
290
     0
176
     1
290
     0
176
     1
290
     0
176
     1
 90
       50
176
     1
 40
0.0
176
     1
 40
1.0
176
     1
 90
        0
176
     1
 62
    18
420
        0
176
     1
 90
       50
176
     1
 90
        3
176
     1
 62
     5
420
      255
176
     1
290
     0
176
     1
 90
       50
176
     1
 90
       50
176
     1
 90
       50
176
     1
290
     0
176
     1
 90
       50
176
     1
 62
   256
176
     0
 40
1.0
176
     0
 90
        2
176
     1
  1
strokes_ogs.tif
176
     1
290
     0
176
     1
 40
1.0
176
     1
 40
1.0
176
     1
  0
VISUALSTYLE
  5
10028
102
{ACAD_REACTORS
330
1001D
102
}
330
1001D
100
AcDbVisualStyle
  2
Dim
 70
    11
177
     3
291
     1
 70
    58
 90
        2
176
     1
 90
        2
176
     1
 90
        0
176
     1
 90
        0
176
     1
 40
0.6
176
     1
 40
30.0
176
     1
 62
     7
420
 16777215
176
     1
 90
        1
176
     1
 90
        4
176
     1
 62
     7
176
     1
 62
   257
176
     1
 90
        1
176
     1
 90
        1
176
     1
 40
1.0
176
     1
 90
        8
176
     1
 62
     7
176
     1
 40
1.0
176
     1
 90
        1
176
     1
 90
        6
176
     1
 90
        2
176
     1
 62
     7
176
     1
 90
        5
176
     1
 90
        0
176
     1
 90
        0
176
     1
290
     0
176
     1
 90
        1
176
     1
 40
-50.0
176
     1
 90
        0
176
     1
290
     0
176
     1
290
     1
176
     1
290
     1
176
     1
290
     0
176
     1
290
     0
176
     1
290
     0
176
     1
290
     0
176
     1
290
     0
176
     1
290
     0
176
     1
 90
       50
176
     1
 40
0.0
176
     1
 40
1.0
176
     1
 90
        0
176
     1
 62
    18
420
        0
176
     1
 90
       50
176
     1
 90
        3
176
     1
 62
     5
420
      255
176
     1
290
     0
176
     1
 90
       50
176
     1
 90
       50
176
     1
 90
       50
176
     1
290
     0
176
     1
 90
       50
176
     1
 62
   256
176
     0
 40
1.0
176
     0
 90
        2
176
     1
  1
strokes_ogs.tif
176
     1
290
     0
176
     1
 40
1.0
176
     1
 40
1.0
176
     1
  0
VISUALSTYLE
  5
10035
102
{ACAD_REACTORS
330
1001D
102
}
330
1001D
100
AcDbVisualStyle
  2
EdgeColorOff
 70
    22
177
     3
291
     1
 70
    58
 90
        2
176
     0
 90
        2
176
     0
 90
        0
176
     0
 90
        0
176
     0
 40
0.6
176
     0
 40
30.0
176
     0
 62
     7
420
 16777215
176
     0
 90
        1
176
     0
 90
        4
176
     0
 62
     7
176
     0
 62
   257
176
     0
 90
        1
176
     0
 90
        1
176
     0
 40
1.0
176
     0
 90
        8
176
     2
 62
     7
176
     0
 40
1.0
176
     0
 90
        1
176
     0
 90
        6
176
     0
 90
        2
176
     0
 62
     7
176
     0
 90
        5
176
     0
 90
        0
176
     0
 90
        0
176
     0
290
     0
176
     0
 90
        1
176
     0
 40
0.0
176
     0
 90
        0
176
     0
290
     0
176
     1
290
     1
176
     1
290
     1
176
     1
290
     0
176
     1
290
     0
176
     1
290
     0
176
     1
290
     0
176
     1
290
     0
176
     1
290
     0
176
     1
 90
       50
176
     0
 40
0.0
176
     0
 40
1.0
176
     0
 90
        0
176
     0
 62
    18
420
        0
176
     0
 90
       50
176
     0
 90
        3
176
     0
 62
     5
420
      255
176
     0
290
     0
176
     1
 90
       50
176
     0
 90
       50
176
     0
 90
       50
176
     0
290
     0
176
     1
 90
       50
176
     0
 62
   256
176
     0
 40
1.0
176
     0
 90
        2
176
     0
  1
strokes_ogs.tif
176
     0
290
     0
176
     1
 40
1.0
176
     0
 40
1.0
176
     0
  0
VISUALSTYLE
  5
1002C
102
{ACAD_REACTORS
330
1001D
102
}
330
1001D
100
AcDbVisualStyle
  2
Facepattern
 70
    15
177
     3
291
     1
 70
    58
 90
        2
176
     1
 90
        2
176
     1
 90
        0
176
     1
 90
        0
176
     1
 40
0.6
176
     1
 40
30.0
176
     1
 62
     7
420
 16777215
176
     1
 90
        1
176
     1
 90
        4
176
     1
 62
     7
176
     1
 62
   257
176
     1
 90
        1
176
     1
 90
        1
176
     1
 40
1.0
176
     1
 90
        8
176
     1
 62
     7
176
     1
 40
1.0
176
     1
 90
        1
176
     1
 90
        6
176
     1
 90
        2
176
     1
 62
     7
176
     1
 90
        5
176
     1
 90
        0
176
     1
 90
        0
176
     1
290
     0
176
     1
 90
        1
176
     1
 40
0.0
176
     1
 90
        0
176
     1
290
     0
176
     1
290
     1
176
     1
290
     1
176
     1
290
     0
176
     1
290
     0
176
     1
290
     0
176
     1
290
     0
176
     1
290
     0
176
     1
290
     0
176
     1
 90
       50
176
     1
 40
0.0
176
     1
 40
1.0
176
     1
 90
        0
176
     1
 62
    18
420
        0
176
     1
 90
       50
176
     1
 90
        3
176
     1
 62
     5
420
      255
176
     1
290
     0
176
     1
 90
       50
176
     1
 90
       50
176
     1
 90
       50
176
     1
290
     0
176
     1
 90
       50
176
     1
 62
   256
176
     0
 40
1.0
176
     0
 90
        2
176
     1
  1
strokes_ogs.tif
176
     1
290
     0
176
     1
 40
1.0
176
     1
 40
1.0
176
     1
  0
VISUALSTYLE
  5
1001E
102
{ACAD_REACTORS
330
1001D
102
}
330
1001D
100
AcDbVisualStyle
  2
Flat
 70
     0
177
     3
291
     1
 70
    58
 90
        2
176
     1
 90
        1
176
     1
 90
        1
176
     1
 90
        2
176
     1
 40
0.6
176
     1
 40
30.0
176
     1
 62
     7
420
 16777215
176
     1
 90
        0
176
     1
 90
        0
176
     1
 62
     7
176
     1
 62
   257
176
     1
 90
        1
176
     1
 90
        1
176
     1
 40
1.0
176
     1
 90
        8
176
     1
 62
     7
176
     1
 40
1.0
176
     1
 90
        1
176
     1
 90
        6
176
     1
 90
        2
176
     1
 62
     7
176
     1
 90
        5
176
     1
 90
        0
176
     1
 90
        0
176
     1
290
     0
176
     1
 90
       13
176
     1
 40
0.0
176
     1
 90
        0
176
     1
290
     0
176
     1
290
     1
176
     1
290
     1
176
     1
290
     0
176
     1
290
     0
176
     1
290
     0
176
     1
290
     0
176
     1
290
     0
176
     1
290
     0
176
     1
 90
       50
176
     1
 40
0.0
176
     1
 40
1.0
176
     1
 90
        0
176
     1
 62
    18
420
        0
176
     1
 90
       50
176
     1
 90
        3
176
     1
 62
     5
420
      255
176
     1
290
     0
176
     1
 90
       50
176
     1
 90
       50
176
     1
 90
       50
176
     1
290
     0
176
     1
 90
       50
176
     1
 62
   256
176
     0
 40
1.0
176
     0
 90
        2
176
     1
  1
strokes_ogs.tif
176
     1
290
     0
176
     1
 40
1.0
176
     1
 40
1.0
176
     1
  0
VISUALSTYLE
  5
1001F
102
{ACAD_REACTORS
330
1001D
102
}
330
1001D
100
AcDbVisualStyle
  2
FlatWithEdges
 70
     1
177
     3
291
     1
 70
    58
 90
        2
176
     1
 90
        1
176
     1
 90
        1
176
     1
 90
        2
176
     1
 40
0.6
176
     1
 40
30.0
176
     1
 62
     7
420
 16777215
176
     1
 90
        1
176
     1
 90
        0
176
     1
 62
     7
176
     1
 62
   257
176
     1
 90
        1
176
     1
 90
        1
176
     1
 40
1.0
176
     1
 90
        0
176
     1
 62
   257
176
     1
 40
1.0
176
     1
 90
        1
176
     1
 90
        6
176
     1
 90
        2
176
     1
 62
     7
176
     1
 90
        5
176
     1
 90
        0
176
     1
 90
        0
176
     1
290
     0
176
     1
 90
       13
176
     1
 40
0.0
176
     1
 90
        0
176
     1
290
     0
176
     1
290
     1
176
     1
290
     1
176
     1
290
     0
176
     1
290
     0
176
     1
290
     0
176
     1
290
     0
176
     1
290
     0
176
     1
290
     0
176
     1
 90
       50
176
     1
 40
0.0
176
     1
 40
1.0
176
     1
 90
        0
176
     1
 62
    18
420
        0
176
     1
 90
       50
176
     1
 90
        3
176
     1
 62
     5
420
      255
176
     1
290
     0
176
     1
 90
       50
176
     1
 90
       50
176
     1
 90
       50
176
     1
290
     0
176
     1
 90
       50
176
     1
 62
   256
176
     0
 40
1.0
176
     0
 90
        2
176
     1
  1
strokes_ogs.tif
176
     1
290
     0
176
     1
 40
1.0
176
     1
 40
1.0
176
     1
  0
VISUALSTYLE
  5
10020
102
{ACAD_REACTORS
330
1001D
102
}
330
1001D
100
AcDbVisualStyle
  2
Gouraud
 70
     2
177
     3
291
     1
 70
    58
 90
        2
176
     1
 90
        2
176
     1
 90
        1
176
     1
 90
        2
176
     1
 40
0.6
176
     1
 40
30.0
176
     1
 62
     7
420
 16777215
176
     1
 90
        0
176
     1
 90
        0
176
     1
 62
     7
176
     1
 62
   257
176
     1
 90
        1
176
     1
 90
        1
176
     1
 40
1.0
176
     1
 90
        0
176
     1
 62
     7
176
     1
 40
1.0
176
     1
 90
        1
176
     1
 90
        6
176
     1
 90
        2
176
     1
 62
     7
176
     1
 90
        5
176
     1
 90
        0
176
     1
 90
        0
176
     1
290
     0
176
     1
 90
       13
176
     1
 40
0.0
176
     1
 90
        0
176
     1
290
     0
176
     1
290
     1
176
     1
290
     1
176
     1
290
     0
176
     1
290
     0
176
     1
290
     0
176
     1
290
     0
176
     1
290
     0
176
     1
290
     0
176
     1
 90
       50
176
     1
 40
0.0
176
     1
 40
1.0
176
     1
 90
        0
176
     1
 62
    18
420
        0
176
     1
 90
       50
176
     1
 90
        3
176
     1
 62
     5
420
      255
176
     1
290
     0
176
     1
 90
       50
176
     1
 90
       50
176
     1
 90
       50
176
     1
290
     0
176
     1
 90
       50
176
     1
 62
   256
176
     0
 40
1.0
176
     0
 90
        2
176
     1
  1
strokes_ogs.tif
176
     1
290
     0
176
     1
 40
1.0
176
     1
 40
1.0
176
     1
  0
VISUALSTYLE
  5
10021
102
{ACAD_REACTORS
330
1001D
102
}
330
1001D
100
AcDbVisualStyle
  2
GouraudWithEdges
 70
     3
177
     3
291
     1
 70
    58
 90
        2
176
     1
 90
        2
176
     1
 90
        1
176
     1
 90
        2
176
     1
 40
0.6
176
     1
 40
30.0
176
     1
 62
     7
420
 16777215
176
     1
 90
        1
176
     1
 90
        0
176
     1
 62
     7
176
     1
 62
   257
176
     1
 90
        1
176
     1
 90
        1
176
     1
 40
1.0
176
     1
 90
        0
176
     1
 62
   257
176
     1
 40
1.0
176
     1
 90
        1
176
     1
 90
        6
176
     1
 90
        2
176
     1
 62
     7
176
     1
 90
        5
176
     1
 90
        0
176
     1
 90
        0
176
     1
290
     0
176
     1
 90
       13
176
     1
 40
0.0
176
     1
 90
        0
176
     1
290
     0
176
     1
290
     1
176
     1
290
     1
176
     1
290
     0
176
     1
290
     0
176
     1
290
     0
176
     1
290
     0
176
     1
290
     0
176
     1
290
     0
176
     1
 90
       50
176
     1
 40
0.0
176
     1
 40
1.0
176
     1
 90
        0
176
     1
 62
    18
420
        0
176
     1
 90
       50
176
     1
 90
        3
176
     1
 62
     5
420
      255
176
     1
290
     0
176
     1
 90
       50
176
     1
 90
       50
176
     1
 90
       50
176
     1
290
     0
176
     1
 90
       50
176
     1
 62
   256
176
     0
 40
1.0
176
     0
 90
        2
176
     1
  1
strokes_ogs.tif
176
     1
290
     0
176
     1
 40
1.0
176
     1
 40
1.0
176
     1
  0
VISUALSTYLE
  5
10025
102
{ACAD_REACTORS
330
1001D
102
}
330
1001D
100
AcDbVisualStyle
  2
Hidden
 70
     6
177
     3
291
     0
 70
    58
 90
        1
176
     1
 90
        2
176
     1
 90
        2
176
     1
 90
        0
176
     1
 40
0.6
176
     1
 40
30.0
176
     1
 62
     7
420
 16777215
176
     1
 90
        2
176
     1
 90
        2
176
     1
 62
     7
176
     1
 62
   257
176
     1
 90
        2
176
     1
 90
        1
176
     1
 40
40.0
176
     1
 90
        0
176
     1
 62
   257
176
     1
 40
1.0
176
     1
 90
        1
176
     1
 90
        6
176
     1
 90
        2
176
     1
 62
     7
176
     1
 90
        3
176
     1
 90
        0
176
     1
 90
        0
176
     1
290
     0
176
     1
 90
        1
176
     1
 40
0.0
176
     1
 90
        0
176
     1
290
     0
176
     1
290
     1
176
     1
290
     1
176
     1
290
     0
176
     1
290
     0
176
     1
290
     0
176
     1
290
     0
176
     1
290
     0
176
     1
290
     0
176
     1
 90
       50
176
     1
 40
0.0
176
     1
 40
1.0
176
     1
 90
        0
176
     1
 62
    18
420
        0
176
     1
 90
       50
176
     1
 90
        3
176
     1
 62
     5
420
      255
176
     1
290
     0
176
     1
 90
       50
176
     1
 90
       50
176
     1
 90
       50
176
     1
290
     0
176
     1
 90
       50
176
     1
 62
   256
176
     0
 40
1.0
176
     0
 90
        2
176
     1
  1
strokes_ogs.tif
176
     1
290
     0
176
     1
 40
1.0
176
     1
 40
1.0
176
     1
  0
VISUALSTYLE
  5
10033
102
{ACAD_REACTORS
330
1001D
102
}
330
1001D
100
AcDbVisualStyle
  2
JitterOff
 70
    20
177
     3
291
     1
 70
    58
 90
        2
176
     0
 90
        2
176
     0
 90
        0
176
     0
 90
        0
176
     0
 40
0.6
176
     0
 40
30.0
176
     0
 62
     7
420
 16777215
176
     0
 90
        1
176
     0
 90
        4
176
     0
 62
     7
176
     0
 62
   257
176
     0
 90
        1
176
     0
 90
        1
176
     0
 40
1.0
176
     0
 90
       10
176
     2
 62
     7
176
     0
 40
1.0
176
     0
 90
        1
176
     0
 90
        6
176
     0
 90
        2
176
     0
 62
     7
176
     0
 90
        5
176
     0
 90
        0
176
     0
 90
        0
176
     0
290
     0
176
     0
 90
        1
176
     0
 40
0.0
176
     0
 90
        0
176
     0
290
     0
176
     1
290
     1
176
     1
290
     1
176
     1
290
     0
176
     1
290
     0
176
     1
290
     0
176
     1
290
     0
176
     1
290
     0
176
     1
290
     0
176
     1
 90
       50
176
     0
 40
0.0
176
     0
 40
1.0
176
     0
 90
        0
176
     0
 62
    18
420
        0
176
     0
 90
       50
176
     0
 90
        3
176
     0
 62
     5
420
      255
176
     0
290
     0
176
     1
 90
       50
176
     0
 90
       50
176
     0
 90
       50
176
     0
290
     0
176
     1
 90
       50
176
     0
 62
   256
176
     0
 40
1.0
176
     0
 90
        2
176
     0
  1
strokes_ogs.tif
176
     0
290
     0
176
     1
 40
1.0
176
     0
 40
1.0
176
     0
  0
VISUALSTYLE
  5
1002B
102
{ACAD_REACTORS
330
1001D
102
}
330
1001D
100
AcDbVisualStyle
  2
Linepattern
 70
    14
177
     3
291
     1
 70
    58
 90
        2
176
     1
 90
        2
176
     1
 90
        0
176
     1
 90
        0
176
     1
 40
0.6
176
     1
 40
30.0
176
     1
 62
     7
420
 16777215
176
     1
 90
        1
176
     1
 90
        4
176
     1
 62
     7
176
     1
 62
   257
176
     1
 90
        7
176
     1
 90
        7
176
     1
 40
1.0
176
     1
 90
        8
176
     1
 62
     7
176
     1
 40
1.0
176
     1
 90
        1
176
     1
 90
        6
176
     1
 90
        2
176
     1
 62
     7
176
     1
 90
        5
176
     1
 90
        0
176
     1
 90
        0
176
     1
290
     0
176
     1
 90
        1
176
     1
 40
0.0
176
     1
 90
        0
176
     1
290
     0
176
     1
290
     1
176
     1
290
     1
176
     1
290
     0
176
     1
290
     0
176
     1
290
     0
176
     1
290
     0
176
     1
290
     0
176
     1
290
     0
176
     1
 90
       50
176
     1
 40
0.0
176
     1
 40
1.0
176
     1
 90
        0
176
     1
 62
    18
420
        0
176
     1
 90
       50
176
     1
 90
        3
176
     1
 62
     5
420
      255
176
     1
290
     0
176
     1
 90
       50
176
     1
 90
       50
176
     1
 90
       50
176
     1
290
     0
176
     1
 90
       50
176
     1
 62
   256
176
     0
 40
1.0
176
     0
 90
        2
176
     1
  1
strokes_ogs.tif
176
     1
290
     0
176
     1
 40
1.0
176
     1
 40
1.0
176
     1
  0
VISUALSTYLE
  5
10034
102
{ACAD_REACTORS
330
1001D
102
}
330
1001D
100
AcDbVisualStyle
  2
OverhangOff
 70
    21
177
     3
291
     1
 70
    58
 90
        2
176
     0
 90
        2
176
     0
 90
        0
176
     0
 90
        0
176
     0
 40
0.6
176
     0
 40
30.0
176
     0
 62
     7
420
 16777215
176
     0
 90
        1
176
     0
 90
        4
176
     0
 62
     7
176
     0
 62
   257
176
     0
 90
        1
176
     0
 90
        1
176
     0
 40
1.0
176
     0
 90
        9
176
     2
 62
     7
176
     0
 40
1.0
176
     0
 90
        1
176
     0
 90
        6
176
     0
 90
        2
176
     0
 62
     7
176
     0
 90
        5
176
     0
 90
        0
176
     0
 90
        0
176
     0
290
     0
176
     0
 90
        1
176
     0
 40
0.0
176
     0
 90
        0
176
     0
290
     0
176
     1
290
     1
176
     1
290
     1
176
     1
290
     0
176
     1
290
     0
176
     1
290
     0
176
     1
290
     0
176
     1
290
     0
176
     1
290
     0
176
     1
 90
       50
176
     0
 40
0.0
176
     0
 40
1.0
176
     0
 90
        0
176
     0
 62
    18
420
        0
176
     0
 90
       50
176
     0
 90
        3
176
     0
 62
     5
420
      255
176
     0
290
     0
176
     1
 90
       50
176
     0
 90
       50
176
     0
 90
       50
176
     0
290
     0
176
     1
 90
       50
176
     0
 62
   256
176
     0
 40
1.0
176
     0
 90
        2
176
     0
  1
strokes_ogs.tif
176
     0
290
     0
176
     1
 40
1.0
176
     0
 40
1.0
176
     0
  0
VISUALSTYLE
  5
10027
102
{ACAD_REACTORS
330
1001D
102
}
330
1001D
100
AcDbVisualStyle
  2
Realistic
 70
     8
177
     3
291
     0
 70
    58
 90
        2
176
     1
 90
        3
176
     1
 90
        0
176
     1
 90
        2
176
     1
 40
0.6
176
     1
 40
30.0
176
     1
 62
     7
420
 16777215
176
     1
 90
        0
176
     1
 90
        0
176
     1
 62
     7
176
     1
 62
   257
176
     1
 90
        1
176
     1
 90
        1
176
     1
 40
1.0
176
     1
 90
        8
176
     1
 62
   257
176
     1
 40
1.0
176
     1
 90
        1
176
     1
 90
        6
176
     1
 90
        2
176
     1
 62
     7
176
     1
 90
        3
176
     1
 90
        0
176
     1
 90
        0
176
     1
290
     0
176
     1
 90
       13
176
     1
 40
0.0
176
     1
 90
        0
176
     1
290
     0
176
     1
290
     1
176
     1
290
     1
176
     1
290
     0
176
     1
290
     0
176
     1
290
     0
176
     1
290
     0
176
     1
290
     0
176
     1
290
     0
176
     1
 90
       50
176
     1
 40
0.0
176
     1
 40
1.0
176
     1
 90
        0
176
     1
 62
    18
420
        0
176
     1
 90
       50
176
     1
 90
        3
176
     1
 62
     5
420
      255
176
     1
290
     0
176
     1
 90
       50
176
     1
 90
       50
176
     1
 90
       50
176
     1
290
     0
176
     1
 90
       50
176
     1
 62
   256
176
     0
 40
1.0
176
     0
 90
        2
176
     1
  1
strokes_ogs.tif
176
     1
290
     0
176
     1
 40
1.0
176
     1
 40
1.0
176
     1
  0
VISUALSTYLE
  5
10032
102
{ACAD_REACTORS
330
1001D
102
}
330
1001D
100
AcDbVisualStyle
  2
Shaded
 70
    27
177
     3
291
     0
 70
    58
 90
        2
176
     1
 90
        2
176
     1
 90
        1
176
     1
 90
        2
176
     1
 40
0.6
176
     1
 40
30.0
176
     1
 62
     7
420
 16777215
176
     1
 90
        0
176
     1
 90
        4
176
     1
 62
     7
176
     1
 62
   257
176
     1
 90
        1
176
     1
 90
        1
176
     1
 40
1.0
176
     1
 90
        8
176
     1
 62
   257
176
     1
 40
1.0
176
     1
 90
        1
176
     1
 90
        6
176
     1
 90
        2
176
     1
 62
     8
420
  7895160
176
     1
 90
        3
176
     1
 90
        0
176
     1
 90
        0
176
     1
290
     0
176
     1
 90
        5
176
     1
 40
0.0
176
     1
 90
        0
176
     1
290
     0
176
     1
290
     1
176
     1
290
     1
176
     1
290
     0
176
     1
290
     0
176
     1
290
     0
176
     1
290
     0
176
     1
290
     0
176
     1
290
     0
176
     1
 90
       50
176
     1
 40
0.0
176
     1
 40
1.0
176
     1
 90
        0
176
     1
 62
    18
420
        0
176
     1
 90
       50
176
     1
 90
        3
176
     1
 62
     5
420
      255
176
     1
290
     0
176
     1
 90
       50
176
     1
 90
       50
176
     1
 90
       50
176
     1
290
     0
176
     1
 90
       50
176
     1
 62
   256
176
     0
 40
1.0
176
     0
 90
        2
176
     1
  1
strokes_ogs.tif
176
     1
290
     0
176
     1
 40
1.0
176
     1
 40
1.0
176
     1
  0
VISUALSTYLE
  5
10031
102
{ACAD_REACTORS
330
1001D
102
}
330
1001D
100
AcDbVisualStyle
  2
Shaded with edges
 70
    26
177
     3
291
     0
 70
    58
 90
        2
176
     1
 90
        2
176
     1
 90
        1
176
     1
 90
        2
176
     1
 40
0.6
176
     1
 40
30.0
176
     1
 62
     7
420
 16777215
176
     1
 90
        1
176
     1
 90
        2
176
     1
 62
     7
176
     1
 62
   257
176
     1
 90
        2
176
     1
 90
        1
176
     1
 40
1.0
176
     1
 90
        8
176
     1
 62
   257
176
     1
 40
1.0
176
     1
 90
        1
176
     1
 90
        6
176
     1
 90
        2
176
     1
 62
     7
176
     1
 90
        3
176
     1
 90
        0
176
     1
 90
        0
176
     1
290
     0
176
     1
 90
        5
176
     1
 40
0.0
176
     1
 90
        0
176
     1
290
     0
176
     1
290
     1
176
     1
290
     1
176
     1
290
     0
176
     1
290
     0
176
     1
290
     0
176
     1
290
     0
176
     1
290
     0
176
     1
290
     0
176
     1
 90
       50
176
     1
 40
0.0
176
     1
 40
1.0
176
     1
 90
        0
176
     1
 62
    18
420
        0
176
     1
 90
       50
176
     1
 90
        3
176
     1
 62
     5
420
      255
176
     1
290
     0
176
     1
 90
       50
176
     1
 90
       50
176
     1
 90
       50
176
     1
290
     0
176
     1
 90
       50
176
     1
 62
   256
176
     0
 40
1.0
176
     0
 90
        2
176
     1
  1
strokes_ogs.tif
176
     1
290
     0
176
     1
 40
1.0
176
     1
 40
1.0
176
     1
  0
VISUALSTYLE
  5
1002E
102
{ACAD_REACTORS
330
1001D
102
}
330
1001D
100
AcDbVisualStyle
  2
Shades of Gray
 70
    23
177
     3
291
     0
 70
    58
 90
        2
176
     1
 90
        2
176
     1
 90
        3
176
     1
 90
        0
176
     1
 40
0.6
176
     1
 40
30.0
176
     1
 62
     7
420
 16777215
176
     1
 90
        2
176
     1
 90
        2
176
     1
 62
     7
176
     1
 62
     7
176
     1
 90
        1
176
     1
 90
        1
176
     1
 40
40.0
176
     1
 90
        8
176
     1
 62
     7
176
     1
 40
1.0
176
     1
 90
        1
176
     1
 90
        6
176
     1
 90
        2
176
     1
 62
     7
176
     1
 90
        3
176
     1
 90
        0
176
     1
 90
        0
176
     1
290
     0
176
     1
 90
        1
176
     1
 40
0.0
176
     1
 90
        0
176
     1
290
     0
176
     1
290
     1
176
     1
290
     1
176
     1
290
     0
176
     1
290
     0
176
     1
290
     0
176
     1
290
     0
176
     1
290
     0
176
     1
290
     0
176
     1
 90
       50
176
     1
 40
0.0
176
     1
 40
1.0
176
     1
 90
        0
176
     1
 62
    18
420
        0
176
     1
 90
       50
176
     1
 90
        3
176
     1
 62
     5
420
      255
176
     1
290
     0
176
     1
 90
       50
176
     1
 90
       50
176
     1
 90
       50
176
     1
290
     0
176
     1
 90
       50
176
     1
 62
   256
176
     0
 40
1.0
176
     0
 90
        2
176
     1
  1
strokes_ogs.tif
176
     1
290
     0
176
     1
 40
1.0
176
     1
 40
1.0
176
     1
  0
VISUALSTYLE
  5
1002F
102
{ACAD_REACTORS
330
1001D
102
}
330
1001D
100
AcDbVisualStyle
  2
Sketchy
 70
    24
177
     3
291
     0
 70
    58
 90
        1
176
     1
 90
        2
176
     1
 90
        2
176
     1
 90
        0
176
     1
 40
0.6
176
     1
 40
30.0
176
     1
 62
     7
420
 16777215
176
     1
 90
        2
176
     1
 90
        2
176
     1
 62
     7
176
     1
 62
     7
176
     1
 90
        1
176
     1
 90
        1
176
     1
 40
40.0
176
     1
 90
       11
176
     1
 62
     7
176
     1
 40
1.0
176
     1
 90
        1
176
     1
 90
        6
176
     1
 90
        2
176
     1
 62
     7
176
     1
 90
        6
176
     1
 90
        0
176
     1
 90
        0
176
     1
290
     0
176
     1
 90
        1
176
     1
 40
0.0
176
     1
 90
        0
176
     1
290
     0
176
     1
290
     1
176
     1
290
     1
176
     1
290
     0
176
     1
290
     0
176
     1
290
     0
176
     1
290
     0
176
     1
290
     0
176
     1
290
     0
176
     1
 90
       50
176
     1
 40
0.0
176
     1
 40
1.0
176
     1
 90
        0
176
     1
 62
    18
420
        0
176
     1
 90
       50
176
     1
 90
        3
176
     1
 62
     5
420
      255
176
     1
290
     0
176
     1
 90
       50
176
     1
 90
       50
176
     1
 90
       50
176
     1
290
     0
176
     1
 90
       50
176
     1
 62
   256
176
     0
 40
1.0
176
     0
 90
        2
176
     1
  1
strokes_ogs.tif
176
     1
290
     0
176
     1
 40
1.0
176
     1
 40
1.0
176
     1
  0
VISUALSTYLE
  5
1002A
102
{ACAD_REACTORS
330
1001D
102
}
330
1001D
100
AcDbVisualStyle
  2
Thicken
 70
    13
177
     3
291
     1
 70
    58
 90
        2
176
     1
 90
        2
176
     1
 90
        0
176
     1
 90
        0
176
     1
 40
0.6
176
     1
 40
30.0
176
     1
 62
     7
420
 16777215
176
     1
 90
        1
176
     1
 90
        4
176
     1
 62
     7
176
     1
 62
   257
176
     1
 90
        1
176
     1
 90
        1
176
     1
 40
1.0
176
     1
 90
       12
176
     1
 62
     7
176
     1
 40
1.0
176
     1
 90
        1
176
     1
 90
        6
176
     1
 90
        2
176
     1
 62
     7
176
     1
 90
        5
176
     1
 90
        0
176
     1
 90
        0
176
     1
290
     0
176
     1
 90
        1
176
     1
 40
0.0
176
     1
 90
        0
176
     1
290
     0
176
     1
290
     1
176
     1
290
     1
176
     1
290
     0
176
     1
290
     0
176
     1
290
     0
176
     1
290
     0
176
     1
290
     0
176
     1
290
     0
176
     1
 90
       50
176
     1
 40
0.0
176
     1
 40
1.0
176
     1
 90
        0
176
     1
 62
    18
420
        0
176
     1
 90
       50
176
     1
 90
        3
176
     1
 62
     5
420
      255
176
     1
290
     0
176
     1
 90
       50
176
     1
 90
       50
176
     1
 90
       50
176
     1
290
     0
176
     1
 90
       50
176
     1
 62
   256
176
     0
 40
1.0
176
     0
 90
        2
176
     1
  1
strokes_ogs.tif
176
     1
290
     0
176
     1
 40
1.0
176
     1
 40
1.0
176
     1
  0
VISUALSTYLE
  5
10024
102
{ACAD_REACTORS
330
1001D
102
}
330
1001D
100
AcDbVisualStyle
  2
Wireframe
 70
     5
177
     3
291
     0
 70
    58
 90
        0
176
     1
 90
        2
176
     1
 90
        0
176
     1
 90
        0
176
     1
 40
0.6
176
     1
 40
30.0
176
     1
 62
     7
420
 16777215
176
     1
 90
        1
176
     1
 90
        4
176
     1
 62
     7
176
     1
 62
   257
176
     1
 90
        1
176
     1
 90
        1
176
     1
 40
1.0
176
     1
 90
        0
176
     1
 62
   257
176
     1
 40
1.0
176
     1
 90
        1
176
     1
 90
        6
176
     1
 90
        2
176
     1
 62
     7
176
     1
 90
        3
176
     1
 90
        0
176
     1
 90
        0
176
     1
290
     0
176
     1
 90
        1
176
     1
 40
0.0
176
     1
 90
        0
176
     1
290
     0
176
     1
290
     1
176
     1
290
     1
176
     1
290
     0
176
     1
290
     0
176
     1
290
     0
176
     1
290
     0
176
     1
290
     0
176
     1
290
     0
176
     1
 90
       50
176
     1
 40
0.0
176
     1
 40
1.0
176
     1
 90
        0
176
     1
 62
    18
420
        0
176
     1
 90
       50
176
     1
 90
        3
176
     1
 62
     5
420
      255
176
     1
290
     0
176
     1
 90
       50
176
     1
 90
       50
176
     1
 90
       50
176
     1
290
     0
176
     1
 90
       50
176
     1
 62
   256
176
     0
 40
1.0
176
     0
 90
        2
176
     1
  1
strokes_ogs.tif
176
     1
290
     0
176
     1
 40
1.0
176
     1
 40
1.0
176
     1
  0
VISUALSTYLE
  5
10030
102
{ACAD_REACTORS
330
1001D
102
}
330
1001D
100
AcDbVisualStyle
  2
X-Ray
 70
    25
177
     3
291
     0
 70
    58
 90
        2
176
     1
 90
        2
176
     1
 90
        1
176
     1
 90
        1
176
     1
 40
0.5
176
     1
 40
30.0
176
     1
 62
     7
420
 16777215
176
     1
 90
        1
176
     1
 90
        0
176
     1
 62
     7
176
     1
 62
   257
176
     1
 90
        1
176
     1
 90
        1
176
     1
 40
1.0
176
     1
 90
        8
176
     1
 62
     7
176
     1
 40
1.0
176
     1
 90
        1
176
     1
 90
        6
176
     1
 90
        2
176
     1
 62
     7
176
     1
 90
        3
176
     1
 90
        0
176
     1
 90
        0
176
     1
290
     0
176
     1
 90
       13
176
     1
 40
0.0
176
     1
 90
        0
176
     1
290
     0
176
     1
290
     1
176
     1
290
     1
176
     1
290
     0
176
     1
290
     0
176
     1
290
     0
176
     1
290
     0
176
     1
290
     0
176
     1
290
     0
176
     1
 90
       50
176
     1
 40
0.0
176
     1
 40
1.0
176
     1
 90
        0
176
     1
 62
    18
420
        0
176
     1
 90
       50
176
     1
 90
        3
176
     1
 62
     5
420
      255
176
     1
290
     0
176
     1
 90
       50
176
     1
 90
       50
176
     1
 90
       50
176
     1
290
     0
176
     1
 90
       50
176
     1
 62
   256
176
     0
 40
1.0
176
     0
 90
        2
176
     1
  1
strokes_ogs.tif
176
     1
290
     0
176
     1
 40
1.0
176
     1
 40
1.0
176
     1
  0
DICTIONARYVAR
  5
10305
102
{ACAD_REACTORS
330
102FF
102
}
330
102FF
100
DictionaryVariables
280
     0
  1
1:1
  0
DICTIONARYVAR
  5
10301
102
{ACAD_REACTORS
330
102FF
102
}
330
102FF
100
DictionaryVariables
280
     0
  1
STANDARD
  0
DICTIONARYVAR
  5
10300
102
{ACAD_REACTORS
330
102FF
102
}
330
102FF
100
DictionaryVariables
280
     0
  1
STANDARD
  0
DICTIONARYVAR
  5
10302
102
{ACAD_REACTORS
330
102FF
102
}
330
102FF
100
DictionaryVariables
280
     0
  1
Imperial24
  0
DICTIONARYVAR
  5
10303
102
{ACAD_REACTORS
330
102FF
102
}
330
102FF
100
DictionaryVariables
280
     0
  1
Imperial24
  0
DICTIONARYVAR
  5
10307
102
{ACAD_REACTORS
330
102FF
102
}
330
102FF
100
DictionaryVariables
280
     0
  1
1
  0
DICTIONARYVAR
  5
10308
102
{ACAD_REACTORS
330
102FF
102
}
330
102FF
100
DictionaryVariables
280
     0
  1
15
  0
DICTIONARYVAR
  5
10306
102
{ACAD_REACTORS
330
102FF
102
}
330
102FF
100
DictionaryVariables
280
     0
  1
0
  0
DICTIONARYVAR
  5
10304
102
{ACAD_REACTORS
330
102FF
102
}
330
102FF
100
DictionaryVariables
280
     0
  1
0
  0
DICTIONARY
  5
1000E
330
1000D
100
AcDbDictionary
280
     1
281
     1
  3
BUMPTILE
360
10010
  3
DIFFUSETILE
360
1000F
  3
OPACITYTILE
360
10013
  3
REFLECTIONTILE
360
10012
  3
REFRACTIONTILE
360
10014
  3
SPECULARTILE
360
10011
  0
DICTIONARY
  5
10006
330
10005
100
AcDbDictionary
280
     1
281
     1
  3
BUMPTILE
360
10008
  3
DIFFUSETILE
360
10007
  3
OPACITYTILE
360
1000B
  3
REFLECTIONTILE
360
1000A
  3
REFRACTIONTILE
360
1000C
  3
SPECULARTILE
360
10009
  0
DICTIONARY
  5
10016
330
10015
100
AcDbDictionary
280
     1
281
     1
  3
BUMPTILE
360
10018
  3
DIFFUSETILE
360
10017
  3
OPACITYTILE
360
1001B
  3
REFLECTIONTILE
360
1001A
  3
REFRACTIONTILE
360
1001C
  3
SPECULARTILE
360
10019
  0
DICTIONARY
  5
103CD
330
10039
100
AcDbDictionary
280
     1
281
     1
  3
ACAD_ROUNDTRIP_2008_TABLESTYLE_CELLSTYLEMAP
360
103CE
  0
XRECORD
  5
10010
102
{ACAD_REACTORS
330
1000E
102
}
330
1000E
100
AcDbXrecord
280
     1
270
     1
271
     1
  0
XRECORD
  5
1000F
102
{ACAD_REACTORS
330
1000E
102
}
330
1000E
100
AcDbXrecord
280
     1
270
     1
271
     1
  0
XRECORD
  5
10013
102
{ACAD_REACTORS
330
1000E
102
}
330
1000E
100
AcDbXrecord
280
     1
270
     1
271
     1
  0
XRECORD
  5
10012
102
{ACAD_REACTORS
330
1000E
102
}
330
1000E
100
AcDbXrecord
280
     1
270
     1
271
     1
  0
XRECORD
  5
10014
102
{ACAD_REACTORS
330
1000E
102
}
330
1000E
100
AcDbXrecord
280
     1
270
     1
271
     1
  0
XRECORD
  5
10011
102
{ACAD_REACTORS
330
1000E
102
}
330
1000E
100
AcDbXrecord
280
     1
270
     1
271
     1
  0
XRECORD
  5
10008
102
{ACAD_REACTORS
330
10006
102
}
330
10006
100
AcDbXrecord
280
     1
270
     1
271
     1
  0
XRECORD
  5
10007
102
{ACAD_REACTORS
330
10006
102
}
330
10006
100
AcDbXrecord
280
     1
270
     1
271
     1
  0
XRECORD
  5
1000B
102
{ACAD_REACTORS
330
10006
102
}
330
10006
100
AcDbXrecord
280
     1
270
     1
271
     1
  0
XRECORD
  5
1000A
102
{ACAD_REACTORS
330
10006
102
}
330
10006
100
AcDbXrecord
280
     1
270
     1
271
     1
  0
XRECORD
  5
1000C
102
{ACAD_REACTORS
330
10006
102
}
330
10006
100
AcDbXrecord
280
     1
270
     1
271
     1
  0
XRECORD
  5
10009
102
{ACAD_REACTORS
330
10006
102
}
330
10006
100
AcDbXrecord
280
     1
270
     1
271
     1
  0
XRECORD
  5
10018
102
{ACAD_REACTORS
330
10016
102
}
330
10016
100
AcDbXrecord
280
     1
270
     1
271
     1
  0
XRECORD
  5
10017
102
{ACAD_REACTORS
330
10016
102
}
330
10016
100
AcDbXrecord
280
     1
270
     1
271
     1
  0
XRECORD
  5
1001B
102
{ACAD_REACTORS
330
10016
102
}
330
10016
100
AcDbXrecord
280
     1
270
     1
271
     1
  0
XRECORD
  5
1001A
102
{ACAD_REACTORS
330
10016
102
}
330
10016
100
AcDbXrecord
280
     1
270
     1
271
     1
  0
XRECORD
  5
1001C
102
{ACAD_REACTORS
330
10016
102
}
330
10016
100
AcDbXrecord
280
     1
270
     1
271
     1
  0
XRECORD
  5
10019
102
{ACAD_REACTORS
330
10016
102
}
330
10016
100
AcDbXrecord
280
     1
270
     1
271
     1
  0
CELLSTYLEMAP
  5
103CE
102
{ACAD_REACTORS
330
103CD
102
}
330
103CD
100
AcDbCellStyleMap
 90
        3
300
CELLSTYLE
  1
TABLEFORMAT_BEGIN
 90
        5
170
     1
 91
        0
 92
    32768
 62
   257
 93
        1
300
CONTENTFORMAT
  1
CONTENTFORMAT_BEGIN
 90
        0
 91
        0
 92
      512
 93
        0
300

 40
0.0
140
1.0
 94
        5
 62
     0
340
11
144
0.25
309
CONTENTFORMAT_END
171
     0
 94
        0
309
TABLEFORMAT_END
  1
CELLSTYLE_BEGIN
 90
        1
 91
        1
300
_TITLE
309
CELLSTYLE_END
300
CELLSTYLE
  1
TABLEFORMAT_BEGIN
 90
        5
170
     1
 91
        0
 92
        0
 62
   257
 93
        1
300
CONTENTFORMAT
  1
CONTENTFORMAT_BEGIN
 90
        0
 91
        0
 92
      512
 93
        0
300

 40
0.0
140
1.0
 94
        5
 62
     0
340
11
144
0.18
309
CONTENTFORMAT_END
171
     0
 94
        0
309
TABLEFORMAT_END
  1
CELLSTYLE_BEGIN
 90
        2
 91
        1
300
_HEADER
309
CELLSTYLE_END
300
CELLSTYLE
  1
TABLEFORMAT_BEGIN
 90
        5
170
     1
 91
        0
 92
        0
 62
   257
 93
        1
300
CONTENTFORMAT
  1
CONTENTFORMAT_BEGIN
 90
        0
 91
        0
 92
      512
 93
        0
300

 40
0.0
140
1.0
 94
        2
 62
     0
340
11
144
0.18
309
CONTENTFORMAT_END
171
     0
 94
        0
309
TABLEFORMAT_END
  1
CELLSTYLE_BEGIN
 90
        3
 91
        2
300
_DATA
309
CELLSTYLE_END
  0
ENDSEC
  0
SECTION
  2
ACDSDATA
 70
     2
 71
     8
  0
ACDSSCHEMA
 90
        0
  1
AcDb_Thumbnail_Schema
  2
AcDbDs::ID
280
    10
 91
        8
  2
Thumbnail_Data
280
    15
 91
        0
101
ACDSRECORD
 95
        0
 90
        1
  2
AcDbDs::TreatedAsObjectData
280
     1
291
     1
101
ACDSRECORD
 95
        0
 90
        2
  2
AcDbDs::Legacy
280
     1
291
     1
101
ACDSRECORD
  1
AcDbDs::ID
 90
        3
  2
AcDs:Indexable
280
     1
291
     1
101
ACDSRECORD
  1
AcDbDs::ID
 90
        4
  2
AcDbDs::HandleAttribute
280
     7
282
     1
  0
ACDSSCHEMA
 90
        1
  1
AcDbDs::TreatedAsObjectDataSchema
  2
AcDbDs::TreatedAsObjectData
280
     1
 91
        0
  0
ACDSSCHEMA
 90
        2
  1
AcDbDs::LegacySchema
  2
AcDbDs::Legacy
280
     1
 91
        0
  0
ACDSSCHEMA
 90
        3
  1
AcDbDs::IndexedPropertySchema
  2
AcDs:Indexable
280
     1
 91
        0
  0
ACDSSCHEMA
 90
        4
  1
AcDbDs::HandleAttributeSchema
  2
AcDbDs::HandleAttribute
280
     7
 91
        1
284
     1
  0
ACDSRECORD
 90
        0
  2
AcDbDs::ID
280
    10
320
10055
  2
Thumbnail_Data
280
    15
 94
     2028
310
89504E470D0A1A0A0000000D4948445200000100000000BA0803000000768A63F300000300504C5445212830FFFFFF2128300000000000000000000000000000000000000000000000000000330000660000990000CC0000FF0033000033330033660033990033CC0033FF0066000066330066660066990066CC0066FF0099
310
000099330099660099990099CC0099FF00CC0000CC3300CC6600CC9900CCCC00CCFF00FF0000FF3300FF6600FF9900FFCC00FFFF3300003300333300663300993300CC3300FF3333003333333333663333993333CC3333FF3366003366333366663366993366CC3366FF3399003399333399663399993399CC3399FF33CC00
310
33CC3333CC6633CC9933CCCC33CCFF33FF0033FF3333FF6633FF9933FFCC33FFFF6600006600336600666600996600CC6600FF6633006633336633666633996633CC6633FF6666006666336666666666996666CC6666FF6699006699336699666699996699CC6699FF66CC0066CC3366CC6666CC9966CCCC66CCFF66FF0066
310
FF3366FF6666FF9966FFCC66FFFF9900009900339900669900999900CC9900FF9933009933339933669933999933CC9933FF9966009966339966669966999966CC9966FF9999009999339999669999999999CC9999FF99CC0099CC3399CC6699CC9999CCCC99CCFF99FF0099FF3399FF6699FF9999FFCC99FFFFCC0000CC00
310
33CC0066CC0099CC00CCCC00FFCC3300CC3333CC3366CC3399CC33CCCC33FFCC6600CC6633CC6666CC6699CC66CCCC66FFCC9900CC9933CC9966CC9999CC99CCCC99FFCCCC00CCCC33CCCC66CCCC99CCCCCCCCCCFFCCFF00CCFF33CCFF66CCFF99CCFFCCCCFFFFFF0000FF0033FF0066FF0099FF00CCFF00FFFF3300FF3333
310
FF3366FF3399FF33CCFF33FFFF6600FF6633FF6666FF6699FF66CCFF66FFFF9900FF9933FF9966FF9999FF99CCFF99FFFFCC00FFCC33FFCC66FFCC99FFCCCCFFCCFFFFFF00FFFF33FFFF66FFFF99FFFFCCFFFFFF0000000D0D0D1A1A1A2828283535354343435050505D5D5D6B6B6B787878868686939393A1A1A1AEAEAEBB
310
BBBBC9C9C9D6D6D6E4E4E4F1F1F1FFFFFF0000000000000000000000000000000000000000000000000000000000002E4550F1000003364944415478DAED9C5972EB201045D9FFA2EEAEFAFF3D5988496872EC2A379C53E510E4C8652E3DA108850000000000000000000000000000000000000000F061F4731FF46B026863
310
5401AEB8FE8B7B02610173C4007FF6A0D7B7FE802A8AA30FDE04D879FB1F04F06901CBC083AAAFFEB605788C0166A6E547464DFF1E5EB382856733A723F330A7496127408C056904D58CAE91A2EBEAD68416C702D463AB62435D18A5136D2F881B01D6E06DB78B859E0BD872BED542BA12C08AF1A770160FDAD22AB6AFA0A9
310
7C3C9FE44B80C260A343571E61FFBFBDA5DF7BFDFCAA7C49C19B009B085182655697B934C5F6A85FB42EB3C01ABE52CDA372F65FA3526CD7FEE612F9FDA21D220D56B3BF6F534C38B502F7021C0CEECA056CFB08E702D8E94B17EF0FE302472FD9E9FB4308F0070B183E085EB6AE05506E7629EE6EEB5080B4A44902BC3BFB
310
4EB3C0FE6AF7642E9096B5D902DE34FF6162C0642EF0B0100AB31742367B21142884C62D849AD5E02C85503F08CE9C05700182E0E4699042C80882932E86C802B84055084D5B097ED4055CDD24F39542C89302DF2884E450000A210AA1E9EB80E92B410A212E8B73599C2B4213670116436D54BFD30E5B086DFDAB76D4CBE2
310
794913DA1BE7AB03430441B56970B7A2EBEC1CD80E8D900665DDD94FFBA8426FEF48B13FCA7B1094CA20580B7071A29AF35C0A70B00778B9413A7B8359755F7CEC956E304C1658DBB0FE561CE835A6E05B807CA7606BCAC5D497E38AB54FAF7E1841806E30B3932C69E63C08A61B24C3B129AFB54EA180756AE8810AA17DBF
310
DA14D40A60A71F2417D37FF53C886D90AA04D09D11EBE743C0B9054C2F40E80CB9ED8D294037084E2BC0E604AA329E7A31D093005509B0DF366D564AF1EAA92A84D41BFF300214A570D643452FED2BF51B042F9E91B40CB3D950AE6A31F4EA999ADDE33E63C0AB12B427CF0F483D35C9C2691094751DFA9900DE2DE041CE38
310
10A0F337AE2CE00B02F85F0BD4CF08EAF4E4F83942E5C5CDF0250B706300530AF07EE13CA700D157CA87AE84F2FF44D53F0AC61CBF9A47EFA49F6549890B4C831E1C45000418342A7696D33359809A7A320C9D0671010000000000000000000000000000000000000000000000000080C7FC0309E99FAD293E870D00000000
310
49454E44AE426082B0EA0099B5816424BD9ECF090E13209DFC7ACA64A8D9DA18AC0C5E705A021AA236310178B52C7C367E1804E08200F8B1001DABBD62013B1160FA80D9097869CA5A043448D98A80B311FDEBCD47402F12841109AE4640371780910BA07F392704E4EB7B1704F4B24118D920FA57734640564BBBA102927D
310
3750AD07A05C3D92B3CD0A973C11506E98D35F110ACFAAFB1537B0DB24C43AACF3F880B36C6EAB1CF2FDC1A07125D704C87BA5B535010DF9744A406859C0C708706E01AFBDC57D8B00D7B980FE5E80046C41C0DDD50073C7984E1B9CEF32A3CBEBE36D2FF29605FCB7E71F60EC1FB30F01A9A62476B50084F7E6DFC4047C23
310
A1DE8D80735B0EBD7364BE6183DE72094B1190BF0DA346A853CCB4B560F0F1F3C82F4C8162E3C4620AA491D3072C48C02B032401248004EC4240B67995DE936F7102AE169CD7B700582B0E2A7AA40F2001044110044110044110044110044110044110C438FE0122413C2F91CC1C9E0000000049454E44AE426082
  0
ENDSEC
  0
EOF
